<?xml version="1.0" encoding="UTF-8"?>
<svg version="1.1" xmlns="http://www.w3.org/2000/svg" width="474" height="263">
<path d="M0 0 C156.42 0 312.84 0 474 0 C474 86.79 474 173.58 474 263 C317.58 263 161.16 263 0 263 C0 176.21 0 89.42 0 0 Z " fill="#010101" transform="translate(0,0)"/>
<path d="M0 0 C4.29 0 8.58 0 13 0 C13.350625 1.27875 13.70125 2.5575 14.0625 3.875 C15.78503139 9.6467047 17.96881085 15.20624048 20.22290039 20.78662109 C23.14970862 28.12061467 25.48441672 35.45325015 28 43 C28.33 28.81 28.66 14.62 29 0 C33.29 0 37.58 0 42 0 C42 25.41 42 50.82 42 77 C38.04091662 77.65984723 35.00295662 78.12125692 31.125 78.0625 C29.95324219 78.04896484 29.95324219 78.04896484 28.7578125 78.03515625 C28.17773438 78.02355469 27.59765625 78.01195312 27 78 C25.58214265 73.91707916 24.1659392 69.83358641 22.75 65.75 C22.35425781 64.61046875 21.95851563 63.4709375 21.55078125 62.296875 C18.98078346 54.88179942 16.46334351 47.45118939 14 40 C13.97494385 41.20648193 13.9498877 42.41296387 13.92407227 43.65600586 C13.83017477 48.11575661 13.72991167 52.57534513 13.62768555 57.03491211 C13.58426959 58.96814185 13.54259958 60.90141159 13.50268555 62.8347168 C13.44514369 65.60738202 13.3814038 68.37984457 13.31640625 71.15234375 C13.29133751 72.45702858 13.29133751 72.45702858 13.26576233 73.78807068 C13.11387171 79.88612829 13.11387171 79.88612829 12 81 C6.06 81.495 6.06 81.495 0 82 C0 54.94 0 27.88 0 0 Z " fill="#E62825" transform="translate(84,90)"/>
<path d="M0 0 C4.62 0 9.24 0 14 0 C14.98459071 2.3937297 15.96278703 4.7897507 16.9375 7.1875 C17.35418945 8.19780273 17.35418945 8.19780273 17.77929688 9.22851562 C19.22621056 12.80221811 20.41163129 16.16443184 21 20 C21.66 20 22.32 20 23 20 C23.23783203 19.09121094 23.23783203 19.09121094 23.48046875 18.1640625 C25.29608762 11.64388422 27.83746134 5.98318125 31 0 C35.62 0 40.24 0 45 0 C39.15590799 16.05177272 39.15590799 16.05177272 35.94140625 22.14453125 C34.79114298 24.41164766 33.79102889 26.71613503 32.8125 29.0625 C32.48894531 29.83722656 32.16539062 30.61195312 31.83203125 31.41015625 C29.54644901 38.52443336 30.15107812 42.6306867 33.1875 49.1875 C33.84696318 50.69000004 34.50320548 52.19391781 35.15625 53.69921875 C35.4759375 54.43060059 35.795625 55.16198242 36.125 55.91552734 C37.69014532 59.64410178 38.86646589 63.48964589 40.08984375 67.33984375 C41.25032136 70.73162596 42.70460555 73.93605069 44.265625 77.16015625 C45 79 45 79 45 82 C32.54270412 81.33383445 32.54270412 81.33383445 29.35546875 78.578125 C28.26963782 76.41570426 27.64049716 74.33694911 27 72 C26.35966339 70.15878288 25.71849439 68.31778247 25.05883789 66.48339844 C24.39689232 64.62399546 23.77198524 62.75153531 23.1484375 60.87890625 C22.32396366 57.88487216 22.32396366 57.88487216 20 57 C19.89558594 57.66515625 19.79117187 58.3303125 19.68359375 59.015625 C18.82975645 62.7432347 17.48397859 66.21164322 16.0625 69.75 C15.79759766 70.43449219 15.53269531 71.11898437 15.25976562 71.82421875 C13.24307166 76.87846417 13.24307166 76.87846417 11 78 C8.94938967 77.75290429 6.90747329 77.43007496 4.875 77.0625 C3.77929688 76.86785156 2.68359375 76.67320312 1.5546875 76.47265625 C0.29011719 76.23869141 0.29011719 76.23869141 -1 76 C-0.43613992 71.58091053 0.68220467 68.12487275 2.625 64.125 C3.41970703 62.43503906 3.41970703 62.43503906 4.23046875 60.7109375 C5.13867524 58.79767663 6.05425932 56.88878592 6.98291016 54.98535156 C7.98748911 52.91569449 8.9636062 50.83424111 9.9375 48.75 C10.25605957 48.11336426 10.57461914 47.47672852 10.90283203 46.82080078 C13.85547483 40.40939495 13.19696296 35.41206867 10.89038086 28.83691406 C9.48738917 25.27940899 8.010985 21.76294498 6.5 18.25 C5.48565058 15.86104103 4.47507681 13.47047449 3.46875 11.078125 C3.01951172 10.03043945 2.57027344 8.98275391 2.10742188 7.90332031 C1 5 1 5 0 0 Z " fill="#EA2823" transform="translate(345,90)"/>
<path d="M0 0 C11.88 0 23.76 0 36 0 C36 4.29 36 8.58 36 13 C28.41 13 20.82 13 13 13 C13 18.61 13 24.22 13 30 C18.94 30 24.88 30 31 30 C31 33.96 31 37.92 31 42 C25.06 42 19.12 42 13 42 C13 48.27 13 54.54 13 61 C20.59 60.67 28.18 60.34 36 60 C36 64.29 36 68.58 36 73 C32.62566896 73.34170441 29.25080568 73.67345148 25.875 74 C24.94300781 74.09539062 24.01101562 74.19078125 23.05078125 74.2890625 C15.25908171 75.03112912 7.9273382 75 0 75 C0 50.25 0 25.5 0 0 Z " fill="#EC2626" transform="translate(138,90)"/>
<path d="M0 0 C11.88 0 23.76 0 36 0 C36 4.29 36 8.58 36 13 C28.41 13 20.82 13 13 13 C13 18.28 13 23.56 13 29 C18.61 29 24.22 29 30 29 C30 33.29 30 37.58 30 42 C24.39 42 18.78 42 13 42 C13 51.57 13 61.14 13 71 C8.71 71 4.42 71 0 71 C0 47.57 0 24.14 0 0 Z " fill="#EA2825" transform="translate(231,90)"/>
<path d="M0 0 C13.2 0 26.4 0 40 0 C40 4.29 40 8.58 40 13 C35.71 13 31.42 13 27 13 C27.00785522 15.62763306 27.00785522 15.62763306 27.01586914 18.30834961 C27.03196762 24.08388501 27.04347267 29.85941963 27.05181217 35.63497066 C27.05703989 39.13808885 27.0641355 42.64118285 27.07543945 46.14428711 C27.08834206 50.16780841 27.09322912 54.19130414 27.09765625 58.21484375 C27.10281754 59.47836166 27.10797882 60.74187958 27.11329651 62.04368591 C27.11340981 63.78537804 27.11340981 63.78537804 27.11352539 65.56225586 C27.115746 66.59039902 27.11796661 67.61854218 27.12025452 68.67784119 C27 71 27 71 26 72 C22.04 72 18.08 72 14 72 C14 52.53 14 33.06 14 13 C9.38 13 4.76 13 0 13 C0 8.71 0 4.42 0 0 Z " fill="#E82927" transform="translate(182,90)"/>
<path d="M0 0 C4.29 0 8.58 0 13 0 C13 19.8 13 39.6 13 60 C18.28 60 23.56 60 29 60 C30.98 60.33 32.96 60.66 35 61 C35 64.96 35 68.92 35 73 C31.60411004 73.02741077 28.20844941 73.04703374 24.8125 73.0625 C23.40194336 73.07506836 23.40194336 73.07506836 21.96289062 73.08789062 C14.5369654 73.11306325 7.46629246 72.57433019 0 72 C0 48.24 0 24.48 0 0 Z " fill="#EB272D" transform="translate(275,90)"/>
<path d="M0 0 C3.96 0 7.92 0 12 0 C12 24.75 12 49.5 12 75 C8.37 75 4.74 75 1 75 C0 74 0 74 -0.12025452 71.07041931 C-0.11803391 69.75803787 -0.11581329 68.44565643 -0.11352539 67.09350586 C-0.11367142 66.37159561 -0.11381744 65.64968536 -0.1139679 64.90589905 C-0.11326869 62.50885053 -0.10547595 60.11187877 -0.09765625 57.71484375 C-0.0957921 56.05717511 -0.09436818 54.39950593 -0.09336853 52.74183655 C-0.08954312 48.37045786 -0.07971265 43.99911219 -0.06866455 39.62774658 C-0.05845092 35.17045539 -0.05387101 30.71315889 -0.04882812 26.25585938 C-0.0380904 17.50389107 -0.02101371 8.75194964 0 0 Z " fill="#E32B21" transform="translate(321,90)"/>
<path d="M0 0 C11.88 0 23.76 0 36 0 C36 4.29 36 8.58 36 13 C28.41 13 20.82 13 13 13 C13 18.61 13 24.22 13 30 C18.94 30 24.88 30 31 30 C31 33.96 31 37.92 31 42 C25.06 42 19.12 42 13 42 C13 48.27 13 54.54 13 61 C20.59 60.67 28.18 60.34 36 60 C36 64.29 36 68.58 36 73 C32.62566896 73.34170441 29.25080568 73.67345148 25.875 74 C24.94300781 74.09539062 24.01101562 74.19078125 23.05078125 74.2890625 C15.25908171 75.03112912 7.9273382 75 0 75 C0 50.25 0 25.5 0 0 Z M4 2 C3.7165357 11.23982581 3.43737521 20.47975369 3.16588497 29.71993923 C3.03966023 34.01007633 2.9115164 38.30013853 2.77905273 42.59008789 C2.65139431 46.7266682 2.52869068 50.86336799 2.40948677 55.00020027 C2.36302348 56.58197424 2.31474572 58.16369595 2.26466179 59.74535942 C2.19505696 61.95309616 2.13178607 64.16092722 2.07006836 66.36889648 C2.03231796 67.62798325 1.99456757 68.88707001 1.95567322 70.18431091 C1.67183689 72.9037998 1.67183689 72.9037998 3 74 C9.85464073 74.61534353 16.7495459 73.8096922 23.5625 73.0625 C24.36034912 72.97572998 25.15819824 72.88895996 25.98022461 72.79956055 C30.11989071 72.38318499 30.11989071 72.38318499 34 71 C34 68.03 34 65.06 34 62 C30.37 62 26.74 62 23 62 C23 62.66 23 63.32 23 64 C19.37 64 15.74 64 12 64 C11.97312136 60.54161528 11.95322017 57.08343775 11.9375 53.625 C11.92912109 52.64015625 11.92074219 51.6553125 11.91210938 50.640625 C11.90888672 49.69960937 11.90566406 48.75859375 11.90234375 47.7890625 C11.89710693 46.91975098 11.89187012 46.05043945 11.88647461 45.15478516 C12 43 12 43 13 41 C15.71446979 40.68758545 18.33909361 40.48663408 21.0625 40.375 C21.82111328 40.33632812 22.57972656 40.29765625 23.36132812 40.2578125 C25.24047195 40.16326438 27.12020336 40.08053244 29 40 C29 37.36 29 34.72 29 32 C27.28490234 31.92652344 27.28490234 31.92652344 25.53515625 31.8515625 C24.04424527 31.77654811 22.55336108 31.70099972 21.0625 31.625 C20.30775391 31.5940625 19.55300781 31.563125 18.77539062 31.53125 C16.84492605 31.4273685 14.92057919 31.22104386 13 31 C11.72138385 28.44276771 11.88663391 26.63262898 11.90234375 23.7734375 C11.90556641 22.7421875 11.90878906 21.7109375 11.91210938 20.6484375 C11.92048828 19.56820312 11.92886719 18.48796875 11.9375 17.375 C11.94201172 16.28703125 11.94652344 15.1990625 11.95117188 14.078125 C11.96298224 11.38536211 11.97945222 8.69270812 12 6 C13.32 6 14.64 6 16 6 C16 7.65 16 9.3 16 11 C21.94 11 27.88 11 34 11 C34 8.03 34 5.06 34 2 C24.1 2 14.2 2 4 2 Z " fill="#DC3228" transform="translate(138,90)"/>
<path d="M0 0 C11.88 0 23.76 0 36 0 C36 4.29 36 8.58 36 13 C28.41 13 20.82 13 13 13 C13 18.28 13 23.56 13 29 C18.61 29 24.22 29 30 29 C30 33.29 30 37.58 30 42 C24.39 42 18.78 42 13 42 C13 51.57 13 61.14 13 71 C8.71 71 4.42 71 0 71 C0 47.57 0 24.14 0 0 Z M1 1 C1 23.44 1 45.88 1 69 C3.97 69 6.94 69 10 69 C10.02505615 68.02651611 10.0501123 67.05303223 10.07592773 66.05004883 C10.17037278 62.42508653 10.27050167 58.80029934 10.37231445 55.17553711 C10.41552339 53.60917264 10.45720791 52.04276533 10.49731445 50.47631836 C10.55535871 48.2197582 10.61895302 45.96341092 10.68359375 43.70703125 C10.70866249 42.66298882 10.70866249 42.66298882 10.73423767 41.59785461 C10.84408419 37.96127203 11.15721991 34.54207573 12 31 C10.35 30.67 8.7 30.34 7 30 C7.495 21.09 7.495 21.09 8 12 C16.58 11.67 25.16 11.34 34 11 C34 8.03 34 5.06 34 2 C33.505 1.505 33.505 1.505 33 1 C22.44 1 11.88 1 1 1 Z " fill="#C63434" transform="translate(231,90)"/>
<path d="M0 0 C4.29 0 8.58 0 13 0 C13 19.8 13 39.6 13 60 C18.28 60 23.56 60 29 60 C30.98 60.33 32.96 60.66 35 61 C35 64.96 35 68.92 35 73 C31.60411004 73.02741077 28.20844941 73.04703374 24.8125 73.0625 C23.40194336 73.07506836 23.40194336 73.07506836 21.96289062 73.08789062 C14.5369654 73.11306325 7.46629246 72.57433019 0 72 C0 48.24 0 24.48 0 0 Z M1 2 C1 24.44 1 46.88 1 70 C3.52475462 71.26237731 5.31200466 71.09856404 8.125 71.0625 C9.03507812 71.05347656 9.94515625 71.04445313 10.8828125 71.03515625 C11.58148438 71.02355469 12.28015625 71.01195312 13 71 C12.34 70.67 11.68 70.34 11 70 C10.67 47.89 10.34 25.78 10 3 C7.03 2.67 4.06 2.34 1 2 Z " fill="#E52B2A" transform="translate(275,90)"/>
<path d="M0 0 C9.24 0 18.48 0 28 0 C29.60725635 3.21451269 29.05748185 6.43612536 29 10 C24.71 10 20.42 10 16 10 C16 9.01 16 8.02 16 7 C14.02 7 12.04 7 10 7 C10 6.34 10 5.68 10 5 C9.01 5.33 8.02 5.66 7 6 C4.3125 5.5625 4.3125 5.5625 2 5 C2 5.66 2 6.32 2 7 C3.134375 7.12375 4.26875 7.2475 5.4375 7.375 C6.613125 7.58125 7.78875 7.7875 9 8 C9.33 8.66 9.66 9.32 10 10 C12.52733235 10.65555119 12.52733235 10.65555119 15 11 C14.67 12.65 14.34 14.3 14 16 C11.03 15.505 11.03 15.505 8 15 C8 32.49 8 49.98 8 68 C7.34 68 6.68 68 6 68 C6 49.19 6 30.38 6 11 C5.34 11 4.68 11 4 11 C4 10.34 4 9.68 4 9 C2.02 9 0.04 9 -2 9 C-2 8.34 -2 7.68 -2 7 C-2.66 7 -3.32 7 -4 7 C-4.66 7.66 -5.32 8.32 -6 9 C-6.04254356 7.00045254 -6.04080783 4.99958364 -6 3 C-5 2 -5 2 -2.4375 1.9375 C-1.2309375 1.9684375 -1.2309375 1.9684375 0 2 C0 1.34 0 0.68 0 0 Z " fill="#EA2821" transform="translate(192,91)"/>
<path d="M0 0 C13.2 0 26.4 0 40 0 C40 4.29 40 8.58 40 13 C35.71 13 31.42 13 27 13 C27.00785522 15.62763306 27.00785522 15.62763306 27.01586914 18.30834961 C27.03196762 24.08388501 27.04347267 29.85941963 27.05181217 35.63497066 C27.05703989 39.13808885 27.0641355 42.64118285 27.07543945 46.14428711 C27.08834206 50.16780841 27.09322912 54.19130414 27.09765625 58.21484375 C27.10281754 59.47836166 27.10797882 60.74187958 27.11329651 62.04368591 C27.11340981 63.78537804 27.11340981 63.78537804 27.11352539 65.56225586 C27.115746 66.59039902 27.11796661 67.61854218 27.12025452 68.67784119 C27 71 27 71 26 72 C22.04 72 18.08 72 14 72 C14 52.53 14 33.06 14 13 C9.38 13 4.76 13 0 13 C0 8.71 0 4.42 0 0 Z M10 1 C10 1.66 10 2.32 10 3 C8.7934375 2.9690625 8.7934375 2.9690625 7.5625 2.9375 C5.06645115 2.70366379 5.06645115 2.70366379 4 4 C3.95919217 5.99958364 3.95745644 8.00045254 4 10 C5.32 9.34 6.64 8.68 8 8 C8 8.66 8 9.32 8 10 C9.98 10 11.96 10 14 10 C14.33 29.8 14.66 49.6 15 70 C18.3 70 21.6 70 25 70 C25 50.86 25 31.72 25 12 C22.525 11.505 22.525 11.505 20 11 C19.505 10.484375 19.01 9.96875 18.5 9.4375 C17.02124974 7.71343023 17.02124974 7.71343023 14.3125 7.8125 C13.549375 7.874375 12.78625 7.93625 12 8 C12 7.34 12 6.68 12 6 C12.94875 6.185625 13.8975 6.37125 14.875 6.5625 C17.89868793 7.28686632 17.89868793 7.28686632 20 6 C20 6.66 20 7.32 20 8 C21.98 8 23.96 8 26 8 C26 8.99 26 9.98 26 11 C30.29 11 34.58 11 39 11 C39.020625 9.72125 39.04125 8.4425 39.0625 7.125 C39.07410156 6.40570313 39.08570313 5.68640625 39.09765625 4.9453125 C39.12649242 2.91814596 39.12649242 2.91814596 38 1 C28.76 1 19.52 1 10 1 Z " fill="#C63739" transform="translate(182,90)"/>
<path d="M0 0 C11.88 0.33 23.76 0.66 36 1 C36 1.66 36 2.32 36 3 C24.45 3 12.9 3 1 3 C1 26.43 1 49.86 1 74 C5.29 74 9.58 74 14 74 C14 64.43 14 54.86 14 45 C19.61 45 25.22 45 31 45 C31 40.71 31 36.42 31 32 C31.99 32 32.98 32 34 32 C34.02685938 34.14576637 34.04633088 36.29162645 34.0625 38.4375 C34.07410156 39.63246094 34.08570313 40.82742187 34.09765625 42.05859375 C34 45 34 45 33 46 C29.57529995 46.27037106 26.15760696 46.44629658 22.7265625 46.60546875 C19.05812952 46.46158649 19.05812952 46.46158649 16 48 C15.9004557 49.73338564 15.86919654 51.47079083 15.8671875 53.20703125 C15.86589844 54.26857422 15.86460937 55.33011719 15.86328125 56.42382812 C15.86908203 58.1012207 15.86908203 58.1012207 15.875 59.8125 C15.87113281 60.91916016 15.86726563 62.02582031 15.86328125 63.16601562 C15.86521484 64.76413086 15.86521484 64.76413086 15.8671875 66.39453125 C15.86831543 67.37268799 15.86944336 68.35084473 15.87060547 69.35864258 C15.98687298 71.73203544 16.42634076 73.711563 17 76 C15.00687056 77.99312944 11.35263282 77.54213207 8.625 77.75 C7.93921875 77.81832031 7.2534375 77.88664062 6.546875 77.95703125 C1.51552849 78.33878711 1.51552849 78.33878711 -0.69792175 76.88418579 C-2.58747114 74.14989382 -2.37414139 72.04870994 -2.37231445 68.74365234 C-2.37854324 67.45155853 -2.38477203 66.15946472 -2.39118958 64.82821655 C-2.38249599 63.41411966 -2.3731774 62.00002649 -2.36328125 60.5859375 C-2.36276229 59.13204957 -2.36328137 57.67816092 -2.36479187 56.22427368 C-2.3647021 53.17268429 -2.35427157 50.12135882 -2.33618164 47.06982422 C-2.31361513 43.17968209 -2.31292796 39.28992961 -2.31969929 35.39974022 C-2.32306203 32.39348969 -2.31636411 29.38732604 -2.30657005 26.38109207 C-2.30274823 24.94833457 -2.30155717 23.51556734 -2.3031559 22.08280563 C-2.30353179 20.06608637 -2.28932089 18.04938084 -2.2746582 16.03271484 C-2.27005081 14.88926605 -2.26544342 13.74581726 -2.26069641 12.56771851 C-2 9 -2 9 0 0 Z " fill="#1C0002" transform="translate(230,87)"/>
<path d="M0 0 C2.5654594 2.5654594 2.54046087 4.47686668 3 8 C3.66 8 4.32 8 5 8 C6.97484019 16.91126235 6.9913052 24.94429307 6 34 C5.67 33.34 5.34 32.68 5 32 C4.01 31.67 3.02 31.34 2 31 C1.71125 29.865625 1.4225 28.73125 1.125 27.5625 C0.39504613 23.85204749 0.39504613 23.85204749 -2.5 22.5625 C-4.89811992 21.92682927 -4.89811992 21.92682927 -7 22 C-7.12375 23.11375 -7.2475 24.2275 -7.375 25.375 C-8 29 -8 29 -10 31 C-10.69258229 32.99117408 -11.35747635 34.9921136 -12 37 C-12.63815344 38.34721283 -13.29325371 39.68747118 -14 41 C-16.64 41 -19.28 41 -22 41 C-22 39.35 -22 37.7 -22 36 C-21.34 36 -20.68 36 -20 36 C-19.896875 35.113125 -19.79375 34.22625 -19.6875 33.3125 C-18.97773167 29.89270713 -18.07326333 27.79093141 -16 25 C-15.01 24.67 -14.02 24.34 -13 24 C-12.26676204 21.98491642 -12.26676204 21.98491642 -12 20 C-11.01 20 -10.02 20 -9 20 C-8.9175 19.401875 -8.835 18.80375 -8.75 18.1875 C-8 16 -8 16 -5.98828125 14.7109375 C-3.7441383 13.1383723 -3.7441383 13.1383723 -3.49609375 10.37109375 C-3.47675781 9.40300781 -3.45742188 8.43492187 -3.4375 7.4375 C-3.37109375 4.49609375 -3.37109375 4.49609375 -3 2 C-2.01 1.34 -1.02 0.68 0 0 Z " fill="#EF2528" transform="translate(369,124)"/>
<path d="M0 0 C0 0.66 0 1.32 0 2 C-11.88 2 -23.76 2 -36 2 C-36 26.75 -36 51.5 -36 77 C-23.13 76.01 -23.13 76.01 -10 75 C-6.7 75 -3.4 75 0 75 C-7.83463632 80.22309088 -21.77007349 78.1262452 -31 78 C-31.495 78.99 -31.495 78.99 -32 80 C-33.98 79.67 -35.96 79.34 -38 79 C-38.33 53.26 -38.66 27.52 -39 1 C-35.49125928 -0.16958024 -32.5480913 -0.22904825 -28.84765625 -0.3515625 C-28.15111435 -0.37471527 -27.45457245 -0.39786804 -26.73692322 -0.42172241 C-25.26519806 -0.46928746 -23.79339628 -0.51453043 -22.3215332 -0.55761719 C-20.07407024 -0.62465488 -17.82715695 -0.70248286 -15.58007812 -0.78125 C-14.1484579 -0.82617559 -12.71681761 -0.87046741 -11.28515625 -0.9140625 C-9.33428101 -0.9752124 -9.33428101 -0.9752124 -7.34399414 -1.03759766 C-4.62654273 -1.00704443 -2.5571441 -0.83661898 0 0 Z " fill="#2D0102" transform="translate(174,88)"/>
<path d="M0 0 C0.33 0 0.66 0 1 0 C1 11.22 1 22.44 1 34 C1.99 34.33 2.98 34.66 4 35 C4.12375 36.11375 4.2475 37.2275 4.375 38.375 C4.6465813 42.03103677 4.6465813 42.03103677 7 44 C7.31884766 46.52197266 7.31884766 46.52197266 7.4140625 49.6640625 C7.45273438 50.78554687 7.49140625 51.90703125 7.53125 53.0625 C7.5621875 54.238125 7.593125 55.41375 7.625 56.625 C7.66367188 57.80835938 7.70234375 58.99171875 7.7421875 60.2109375 C7.83668845 63.14046691 7.92224558 66.06998597 8 69 C6.02 68.67 4.04 68.34 2 68 C2 68.99 2 69.98 2 71 C0.68 71 -0.64 71 -2 71 C-2 64.07 -2 57.14 -2 50 C-1.01 50 -0.02 50 1 50 C0.83701416 48.88560547 0.67402832 47.77121094 0.50610352 46.62304688 C-0.10035835 41.74888795 -0.12651453 36.93710187 -0.09765625 32.03125 C-0.0962413 31.11033569 -0.09482635 30.18942139 -0.09336853 29.24060059 C-0.08781407 26.32703266 -0.07527025 23.41354432 -0.0625 20.5 C-0.05747911 18.51302195 -0.05291723 16.52604269 -0.04882812 14.5390625 C-0.0378596 9.69267812 -0.02062683 4.84635251 0 0 Z " fill="#F12625" transform="translate(116,94)"/>
<path d="M0 0 C0.66 0 1.32 0 2 0 C2 1.32 2 2.64 2 4 C1.34 4 0.68 4 0 4 C0.33 25.78 0.66 47.56 1 70 C-1.31 70 -3.62 70 -6 70 C-6 69.34 -6 68.68 -6 68 C-5.34 68 -4.68 68 -4 68 C-4 46.88 -4 25.76 -4 4 C-3.01 4 -2.02 4 -1 4 C-0.67 2.68 -0.34 1.36 0 0 Z " fill="#F2222A" transform="translate(330,92)"/>
<path d="M0 0 C4.29 0 8.58 0 13 0 C13 25.41 13 50.82 13 77 C9.04091662 77.65984723 6.00295662 78.12125692 2.125 78.0625 C0.95324219 78.04896484 0.95324219 78.04896484 -0.2421875 78.03515625 C-0.82226562 78.02355469 -1.40234375 78.01195312 -2 78 C-2.53190541 76.56656 -3.05015258 75.12804633 -3.5625 73.6875 C-3.99755859 72.48673828 -3.99755859 72.48673828 -4.44140625 71.26171875 C-5 69 -5 69 -4 66 C-3.49384702 67.26839526 -2.99530901 68.53983102 -2.5 69.8125 C-2.2215625 70.52019531 -1.943125 71.22789062 -1.65625 71.95703125 C-1 74 -1 74 -1 77 C0.5778125 76.505 0.5778125 76.505 2.1875 76 C6 75 6 75 11 75 C11 50.91 11 26.82 11 2 C6.545 2.495 6.545 2.495 2 3 C2.01047363 4.23153809 2.02094727 5.46307617 2.03173828 6.73193359 C2.06787089 11.29033515 2.09087585 15.84872398 2.10986328 20.40722656 C2.11993627 22.38218309 2.13359521 24.35712466 2.15087891 26.33203125 C2.17507039 29.16670418 2.18646991 32.00118038 2.1953125 34.8359375 C2.20563507 35.72243988 2.21595764 36.60894226 2.22659302 37.52230835 C2.2269907 39.68285952 2.12272534 41.84293718 2 44 C1.34 44.66 0.68 45.32 0 46 C0 30.82 0 15.64 0 0 Z " fill="#BD3432" transform="translate(113,90)"/>
<path d="M0 0 C4.29 0 8.58 0 13 0 C13 19.47 13 38.94 13 59 C12.67 59 12.34 59 12 59 C12 40.19 12 21.38 12 2 C8.37 2 4.74 2 1 2 C1 24.44 1 46.88 1 70 C16.84 70.495 16.84 70.495 33 71 C33 68.69 33 66.38 33 64 C31.45049732 62.45049732 29.90009406 62.78344807 27.74609375 62.68359375 C26.89208984 62.64169922 26.03808594 62.59980469 25.15820312 62.55664062 C24.26037109 62.51732422 23.36253906 62.47800781 22.4375 62.4375 C21.53580078 62.39431641 20.63410156 62.35113281 19.70507812 62.30664062 C17.47021515 62.20021858 15.23523692 62.09820012 13 62 C13 61.34 13 60.68 13 60 C15.54173977 59.97283176 18.08318415 59.95308031 20.625 59.9375 C21.33785156 59.92912109 22.05070312 59.92074219 22.78515625 59.91210938 C26.97344438 59.89289704 30.8728462 60.1732673 35 61 C35 64.96 35 68.92 35 73 C31.60411004 73.02741077 28.20844941 73.04703374 24.8125 73.0625 C23.40194336 73.07506836 23.40194336 73.07506836 21.96289062 73.08789062 C14.5369654 73.11306325 7.46629246 72.57433019 0 72 C0 48.24 0 24.48 0 0 Z " fill="#BA3836" transform="translate(275,90)"/>
<path d="M0 0 C2.64 0.33 5.28 0.66 8 1 C8.33 23.11 8.66 45.22 9 68 C7.68 67.67 6.36 67.34 5 67 C4.43054651 52.37746417 3.90167644 37.76036016 3.875 23.125 C3.86823242 21.61401733 3.86823242 21.61401733 3.86132812 20.07250977 C3.87242833 14.62184732 4.19688792 9.39232398 5 4 C4.360625 3.71125 3.72125 3.4225 3.0625 3.125 C1 2 1 2 0 0 Z " fill="#EC271E" transform="translate(277,92)"/>
<path d="M0 0 C0.33 0 0.66 0 1 0 C1 5.61 1 11.22 1 17 C6.94 17 12.88 17 19 17 C19 20.96 19 24.92 19 29 C13.06 29 7.12 29 1 29 C1 35.27 1 41.54 1 48 C8.59 47.67 16.18 47.34 24 47 C24 51.29 24 55.58 24 60 C16.62483754 60.86766617 9.42329747 61.11479326 2 61 C2 60.67 2 60.34 2 60 C8.6 59.34 15.2 58.68 22 58 C22 55.03 22 52.06 22 49 C18.37 49 14.74 49 11 49 C11 49.66 11 50.32 11 51 C7.37 51 3.74 51 0 51 C-1.76078179 47.47843642 -1.184646 43.44108049 -1.1875 39.5625 C-1.19974609 38.69044922 -1.21199219 37.81839844 -1.22460938 36.91992188 C-1.22654297 36.08138672 -1.22847656 35.24285156 -1.23046875 34.37890625 C-1.23457764 33.6113501 -1.23868652 32.84379395 -1.24291992 32.05297852 C-1 30 -1 30 1 27 C3.7885289 26.77892213 6.34653181 26.71892465 9.125 26.8125 C10.25615234 26.83280273 10.25615234 26.83280273 11.41015625 26.85351562 C13.27374127 26.88890015 15.13695978 26.94270833 17 27 C17 24.36 17 21.72 17 19 C15.85660156 19.01160156 14.71320313 19.02320312 13.53515625 19.03515625 C12.04427246 19.04453288 10.55338691 19.05363321 9.0625 19.0625 C8.30775391 19.07087891 7.55300781 19.07925781 6.77539062 19.08789062 C4.85005687 19.09652441 2.92464419 19.05224333 1 19 C0 18 0 18 -0.11352539 16.23413086 C-0.10828857 15.48526611 -0.10305176 14.73640137 -0.09765625 13.96484375 C-0.09443359 13.15595703 -0.09121094 12.34707031 -0.08789062 11.51367188 C-0.07951172 10.66353516 -0.07113281 9.81339844 -0.0625 8.9375 C-0.05798828 8.08349609 -0.05347656 7.22949219 -0.04882812 6.34960938 C-0.03700373 4.23304337 -0.01906769 2.11651315 0 0 Z " fill="#C03735" transform="translate(150,103)"/>
<path d="M0 0 C5.61 0 11.22 0 17 0 C20 8.625 20 8.625 20 12 C20.66 12 21.32 12 22 12 C22.33 15.3 22.66 18.6 23 22 C20.33206665 19.33206665 19.63659192 16.67368839 18.375 13.125 C17.92898437 11.89007813 17.48296875 10.65515625 17.0234375 9.3828125 C16 6 16 6 16 2 C11.71 2 7.42 2 3 2 C3 29.06 3 56.12 3 84 C2.67 84 2.34 84 2 84 C1.01 42.42 1.01 42.42 0 0 Z " fill="#440806" transform="translate(81,88)"/>
<path d="M0 0 C3.96 0 7.92 0 12 0 C12 24.75 12 49.5 12 75 C8.37 75 4.74 75 1 75 C0 74 0 74 -0.12025452 71.07041931 C-0.11803391 69.75803787 -0.11581329 68.44565643 -0.11352539 67.09350586 C-0.11367142 66.37159561 -0.11381744 65.64968536 -0.1139679 64.90589905 C-0.11326869 62.50885053 -0.10547595 60.11187877 -0.09765625 57.71484375 C-0.0957921 56.05717511 -0.09436818 54.39950593 -0.09336853 52.74183655 C-0.08954312 48.37045786 -0.07971265 43.99911219 -0.06866455 39.62774658 C-0.05845092 35.17045539 -0.05387101 30.71315889 -0.04882812 26.25585938 C-0.0380904 17.50389107 -0.02101371 8.75194964 0 0 Z M2 2 C1.05893393 5.76426426 0.87324649 8.64419178 0.87060547 12.49682617 C0.86745331 13.81466599 0.86430115 15.1325058 0.86105347 16.49028015 C0.86284285 17.92451003 0.8648937 19.35873959 0.8671875 20.79296875 C0.86651383 22.26459265 0.86554327 23.73621644 0.86428833 25.20783997 C0.86281573 28.28692691 0.86495279 31.3659848 0.86962891 34.44506836 C0.875341 38.39977662 0.8720351 42.35441723 0.86605644 46.30912304 C0.86245184 49.34504206 0.86358868 52.3809449 0.86618423 55.4168644 C0.86685301 56.87577637 0.86602681 58.3346898 0.86370468 59.79360008 C0.86117823 61.82618559 0.86570857 63.85877624 0.87060547 65.89135742 C0.87140106 67.0495549 0.87219666 68.20775238 0.87301636 69.40104675 C0.70484763 71.92876647 0.70484763 71.92876647 2 73 C4.97 73 7.94 73 11 73 C11 49.57 11 26.14 11 2 C8.03 2 5.06 2 2 2 Z " fill="#D03C39" transform="translate(321,90)"/>
<path d="M0 0 C1.17433594 0.09796875 2.34867187 0.1959375 3.55859375 0.296875 C4.73550781 0.38453125 5.91242188 0.4721875 7.125 0.5625 C8.07246094 0.72234375 9.01992188 0.8821875 9.99609375 1.046875 C10.32609375 1.706875 10.65609375 2.366875 10.99609375 3.046875 C6.70609375 3.046875 2.41609375 3.046875 -2.00390625 3.046875 C-2.00390625 26.806875 -2.00390625 50.566875 -2.00390625 75.046875 C-2.99390625 75.046875 -3.98390625 75.046875 -5.00390625 75.046875 C-4.67390625 52.276875 -4.34390625 29.506875 -4.00390625 6.046875 C-4.99390625 6.046875 -5.98390625 6.046875 -7.00390625 6.046875 C-4.21270897 0.06573798 -4.21270897 0.06573798 0 0 Z " fill="#350001" transform="translate(277.00390625,86.953125)"/>
<path d="M0 0 C2 1 2 1 3.03515625 3.6875 C3.37417969 4.780625 3.71320313 5.87375 4.0625 7 C4.99738786 10.79446043 4.99738786 10.79446043 7 14 C7.08775605 16.14558827 7.10695219 18.29404421 7.09765625 20.44140625 C7.09443359 21.74658203 7.09121094 23.05175781 7.08789062 24.39648438 C7.07953401 25.7851569 7.07106905 27.17382877 7.0625 28.5625 C7.05748666 29.95507656 7.05292347 31.34765481 7.04882812 32.74023438 C7.03699434 36.1601987 7.0205088 39.58007844 7 43 C8.32 43 9.64 43 11 43 C11 42.01 11 41.02 11 40 C12.98 40.33 14.96 40.66 17 41 C17 41.66 17 42.32 17 43 C12.82262526 44.59138085 9.46839215 45.21278058 5 45 C4.81824219 44.31292969 4.63648437 43.62585938 4.44921875 42.91796875 C4.19785156 42.01691406 3.94648437 41.11585938 3.6875 40.1875 C3.44386719 39.29417969 3.20023437 38.40085938 2.94921875 37.48046875 C1.96903997 34.91909622 0.94304543 33.85472518 -1 32 C-0.6875 29.8125 -0.6875 29.8125 0 28 C0.33 29.32 0.66 30.64 1 32 C1.66 31.67 2.32 31.34 3 31 C2.88936784 27.6243699 2.75891985 24.24978011 2.625 20.875 C2.5940625 19.92367187 2.563125 18.97234375 2.53125 17.9921875 C2.32041652 12.9321841 1.78850242 8.78388046 0 4 C0 2.68 0 1.36 0 0 Z " fill="#E02C2B" transform="translate(107,122)"/>
<path d="M0 0 C1.43655854 -0.08131463 2.8744483 -0.13933559 4.3125 -0.1875 C5.51326172 -0.23970703 5.51326172 -0.23970703 6.73828125 -0.29296875 C9.52093676 0.06747886 10.16914138 0.96108926 12 3 C14.60611077 3.72197162 14.60611077 3.72197162 17 4 C16.67 5.65 16.34 7.3 16 9 C13.03 8.505 13.03 8.505 10 8 C10 25.49 10 42.98 10 61 C9.34 61 8.68 61 8 61 C8 42.19 8 23.38 8 4 C7.34 4 6.68 4 6 4 C6 3.34 6 2.68 6 2 C4.02 2 2.04 2 0 2 C0 1.34 0 0.68 0 0 Z " fill="#F82124" transform="translate(190,98)"/>
<path d="M0 0 C4.29 0 8.58 0 13 0 C13.350625 1.27875 13.70125 2.5575 14.0625 3.875 C15.13262115 7.50819181 16.380289 11.02029322 17.79296875 14.53125 C18.11322021 15.32805176 18.43347168 16.12485352 18.76342773 16.94580078 C19.41589877 18.55235529 20.07803778 20.15502051 20.75024414 21.75341797 C21.05438232 22.50252441 21.35852051 23.25163086 21.671875 24.0234375 C21.9512793 24.69294434 22.23068359 25.36245117 22.51855469 26.05224609 C23.09100727 28.36818256 22.74509464 29.76159593 22 32 C21.7733667 31.42556152 21.5467334 30.85112305 21.31323242 30.25927734 C20.27410659 27.63007443 19.23083916 25.00253364 18.1875 22.375 C17.83107422 21.47136719 17.47464844 20.56773438 17.10742188 19.63671875 C15.60688577 15.86472891 14.10837413 12.20905874 12.23828125 8.6015625 C11 6 11 6 11 2 C8.03 2 5.06 2 2 2 C2 27.74 2 53.48 2 80 C3.98 80 5.96 80 8 80 C4.91190305 81.76462683 3.76687864 82 0 82 C0 54.94 0 27.88 0 0 Z " fill="#BE3F3E" transform="translate(84,90)"/>
<path d="M0 0 C0.66 0 1.32 0 2 0 C2.33 10.56 2.66 21.12 3 32 C3.33 32 3.66 32 4 32 C3.67 42.89 3.34 53.78 3 65 C2.01 64.67 1.02 64.34 0 64 C0 42.88 0 21.76 0 0 Z " fill="#E12B23" transform="translate(276,96)"/>
<path d="M0 0 C4.62 0 9.24 0 14 0 C13.07065334 2.58653115 12.13193804 5.16898256 11.1875 7.75 C10.92646484 8.47960937 10.66542969 9.20921875 10.39648438 9.9609375 C9.00481438 13.74078193 7.6945995 16.92508165 5 20 C5.90723613 15.31261335 6.9547267 10.65806256 8 6 C7.34 6 6.68 6 6 6 C5.566875 7.2065625 5.566875 7.2065625 5.125 8.4375 C4 11 4 11 2 12 C0.68 11.67 -0.64 11.34 -2 11 C-3.65 14.3 -5.3 17.6 -7 21 C-8.29843147 17.10470558 -7.37267111 15.89446418 -5.75 12.1875 C-5.31171875 11.17042969 -4.8734375 10.15335938 -4.421875 9.10546875 C-3.01722547 6.03762157 -1.50895504 3.01791009 0 0 Z " fill="#E62A29" transform="translate(376,90)"/>
<path d="M0 0 C11.88 0 23.76 0 36 0 C36 4.29 36 8.58 36 13 C28.41 13 20.82 13 13 13 C13 12.67 13 12.34 13 12 C20.26 12 27.52 12 35 12 C35 8.37 35 4.74 35 1 C24.11 1 13.22 1 2 1 C1.97093533 13.59472431 1.97093533 13.59472431 1.95117188 26.18945312 C1.94518384 31.3230085 1.93808462 36.45654612 1.92456055 41.59008789 C1.91373025 45.726794 1.90772286 49.86348108 1.90512276 54.00020027 C1.90326876 55.58192304 1.89964864 57.16364471 1.89426994 58.74535942 C1.8870576 60.95322838 1.88600914 63.16101773 1.88647461 65.36889648 C1.884254 66.62798325 1.88203339 67.88707001 1.87974548 69.18431091 C1.67792274 71.90335295 1.67792274 71.90335295 3 73 C4.84891946 73.23363881 6.70488031 73.41303635 8.5625 73.5625 C10.08037109 73.68818359 10.08037109 73.68818359 11.62890625 73.81640625 C12.41136719 73.87699219 13.19382813 73.93757813 14 74 C14 74.33 14 74.66 14 75 C9.38 75 4.76 75 0 75 C0 50.25 0 25.5 0 0 Z " fill="#A9332F" transform="translate(138,90)"/>
<path d="M0 0 C1.40256952 4.39853435 -0.07656853 7.01296796 -2 11 C-2.71406978 12.55988676 -3.42227982 14.12246751 -4.125 15.6875 C-4.62386719 16.77611328 -4.62386719 16.77611328 -5.1328125 17.88671875 C-5.96368435 19.91150104 -6.5279419 21.86610471 -7 24 C-7.66 24 -8.32 24 -9 24 C-9 25.65 -9 27.3 -9 29 C-6.36 29 -3.72 29 -1 29 C-0.70996094 27.95199219 -0.70996094 27.95199219 -0.4140625 26.8828125 C-0.15367187 25.97273438 0.10671875 25.06265625 0.375 24.125 C0.75785156 22.76761719 0.75785156 22.76761719 1.1484375 21.3828125 C2 19 2 19 4 17 C4.67651207 14.80295489 4.67651207 14.80295489 5.125 12.375 C5.29257812 11.55773437 5.46015625 10.74046875 5.6328125 9.8984375 C5.75398438 9.27195313 5.87515625 8.64546875 6 8 C6.99 8.66 7.98 9.32 9 10 C8.3739457 14.9697891 6.93436797 19.21138567 5.0625 23.8125 C4.79759766 24.49248047 4.53269531 25.17246094 4.25976562 25.87304688 C2.25000975 30.87499513 2.25000975 30.87499513 0 32 C-2.05061033 31.75290429 -4.09252671 31.43007496 -6.125 31.0625 C-7.22070312 30.86785156 -8.31640625 30.67320312 -9.4453125 30.47265625 C-10.28835938 30.31667969 -11.13140625 30.16070312 -12 30 C-11.43113782 25.46941903 -10.22900034 21.91841566 -8.25 17.8125 C-7.71632813 16.69101563 -7.18265625 15.56953125 -6.6328125 14.4140625 C-6.09398437 13.28742188 -5.55515625 12.16078125 -5 11 C-4.0364705 8.89820766 -3.07766067 6.79424103 -2.125 4.6875 C-1.71507812 3.78386719 -1.30515625 2.88023437 -0.8828125 1.94921875 C-0.59148437 1.30597656 -0.30015625 0.66273438 0 0 Z " fill="#C53438" transform="translate(356,136)"/>
<path d="M0 0 C11.88 0.33 23.76 0.66 36 1 C36 1.66 36 2.32 36 3 C24.45 3 12.9 3 1 3 C1 26.43 1 49.86 1 74 C0.67 74 0.34 74 0 74 C0 49.58 0 25.16 0 0 Z " fill="#560A0A" transform="translate(230,87)"/>
<path d="M0 0 C0.33 0 0.66 0 1 0 C1 18.81 1 37.62 1 57 C6.61 57.33 12.22 57.66 18 58 C19.32 58.33 20.64 58.66 22 59 C22 57.35 22 55.7 22 54 C23.32 54 24.64 54 26 54 C25.67 54.69738281 25.34 55.39476562 25 56.11328125 C23.8754268 59.3596078 23.86408392 61.76836115 24 65.1875 C24.125 68.35546875 24.125 68.35546875 24 71 C23.01 71.99 23.01 71.99 22 73 C22 69.04 22 65.08 22 61 C14.74 60.67 7.48 60.34 0 60 C0 40.2 0 20.4 0 0 Z " fill="#2E0104" transform="translate(288,90)"/>
<path d="M0 0 C0.66 0.33 1.32 0.66 2 1 C1.69964844 1.49628906 1.39929688 1.99257812 1.08984375 2.50390625 C0.70957031 3.18324219 0.32929688 3.86257812 -0.0625 4.5625 C-0.44535156 5.22378906 -0.82820313 5.88507813 -1.22265625 6.56640625 C-3.09977482 12.44301362 -0.35085338 18.22514453 1.9375 23.625 C2.20240234 24.26695312 2.46730469 24.90890625 2.74023438 25.5703125 C3.87879884 28.32772916 5.03327155 31.07713438 6.21484375 33.81640625 C7.11959106 36.33259404 6.91575781 37.52745392 6 40 C4 37 4 37 4 33 C0.68539295 34.70892499 0.68539295 34.70892499 0.3125 38.125 C0.209375 39.07375 0.10625 40.0225 0 41 C-0.66 41 -1.32 41 -2 41 C-1.98839844 39.87722656 -1.97679687 38.75445312 -1.96484375 37.59765625 C-1.91048749 29.98693084 -1.90182265 22.5499693 -3 15 C-3.66 15 -4.32 15 -5 15 C-5.25 7.375 -5.25 7.375 -3 4 C-2.34 4 -1.68 4 -1 4 C-0.67 2.68 -0.34 1.36 0 0 Z " fill="#E8292C" transform="translate(377,117)"/>
<path d="M0 0 C0.66 0 1.32 0 2 0 C2 14.85 2 29.7 2 45 C-0.25931094 42.74068906 -0.5582542 41.5363726 -1.375 38.5 C-2.88989439 33.17067924 -4.85993466 28.10573964 -7 23 C-6.34 22.67 -5.68 22.34 -5 22 C-4.34 24.31 -3.68 26.62 -3 29 C-2.34 29 -1.68 29 -1 29 C-0.67 19.43 -0.34 9.86 0 0 Z " fill="#380202" transform="translate(111,90)"/>
<path d="M0 0 C-0.74113695 5.74381132 -3.43594157 10.87188315 -6 16 C-8.64 16 -11.28 16 -14 16 C-14 14.35 -14 12.7 -14 11 C-13.34 11 -12.68 11 -12 11 C-11.87625 10.071875 -11.7525 9.14375 -11.625 8.1875 C-11 5 -11 5 -9 2 C-9 2.99 -9 3.98 -9 5 C-8.2575 4.175 -7.515 3.35 -6.75 2.5 C-4 0 -4 0 0 0 Z " fill="#EA281D" transform="translate(361,149)"/>
<path d="M0 0 C2.64 0 5.28 0 8 0 C8 0.66 8 1.32 8 2 C9.98 2 11.96 2 14 2 C14 2.99 14 3.98 14 5 C20.93 5.495 20.93 5.495 28 6 C28 6.33 28 6.66 28 7 C23.71 7 19.42 7 15 7 C15 26.14 15 45.28 15 65 C14.67 65 14.34 65 14 65 C13.67 45.53 13.34 26.06 13 6 C11.35 6 9.7 6 8 6 C7.67 5.01 7.34 4.02 7 3 C4.69 2.67 2.38 2.34 0 2 C0 1.34 0 0.68 0 0 Z " fill="#B22A27" transform="translate(194,96)"/>
<path d="M0 0 C5.94 0 11.88 0 18 0 C17.67 1.32 17.34 2.64 17 4 C16.07316406 3.98839844 15.14632812 3.97679687 14.19140625 3.96484375 C12.39509766 3.95130859 12.39509766 3.95130859 10.5625 3.9375 C8.77005859 3.92009766 8.77005859 3.92009766 6.94140625 3.90234375 C4.11126659 3.66098208 4.11126659 3.66098208 3 5 C2.76572222 7.01594582 2.58663876 9.038474 2.4375 11.0625 C2.293125 13.021875 2.14875 14.98125 2 17 C8.93 17 15.86 17 23 17 C23 17.33 23 17.66 23 18 C17.98418549 19.01758537 13.21249767 19.11810913 8.125 19.0625 C4.103125 19.0315625 4.103125 19.0315625 0 19 C0 12.73 0 6.46 0 0 Z " fill="#380506" transform="translate(151,132)"/>
<path d="M0 0 C0.33 0 0.66 0 1 0 C1 4.29 1 8.58 1 13 C-6.59 13 -14.18 13 -22 13 C-22 18.28 -22 23.56 -22 29 C-22.33 29 -22.66 29 -23 29 C-23 23.72 -23 18.44 -23 13 C-23.66 13 -24.32 13 -25 13 C-25.02699725 15.27076842 -25.04639453 17.54162821 -25.0625 19.8125 C-25.07410156 21.07707031 -25.08570313 22.34164062 -25.09765625 23.64453125 C-25.16159116 26.99605237 -25.16159116 26.99605237 -24 30 C-25.32 30 -26.64 30 -28 30 C-28 22.41 -28 14.82 -28 7 C-27.67 7 -27.34 7 -27 7 C-27 8.65 -27 10.3 -27 12 C-18.09 12 -9.18 12 0 12 C0 8.04 0 4.08 0 0 Z " fill="#BB2520" transform="translate(266,90)"/>
<path d="M0 0 C0.99 0 1.98 0 3 0 C3.02685938 2.14576637 3.04633088 4.29162645 3.0625 6.4375 C3.07410156 7.63246094 3.08570313 8.82742187 3.09765625 10.05859375 C3 13 3 13 2 14 C-1.42470005 14.27037106 -4.84239304 14.44629658 -8.2734375 14.60546875 C-11.94187048 14.46158649 -11.94187048 14.46158649 -15 16 C-15.1584265 18.0708472 -15.25124422 20.14678029 -15.31640625 22.22265625 C-15.35830078 23.48271484 -15.40019531 24.74277344 -15.44335938 26.04101562 C-15.48317596 27.38150736 -15.52288814 28.7220022 -15.5625 30.0625 C-15.60568042 31.40691523 -15.64929456 32.7513166 -15.69335938 34.09570312 C-15.79985283 37.39700013 -15.9004675 40.69848579 -16 44 C-20.29 44 -24.58 44 -29 44 C-29.33 43.34 -29.66 42.68 -30 42 C-25.71 42 -21.42 42 -17 42 C-17 32.43 -17 22.86 -17 13 C-11.39 13 -5.78 13 0 13 C0 8.71 0 4.42 0 0 Z " fill="#2A0102" transform="translate(261,119)"/>
<path d="M0 0 C0.33 0 0.66 0 1 0 C0.98839844 0.96421875 0.97679687 1.9284375 0.96484375 2.921875 C0.95582031 4.18515625 0.94679688 5.4484375 0.9375 6.75 C0.92589844 8.00296875 0.91429687 9.2559375 0.90234375 10.546875 C0.97978973 13.28536501 1.17219185 15.41880293 2 18 C2.66 18 3.32 18 4 18 C5.9765007 20.96475105 6.2859609 21.88446031 6.5625 25.25 C6.92391973 29.19334746 7.41670104 33.08356412 8 37 C8.66 37 9.32 37 10 37 C11.65 41.95 13.3 46.9 15 52 C14.34 52 13.68 52 13 52 C9.83261822 44.64089169 6.96625211 37.23281759 4.33984375 29.6640625 C3.39094176 27.06910603 2.40659927 24.55633366 1.31640625 22.0234375 C1.03531006 21.36190674 0.75421387 20.70037598 0.46459961 20.01879883 C-0.33119234 18.1645735 -1.14554097 16.31834445 -1.9609375 14.47265625 C-3.37634214 9.74222495 -2.89938909 6.06330438 -0.9375 1.5625 C-0.628125 1.046875 -0.31875 0.53125 0 0 Z " fill="#350607" transform="translate(377,120)"/>
<path d="M0 0 C7.59 0 15.18 0 23 0 C23 0.33 23 0.66 23 1 C16.07 1 9.14 1 2 1 C2 5.62 2 10.24 2 15 C7.61 15 13.22 15 19 15 C19 19.62 19 24.24 19 29 C18.67 29 18.34 29 18 29 C18 25.04 18 21.08 18 17 C12.06 17 6.12 17 0 17 C0 11.39 0 5.78 0 0 Z " fill="#370102" transform="translate(151,103)"/>
<path d="M0 0 C1.89213369 2.38573379 3.02391783 4.07175348 4 7 C4.474375 7.45375 4.94875 7.9075 5.4375 8.375 C8.30837122 11.36070606 8.97101423 14.23187713 9.125 18.3125 C9.08375 19.199375 9.0425 20.08625 9 21 C12.3 21 15.6 21 19 21 C18.484375 19.9275 17.96875 18.855 17.4375 17.75 C15.99396683 14.74745101 15.94181906 13.16753501 17 10 C17.65239158 11.39278017 18.29660552 12.78939212 18.9375 14.1875 C19.29714844 14.96480469 19.65679687 15.74210938 20.02734375 16.54296875 C21.00965441 19.02438804 21.55681544 21.37354836 22 24 C9.42723404 23.32765957 9.42723404 23.32765957 6.3203125 20.4375 C5.2872267 18.32010101 4.63819315 16.26746272 4 14 C3.25951835 12.24595127 2.50934078 10.49596723 1.75 8.75 C0.36063347 5.39414545 0 3.75972058 0 0 Z " fill="#C03F3F" transform="translate(368,148)"/>
<path d="M0 0 C2.09311231 2.09311231 2.56037094 3.17781105 3.47265625 5.921875 C3.73240234 6.70046875 3.99214844 7.4790625 4.25976562 8.28125 C4.52466797 9.0959375 4.78957031 9.910625 5.0625 10.75 C5.33126953 11.54921875 5.60003906 12.3484375 5.87695312 13.171875 C7.28189752 17.43225501 8.4164976 21.53368535 9 26 C4.4070292 22.47872239 3.88058083 18.42252403 3 13 C1.16780354 14.83219646 1.76098672 17.75713741 1.68359375 20.22265625 C1.64169922 21.48271484 1.59980469 22.74277344 1.55664062 24.04101562 C1.51682404 25.38150736 1.47711186 26.7220022 1.4375 28.0625 C1.39431958 29.40691523 1.35070544 30.7513166 1.30664062 32.09570312 C1.20014642 35.3970234 1.0981354 38.69842236 1 42 C0.67 42 0.34 42 0 42 C0 28.14 0 14.28 0 0 Z " fill="#3A0403" transform="translate(97,128)"/>
<path d="M0 0 C1.91015625 0.1328125 1.91015625 0.1328125 3.91015625 1.1328125 C3.91015625 3.4428125 3.91015625 5.7528125 3.91015625 8.1328125 C-0.04984375 8.1328125 -4.00984375 8.1328125 -8.08984375 8.1328125 C-7.05801912 0.02561894 -7.05801912 0.02561894 0 0 Z " fill="#E72A21" transform="translate(255.08984375,121.8671875)"/>
<path d="M0 0 C0.99 0 1.98 0 3 0 C3.433125 1.7634375 3.433125 1.7634375 3.875 3.5625 C4.83313721 7.4018927 5.89205511 11.2013318 7 15 C9.37782295 14.1042949 9.37782295 14.1042949 10.0703125 10.83984375 C10.42991937 9.54126339 10.78114216 8.24033915 11.125 6.9375 C11.30675781 6.27427734 11.48851562 5.61105469 11.67578125 4.92773438 C12.12430404 3.28708521 12.56307386 1.64377551 13 0 C14.32 0.33 15.64 0.66 17 1 C14.36 7.27 11.72 13.54 9 20 C8.34 20 7.68 20 7 20 C5.8278551 17.04380781 4.66322524 14.08471211 3.5 11.125 C3.16613281 10.28324219 2.83226562 9.44148438 2.48828125 8.57421875 C2.01455078 7.36572266 2.01455078 7.36572266 1.53125 6.1328125 C1.23798828 5.38918457 0.94472656 4.64555664 0.64257812 3.87939453 C0 2 0 2 0 0 Z " fill="#3B0301" transform="translate(359,90)"/>
<path d="M0 0 C0.66 0 1.32 0 2 0 C2.12375 0.639375 2.2475 1.27875 2.375 1.9375 C2.684375 2.9584375 2.684375 2.9584375 3 4 C3.66 4.33 4.32 4.66 5 5 C4.01 6.485 4.01 6.485 3 8 C1.43445815 14.28741809 2.24240659 19.85568585 4 26 C1.87738924 23.87738924 1.41288502 22.73100098 0.4921875 19.9375 C0.22792969 19.14085937 -0.03632812 18.34421875 -0.30859375 17.5234375 C-0.57800781 16.69070312 -0.84742187 15.85796875 -1.125 15 C-1.40214844 14.16726562 -1.67929688 13.33453125 -1.96484375 12.4765625 C-4 6.28086515 -4 6.28086515 -4 4 C-2.68 4 -1.36 4 0 4 C0 2.68 0 1.36 0 0 Z " fill="#DB302C" transform="translate(102,124)"/>
<path d="M0 0 C0.66 0 1.32 0 2 0 C2 3.3 2 6.6 2 10 C1.34 10 0.68 10 0 10 C-0.33 11.98 -0.66 13.96 -1 16 C-1.33 16 -1.66 16 -2 16 C-2 12.04 -2 8.08 -2 4 C-15.2 4 -28.4 4 -42 4 C-42 3.67 -42 3.34 -42 3 C-28.47 2.67 -14.94 2.34 -1 2 C-0.67 1.34 -0.34 0.68 0 0 Z " fill="#350405" transform="translate(224,86)"/>
<path d="M0 0 C0.99 0 1.98 0 3 0 C3.66 1.98 4.32 3.96 5 6 C-14.34042553 8.38297872 -14.34042553 8.38297872 -24 8 C-24.33 7.34 -24.66 6.68 -25 6 C-23.64455078 5.90912109 -23.64455078 5.90912109 -22.26171875 5.81640625 C-21.08222656 5.73261719 -19.90273437 5.64882812 -18.6875 5.5625 C-16.92986328 5.44068359 -16.92986328 5.44068359 -15.13671875 5.31640625 C-11.97409042 5.1132629 -11.97409042 5.1132629 -9 4 C-8.67 3.34 -8.34 2.68 -8 2 C-7.01 2 -6.02 2 -5 2 C-5 2.99 -5 3.98 -5 5 C-1.88667752 4.33131686 -1.88667752 4.33131686 -0.8125 1.9375 C-0.544375 1.298125 -0.27625 0.65875 0 0 Z " fill="#E12B2E" transform="translate(165,156)"/>
<path d="M0 0 C0.66 0.33 1.32 0.66 2 1 C2 1.66 2 2.32 2 3 C2.66 3 3.32 3 4 3 C5.33710956 10.42838645 4.68340908 17.51404207 4 25 C3.67 24.34 3.34 23.68 3 23 C2.01 22.67 1.02 22.34 0 22 C0 19.03 0 16.06 0 13 C0.99 13.33 1.98 13.66 3 14 C2.69964844 13.40832031 2.39929688 12.81664062 2.08984375 12.20703125 C-1.05488851 5.67238422 -1.05488851 5.67238422 -0.75 1.9375 C-0.5025 1.298125 -0.255 0.65875 0 0 Z " fill="#F1251D" transform="translate(371,133)"/>
<path d="M0 0 C0 4.29 0 8.58 0 13 C-7.37516246 13.86766617 -14.57670253 14.11479326 -22 14 C-22 13.67 -22 13.34 -22 13 C-15.4 12.34 -8.8 11.68 -2 11 C-2 8.03 -2 5.06 -2 2 C-2.68964844 2.0721875 -3.37929687 2.144375 -4.08984375 2.21875 C-10.09588659 2.81193942 -15.9657 3.09892295 -22 3 C-22 2.67 -22 2.34 -22 2 C-19.45887768 1.66198848 -16.91723254 1.32946621 -14.375 1 C-13.66214844 0.90460938 -12.94929687 0.80921875 -12.21484375 0.7109375 C-11.51230469 0.62070313 -10.80976563 0.53046875 -10.0859375 0.4375 C-9.4470459 0.35371094 -8.8081543 0.26992187 -8.14990234 0.18359375 C-5.44243323 -0.04761415 -2.71732333 0 0 0 Z " fill="#BC383E" transform="translate(174,150)"/>
<path d="M0 0 C4.62 0 9.24 0 14 0 C14.98238408 2.41540306 15.96100218 4.83221822 16.9375 7.25 C17.35418945 8.27287109 17.35418945 8.27287109 17.77929688 9.31640625 C19.06975756 12.51923638 20.21800044 15.63837534 21 19 C20.01 18.67 19.02 18.34 18 18 C15.73116217 13.46232435 14.32021011 8.90363757 13 4 C12.67 3.01 12.34 2.02 12 1 C9.69 1.33 7.38 1.66 5 2 C5.33 5.96 5.66 9.92 6 14 C2.45389042 9.2718539 1.56203011 5.65306133 0 0 Z " fill="#C93941" transform="translate(345,90)"/>
<path d="M0 0 C1.40256952 4.39853435 -0.07656853 7.01296796 -2 11 C-2.71406978 12.55988676 -3.42227982 14.12246751 -4.125 15.6875 C-4.62386719 16.77611328 -4.62386719 16.77611328 -5.1328125 17.88671875 C-5.96368435 19.91150104 -6.5279419 21.86610471 -7 24 C-7.66 24 -8.32 24 -9 24 C-8.67 25.65 -8.34 27.3 -8 29 C-5.03 29.33 -2.06 29.66 1 30 C0.67 30.66 0.34 31.32 0 32 C-5.94 31.01 -5.94 31.01 -12 30 C-11.17339566 25.04037398 -10.35871856 22.18754753 -8.25 17.8125 C-7.71632813 16.69101563 -7.18265625 15.56953125 -6.6328125 14.4140625 C-6.09398437 13.28742188 -5.55515625 12.16078125 -5 11 C-4.0364705 8.89820766 -3.07766067 6.79424103 -2.125 4.6875 C-1.71507812 3.78386719 -1.30515625 2.88023437 -0.8828125 1.94921875 C-0.59148437 1.30597656 -0.30015625 0.66273438 0 0 Z " fill="#BC353A" transform="translate(356,136)"/>
<path d="M0 0 C11.68825948 -0.19847988 23.33022763 0.40920501 35 1 C35 1.66 35 2.32 35 3 C30.53835792 3.90599257 26.60428267 4.0012071 22.0703125 3.66015625 C20.78125 3.56669922 19.4921875 3.47324219 18.1640625 3.37695312 C16.81769628 3.27229035 15.47134225 3.1674707 14.125 3.0625 C12.7552566 2.96093554 11.38546508 2.86001777 10.015625 2.75976562 C6.67655539 2.51286259 3.33811881 2.25939158 0 2 C0 1.34 0 0.68 0 0 Z " fill="#320503" transform="translate(275,162)"/>
<path d="M0 0 C0.33 0 0.66 0 1 0 C1.33 6.27 1.66 12.54 2 19 C1.01 19.33 0.02 19.66 -1 20 C-3.39307678 15.1141349 -4.64244174 11.56782839 -4 6 C-2.5625 4.25 -2.5625 4.25 -1 3 C-0.67 2.01 -0.34 1.02 0 0 Z " fill="#F22527" transform="translate(109,134)"/>
<path d="M0 0 C0.66 0 1.32 0 2 0 C2.33 11.22 2.66 22.44 3 34 C2.01 34 1.02 34 0 34 C0 22.78 0 11.56 0 0 Z " fill="#FC2328" transform="translate(86,128)"/>
<path d="M0 0 C0.66 0 1.32 0 2 0 C1.40481777 3.78075988 0.29305023 6.69010612 -1.5 10.0625 C-3.07746322 13.03858613 -4.3275437 15.69120932 -5 19 C-4.14535156 19.04898438 -3.29070312 19.09796875 -2.41015625 19.1484375 C-1.30542969 19.22320312 -0.20070313 19.29796875 0.9375 19.375 C2.03964844 19.44460937 3.14179688 19.51421875 4.27734375 19.5859375 C5.17582031 19.72257812 6.07429688 19.85921875 7 20 C7.33 20.66 7.66 21.32 8 22 C4.04 22 0.08 22 -4 22 C-4 21.34 -4 20.68 -4 20 C-4.99 20 -5.98 20 -7 20 C-7.125 17.125 -7.125 17.125 -7 14 C-6.34 13.34 -5.68 12.68 -5 12 C-4.11221308 10.03511169 -4.11221308 10.03511169 -3.375 7.875 C-3.11460937 7.15054688 -2.85421875 6.42609375 -2.5859375 5.6796875 C-2.39257812 5.12539062 -2.19921875 4.57109375 -2 4 C-1.34 4 -0.68 4 0 4 C0 2.68 0 1.36 0 0 Z " fill="#3A0607" transform="translate(349,147)"/>
<path d="M0 0 C0.66 0 1.32 0 2 0 C2.50403768 1.29009643 3.00309926 2.58213789 3.5 3.875 C3.7784375 4.59429687 4.056875 5.31359375 4.34375 6.0546875 C5 8 5 8 5 10 C5.66 10 6.32 10 7 10 C7.12375 10.639375 7.2475 11.27875 7.375 11.9375 C7.58125 12.618125 7.7875 13.29875 8 14 C8.66 14.33 9.32 14.66 10 15 C10 18.96 10 22.92 10 27 C9.34 27 8.68 27 8 27 C8 27.66 8 28.32 8 29 C7.34 29 6.68 29 6 29 C6.28875 27.845 6.5775 26.69 6.875 25.5 C7.66340523 18.99565688 4.86860584 13.46446568 2.4453125 7.57421875 C1.39541939 4.97786147 0.621516 2.6953349 0 0 Z " fill="#CF3338" transform="translate(351,106)"/>
<path d="M0 0 C4.62 0 9.24 0 14 0 C13.07065334 2.58653115 12.13193804 5.16898256 11.1875 7.75 C10.92646484 8.47960937 10.66542969 9.20921875 10.39648438 9.9609375 C9.00481438 13.74078193 7.6945995 16.92508165 5 20 C5.72404774 15.95295419 6.83446287 12.10929598 8.0625 8.1875 C8.42472656 7.02605469 8.78695313 5.86460938 9.16015625 4.66796875 C9.43730469 3.78753906 9.71445312 2.90710938 10 2 C7.36 2 4.72 2 2 2 C1.34 3.32 0.68 4.64 0 6 C-0.66 6 -1.32 6 -2 6 C-1.34 4.02 -0.68 2.04 0 0 Z " fill="#BF3A3D" transform="translate(376,90)"/>
<path d="M0 0 C0.99 0.33 1.98 0.66 3 1 C3 1.99 3 2.98 3 4 C2.34 4 1.68 4 1 4 C1.12375 5.36125 1.12375 5.36125 1.25 6.75 C0.93917001 10.79078988 -0.22814466 11.22814466 -3 14 C-3.80765878 17.64721696 -3.80765878 17.64721696 -4 21 C-5.32 20.67 -6.64 20.34 -8 20 C-5.36 13.4 -2.72 6.8 0 0 Z " fill="#400304" transform="translate(365,147)"/>
<path d="M0 0 C2.45298739 2.45298739 2.59099611 4.16661681 3.4375 7.5 C4.3307493 10.50687025 4.3307493 10.50687025 6 13 C9.63372284 14.56779672 13.06548507 14.9118126 17 15 C17 15.33 17 15.66 17 16 C10.92928675 16.19443566 5.71517546 16.34468737 0 14 C-0.66 14 -1.32 14 -2 14 C-2 12.68 -2 11.36 -2 10 C-0.68 10 0.64 10 2 10 C1.505 8.63875 1.505 8.63875 1 7.25 C0 4 0 4 0 0 Z " fill="#380608" transform="translate(370,156)"/>
<path d="M0 0 C1.32 0 2.64 0 4 0 C4 1.65 4 3.3 4 5 C3.34 5 2.68 5 2 5 C2 5.66 2 6.32 2 7 C3.32 7.33 4.64 7.66 6 8 C6 8.33 6 8.66 6 9 C3.36 9.33 0.72 9.66 -2 10 C-2 9.01 -2 8.02 -2 7 C-3.32 7 -4.64 7 -6 7 C-6 6.01 -6 5.02 -6 4 C-3.03 4.495 -3.03 4.495 0 5 C0 3.35 0 1.7 0 0 Z " fill="#F22129" transform="translate(210,91)"/>
<path d="M0 0 C0.20086443 3.71599191 0.1519437 4.77208445 -2 8 C-2.39013716 9.9896995 -2.73202649 11.99019869 -3 14 C-4.32 14.33 -5.64 14.66 -7 15 C-5.66666667 11 -4.33333333 7 -3 3 C-7.29 2.67 -11.58 2.34 -16 2 C-16 1.67 -16 1.34 -16 1 C-10.59255982 0.22750855 -5.46137814 -0.09752461 0 0 Z " fill="#310203" transform="translate(392,88)"/>
<path d="M0 0 C0.66 0.33 1.32 0.66 2 1 C1.69964844 1.49628906 1.39929688 1.99257812 1.08984375 2.50390625 C-1.67505336 7.44323091 -2.51777718 10.33363187 -1 16 C-0.25602093 18.09244114 0.52241633 20.15410605 1.37890625 22.203125 C2 24 2 24 2 27 C1.34 27 0.68 27 0 27 C-0.50833591 25.75336669 -1.00631145 24.50250613 -1.5 23.25 C-1.7784375 22.55390625 -2.056875 21.8578125 -2.34375 21.140625 C-3 19 -3 19 -3 15 C-3.66 15 -4.32 15 -5 15 C-5.25 7.375 -5.25 7.375 -3 4 C-2.34 4 -1.68 4 -1 4 C-0.67 2.68 -0.34 1.36 0 0 Z " fill="#BA3738" transform="translate(377,117)"/>
<path d="M0 0 C0.99 0.33 1.98 0.66 3 1 C3.765625 2.7421875 3.765625 2.7421875 4.25 4.875 C4.50523437 5.92300781 4.50523437 5.92300781 4.765625 6.9921875 C5 9 5 9 4 12 C2.68 12 1.36 12 0 12 C-0.66 11.34 -1.32 10.68 -2 10 C-2.99 10.495 -2.99 10.495 -4 11 C-3.71125 10.484375 -3.4225 9.96875 -3.125 9.4375 C-1.71219973 6.37643275 -0.8751483 3.25055082 0 0 Z " fill="#0F0304" transform="translate(366,151)"/>
<path d="M0 0 C0.33 0 0.66 0 1 0 C1.02505615 1.02472412 1.0501123 2.04944824 1.07592773 3.10522461 C1.16984484 6.89409676 1.27010317 10.68277881 1.37231445 14.47143555 C1.41572297 16.11364303 1.45739358 17.75589739 1.49731445 19.39819336 C1.5548744 21.75388745 1.61860892 24.10934428 1.68359375 26.46484375 C1.70030624 27.20339096 1.71701874 27.94193817 1.73423767 28.7028656 C1.53548013 32.14300627 1.53548013 32.14300627 3 35 C4.84891946 35.23363881 6.70488031 35.41303635 8.5625 35.5625 C9.57441406 35.64628906 10.58632812 35.73007813 11.62890625 35.81640625 C12.80259766 35.90728516 12.80259766 35.90728516 14 36 C14 36.33 14 36.66 14 37 C9.38 37 4.76 37 0 37 C0 24.79 0 12.58 0 0 Z " fill="#AF392D" transform="translate(138,128)"/>
<path d="M0 0 C2.88407667 2.88407667 3.96102496 6.03833075 4.34765625 10.07421875 C3.55025488 16.78493367 -0.04692884 22.9981222 -3 29 C-3.33 29 -3.66 29 -4 29 C-4 26.69 -4 24.38 -4 22 C-3.34 22 -2.68 22 -2 22 C-1.34 19.36 -0.68 16.72 0 14 C0.66 14 1.32 14 2 14 C1.855625 13.32453125 1.71125 12.6490625 1.5625 11.953125 C1.376875 11.06109375 1.19125 10.1690625 1 9.25 C0.814375 8.36828125 0.62875 7.4865625 0.4375 6.578125 C0 4 0 4 0 0 Z " fill="#48050A" transform="translate(355,118)"/>
<path d="M0 0 C3.09411467 1.54705733 3.71558965 3.88071772 5 7 C4.58203125 9.19921875 4.58203125 9.19921875 4 11 C3.32880451 9.5437455 2.66318193 8.08492133 2 6.625 C1.62875 5.81289062 1.2575 5.00078125 0.875 4.1640625 C0 2 0 2 0 0 Z M-11 11 C-6.05 11 -1.1 11 4 11 C4 11.99 4 12.98 4 14 C1.36 13.67 -1.28 13.34 -4 13 C-4 13.66 -4 14.32 -4 15 C-6.49361571 13.79618552 -8.68143083 12.54571278 -11 11 Z " fill="#170103" transform="translate(388,161)"/>
<path d="M0 0 C0.33 0 0.66 0 1 0 C1 2.64 1 5.28 1 8 C2.32 7.34 3.64 6.68 5 6 C6 7 6 7 6.09765625 10.16015625 C6.08605469 11.44792969 6.07445312 12.73570313 6.0625 14.0625 C6.05347656 15.35285156 6.04445313 16.64320312 6.03515625 17.97265625 C6.02355469 18.97167969 6.01195312 19.97070312 6 21 C5.34 20.01 4.68 19.02 4 18 C4.33 17.34 4.66 16.68 5 16 C4.34 15.67 3.68 15.34 3 15 C3 14.01 3 13.02 3 12 C2.01 12 1.02 12 0 12 C0 8.04 0 4.08 0 0 Z " fill="#110105" transform="translate(267,90)"/>
<path d="M0 0 C1.125 1.625 1.125 1.625 2 4 C1.125 7.25 1.125 7.25 0 10 C-0.66 10 -1.32 10 -2 10 C-2.33 10.99 -2.66 11.98 -3 13 C-3.66 13 -4.32 13 -5 13 C-3.25740319 3.40546697 -3.25740319 3.40546697 0 0 Z " fill="#F3232E" transform="translate(373,102)"/>
<path d="M0 0 C0.66 0 1.32 0 2 0 C1.88541307 1.43836751 1.75790884 2.87570966 1.625 4.3125 C1.55539062 5.11300781 1.48578125 5.91351563 1.4140625 6.73828125 C1 9 1 9 -1 12 C-1.66 12 -2.32 12 -3 12 C-4.16898722 7.90854474 -4.24508059 6.45635697 -2.1875 2.625 C-1.465625 1.75875 -0.74375 0.8925 0 0 Z " fill="#EE2623" transform="translate(382,96)"/>
<path d="M0 0 C0.33 0 0.66 0 1 0 C1.33 5.94 1.66 11.88 2 18 C5.3 18.33 8.6 18.66 12 19 C12 19.66 12 20.32 12 21 C10.18757948 21.02687279 8.37504767 21.04633715 6.5625 21.0625 C5.55316406 21.07410156 4.54382813 21.08570313 3.50390625 21.09765625 C1 21 1 21 0 20 C-0.08669432 18.5112814 -0.10703494 17.018555 -0.09765625 15.52734375 C-0.09443359 14.62822266 -0.09121094 13.72910156 -0.08789062 12.80273438 C-0.07951172 11.85720703 -0.07113281 10.91167969 -0.0625 9.9375 C-0.05798828 8.98810547 -0.05347656 8.03871094 -0.04882812 7.06054688 C-0.0370011 4.70696935 -0.02052025 2.35351523 0 0 Z " fill="#BE3D3A" transform="translate(321,144)"/>
<path d="M0 0 C0.33 1.32 0.66 2.64 1 4 C-1.97 4 -4.94 4 -8 4 C-8 4.66 -8 5.32 -8 6 C-8.99 6 -9.98 6 -11 6 C-11 4.68 -11 3.36 -11 2 C-7.17010894 0.19769832 -4.21878192 -0.19622241 0 0 Z " fill="#0D0206" transform="translate(203,163)"/>
<path d="M0 0 C2.42130331 2.42130331 2.52840504 3.80111377 3.125 7.125 C3.29257813 8.03507812 3.46015625 8.94515625 3.6328125 9.8828125 C3.81457031 10.93082031 3.81457031 10.93082031 4 12 C4.66 12 5.32 12 6 12 C6.33 15.3 6.66 18.6 7 22 C4.35687449 19.35687449 3.64193408 16.76185236 2.375 13.25 C1.92898437 12.03828125 1.48296875 10.8265625 1.0234375 9.578125 C0.04818474 6.16846267 -0.20505618 3.51833241 0 0 Z " fill="#330203" transform="translate(97,88)"/>
<path d="M0 0 C0.99 0.33 1.98 0.66 3 1 C3.33 4.63 3.66 8.26 4 12 C2.68 12.33 1.36 12.66 0 13 C0 8.71 0 4.42 0 0 Z " fill="#240204" transform="translate(174,90)"/>
<path d="M0 0 C5.94 0 11.88 0 18 0 C18 1.65 18 3.3 18 5 C17.34 5 16.68 5 16 5 C16 4.01 16 3.02 16 2 C10.72 2 5.44 2 0 2 C0 1.34 0 0.68 0 0 Z " fill="#DC2F22" transform="translate(192,91)"/>
<path d="M0 0 C1.2065625 0.0309375 1.2065625 0.0309375 2.4375 0.0625 C2.4375 2.0425 2.4375 4.0225 2.4375 6.0625 C1.7775 6.0625 1.1175 6.0625 0.4375 6.0625 C0.4375 6.7225 0.4375 7.3825 0.4375 8.0625 C1.4275 8.3925 2.4175 8.7225 3.4375 9.0625 C0.1375 8.7325 -3.1625 8.4025 -6.5625 8.0625 C-6.2325 7.4025 -5.9025 6.7425 -5.5625 6.0625 C-4.2425 6.0625 -2.9225 6.0625 -1.5625 6.0625 C-1.2325 5.4025 -0.9025 4.7425 -0.5625 4.0625 C-1.2225 4.0625 -1.8825 4.0625 -2.5625 4.0625 C-2.8925 3.0725 -3.2225 2.0825 -3.5625 1.0625 C-2.5625 0.0625 -2.5625 0.0625 0 0 Z " fill="#D72B23" transform="translate(92.5625,161.9375)"/>
<path d="M0 0 C1.32 0 2.64 0 4 0 C4.1875 2.375 4.1875 2.375 4 5 C3.01 5.66 2.02 6.32 1 7 C0.61605333 9.77262255 0.39657752 12.34323528 0.3125 15.125 C0.27833984 15.87910156 0.24417969 16.63320312 0.20898438 17.41015625 C0.12645722 19.27291201 0.06155289 21.13643326 0 23 C-0.33 23 -0.66 23 -1 23 C-1.02714434 20.2915983 -1.04690846 17.58347279 -1.0625 14.875 C-1.07087891 14.11445312 -1.07925781 13.35390625 -1.08789062 12.5703125 C-1.10646509 8.2610356 -0.86117265 4.24483526 0 0 Z " fill="#E2302C" transform="translate(150,96)"/>
<path d="M0 0 C0.99 0.66 1.98 1.32 3 2 C2.55833224 6.85834533 1.57144598 8.75323093 -2 12 C-3.23512079 14.13309192 -3.23512079 14.13309192 -4 16 C-4.125 13.625 -4.125 13.625 -4 11 C-3.34 10.34 -2.68 9.68 -2 9 C-1.32348793 6.80295489 -1.32348793 6.80295489 -0.875 4.375 C-0.70742188 3.55773437 -0.53984375 2.74046875 -0.3671875 1.8984375 C-0.24601562 1.27195313 -0.12484375 0.64546875 0 0 Z " fill="#D62F2E" transform="translate(362,144)"/>
<path d="M0 0 C1.89213369 2.38573379 3.02391783 4.07175348 4 7 C4.474375 7.45375 4.94875 7.9075 5.4375 8.375 C8.12428504 11.16925644 8.95485307 13.98419411 9.125 17.8125 C9.08375 18.534375 9.0425 19.25625 9 20 C8.74476563 19.46375 8.48953125 18.9275 8.2265625 18.375 C6.18398778 14.41995086 3.78516363 10.6696549 1.4609375 6.875 C0 4 0 4 0 0 Z " fill="#D03436" transform="translate(368,148)"/>
<path d="M0 0 C2.36253009 2.36253009 3.037848 4.31227271 4.1875 7.4375 C4.55230469 8.40558594 4.91710937 9.37367187 5.29296875 10.37109375 C6 13 6 13 5 16 C3.5 14.8125 3.5 14.8125 2 13 C1.8125 10.3125 1.8125 10.3125 2 8 C1.34 8 0.68 8 0 8 C0 5.36 0 2.72 0 0 Z " fill="#3C0507" transform="translate(349,102)"/>
<path d="M0 0 C0.33 0 0.66 0 1 0 C1 4.95 1 9.9 1 15 C0.34 15 -0.32 15 -1 15 C-2.88453599 12.22862355 -2.99438022 10.92132313 -2.75 7.5 C-2.1281105 4.59784899 -1.50963012 2.5160502 0 0 Z " fill="#2A0302" transform="translate(377,120)"/>
<path d="M0 0 C0.99 0.495 0.99 0.495 2 1 C2.6328125 3.28515625 2.6328125 3.28515625 3.125 6.0625 C3.29257813 6.98160156 3.46015625 7.90070313 3.6328125 8.84765625 C3.75398438 9.55792969 3.87515625 10.26820313 4 11 C4.68707031 10.83242187 5.37414062 10.66484375 6.08203125 10.4921875 C7.43361328 10.18667969 7.43361328 10.18667969 8.8125 9.875 C9.70582031 9.66617188 10.59914063 9.45734375 11.51953125 9.2421875 C14 9 14 9 17 11 C12.32798795 12.20568053 7.78503708 12.09382426 3 12 C2.49440092 10.56445975 1.9957251 9.1264798 1.5 7.6875 C1.2215625 6.88699219 0.943125 6.08648437 0.65625 5.26171875 C0 3 0 3 0 0 Z " fill="#B4393A" transform="translate(108,156)"/>
<path d="M0 0 C1.32 0 2.64 0 4 0 C3.67 0.69738281 3.34 1.39476562 3 2.11328125 C1.8754268 5.3596078 1.86408392 7.76836115 2 11.1875 C2.125 14.35546875 2.125 14.35546875 2 17 C1.34 17.66 0.68 18.32 0 19 C0 14.71 0 10.42 0 6 C-1.32 5.67 -2.64 5.34 -4 5 C-2.68 5 -1.36 5 0 5 C0 3.35 0 1.7 0 0 Z " fill="#220003" transform="translate(310,144)"/>
<path d="M0 0 C0.33 0 0.66 0 1 0 C1.33 5.28 1.66 10.56 2 16 C1.01 16 0.02 16 -1 16 C-1.09688221 10.55306686 -1.12862175 5.36095333 0 0 Z " fill="#E12C1B" transform="translate(115,128)"/>
<path d="M0 0 C0 0.99 0 1.98 0 3 C-3.63 3.66 -7.26 4.32 -11 5 C-11.33 4.01 -11.66 3.02 -12 2 C-8.04 1.34 -4.08 0.68 0 0 Z " fill="#260304" transform="translate(96,170)"/>
<path d="M0 0 C0.66 0 1.32 0 2 0 C1.51421457 3.12290635 1.0013988 5.99580359 0 9 C-0.99 9.495 -0.99 9.495 -2 10 C-2.66 10.99 -3.32 11.98 -4 13 C-4 10.69 -4 8.38 -4 6 C-2.68 5.34 -1.36 4.68 0 4 C0 2.68 0 1.36 0 0 Z " fill="#D82F36" transform="translate(379,108)"/>
<path d="M0 0 C2.34914492 2.34914492 2.73140357 3.95679446 3.625 7.125 C3.88539063 8.03507812 4.14578125 8.94515625 4.4140625 9.8828125 C4.70410156 10.93082031 4.70410156 10.93082031 5 12 C4.34 12 3.68 12 3 12 C3 11.34 3 10.68 3 10 C2.01 10 1.02 10 0 10 C0 6.7 0 3.4 0 0 Z " fill="#320404" transform="translate(344,90)"/>
<path d="M0 0 C3.96 0 7.92 0 12 0 C11.67 1.32 11.34 2.64 11 4 C7.7 3.67 4.4 3.34 1 3 C0.67 2.01 0.34 1.02 0 0 Z " fill="#2C0102" transform="translate(322,165)"/>
<path d="M0 0 C0.99 0.33 1.98 0.66 3 1 C3.33 2.98 3.66 4.96 4 7 C2.02 7 0.04 7 -2 7 C-1.34 4.69 -0.68 2.38 0 0 Z " fill="#E22C26" transform="translate(383,162)"/>
<path d="M0 0 C2.10850329 3.16275494 3.28830876 6.13471538 4.625 9.6875 C5.07101562 10.86699219 5.51703125 12.04648438 5.9765625 13.26171875 C6.31429688 14.16535156 6.65203125 15.06898437 7 16 C6.01 16 5.02 16 4 16 C1.37124595 10.62819824 0.3916035 5.95507399 0 0 Z " fill="#B93436" transform="translate(359,92)"/>
<path d="M0 0 C1.32 0.33 2.64 0.66 4 1 C2.35 4.3 0.7 7.6 -1 11 C-1.33 11 -1.66 11 -2 11 C-1 3.57142857 -1 3.57142857 0 0 Z " fill="#290301" transform="translate(372,90)"/>
<path d="M0 0 C2.40243465 2.15344283 3.60244944 3.96874765 4.6875 7 C4.93886719 7.680625 5.19023437 8.36125 5.44921875 9.0625 C6 11 6 11 6 14 C4.68 13.67 3.36 13.34 2 13 C2.04125 12.071875 2.0825 11.14375 2.125 10.1875 C2.27136339 6.84190281 2.27136339 6.84190281 0 4 C0 2.68 0 1.36 0 0 Z " fill="#B03C41" transform="translate(384,158)"/>
<path d="M0 0 C1.74965358 -0.05429959 3.49979787 -0.09292823 5.25 -0.125 C6.22453125 -0.14820313 7.1990625 -0.17140625 8.203125 -0.1953125 C11.0196498 0.00137219 12.60949036 0.55431084 15 2 C12.87562788 2.19448477 10.75046809 2.38038289 8.625 2.5625 C7.44164062 2.66691406 6.25828125 2.77132812 5.0390625 2.87890625 C2 3 2 3 0 2 C0 1.34 0 0.68 0 0 Z " fill="#EC2919" transform="translate(288,152)"/>
<path d="M0 0 C0.66 0.66 1.32 1.32 2 2 C2.66 1.67 3.32 1.34 4 1 C4 1.99 4 2.98 4 4 C3.01 4 2.02 4 1 4 C0.67 5.65 0.34 7.3 0 9 C-1.32 9.33 -2.64 9.66 -4 10 C-3.52449439 8.51965236 -3.04448784 7.04074979 -2.5625 5.5625 C-2.29566406 4.73878906 -2.02882813 3.91507813 -1.75390625 3.06640625 C-1 1 -1 1 0 0 Z " fill="#E22A29" transform="translate(356,140)"/>
<path d="M0 0 C3.31012244 3.31012244 3.50351065 4.53159589 4 9 C3.34 9 2.68 9 2 9 C1.67 10.65 1.34 12.3 1 14 C0.67 14 0.34 14 0 14 C0 9.38 0 4.76 0 0 Z " fill="#E52C1B" transform="translate(370,138)"/>
<path d="M0 0 C1.32 0 2.64 0 4 0 C4 2.31 4 4.62 4 7 C2.68 7 1.36 7 0 7 C0 4.69 0 2.38 0 0 Z " fill="#F5241B" transform="translate(162,122)"/>
<path d="M0 0 C1.32 0 2.64 0 4 0 C4 2.31 4 4.62 4 7 C2.68 7 1.36 7 0 7 C0 4.69 0 2.38 0 0 Z " fill="#FA1F2A" transform="translate(154,123)"/>
<path d="M0 0 C0.33 2.64 0.66 5.28 1 8 C0.01 8.33 -0.98 8.66 -2 9 C-2.66 7.02 -3.32 5.04 -4 3 C-1.125 0 -1.125 0 0 0 Z " fill="#F02419" transform="translate(150,123)"/>
<path d="M0 0 C2.875 -0.125 2.875 -0.125 6 0 C6.66 0.66 7.32 1.32 8 2 C5.02588876 3.23921302 2.14737182 4.30058404 -1 5 C-0.67 3.35 -0.34 1.7 0 0 Z " fill="#F1232C" transform="translate(378,91)"/>
<path d="M0 0 C1.9955516 3.99110319 2.19546065 5.69986566 2 10 C-0.62386487 6.93882432 -1 6.26826873 -1 2 C-3.97 2 -6.94 2 -10 2 C-10 1.67 -10 1.34 -10 1 C-6.7 0.67 -3.4 0.34 0 0 Z " fill="#C73332" transform="translate(96,90)"/>
<path d="M0 0 C0.33 0.66 0.66 1.32 1 2 C1.66 2 2.32 2 3 2 C3 2.66 3 3.32 3 4 C4.98 4 6.96 4 9 4 C9 4.66 9 5.32 9 6 C5.04 5.67 1.08 5.34 -3 5 C-2.01 4.67 -1.02 4.34 0 4 C0 2.68 0 1.36 0 0 Z " fill="#E42C33" transform="translate(187,96)"/>
<path d="M0 0 C0 2.97 0 5.94 0 9 C-0.99 8.67 -1.98 8.34 -3 8 C-3.33 5.69 -3.66 3.38 -4 1 C-2 0 -2 0 0 0 Z " fill="#F6251D" transform="translate(172,92)"/>
<path d="M0 0 C0.33 0 0.66 0 1 0 C1 3.3 1 6.6 1 10 C-0.65 10 -2.3 10 -4 10 C-3.625 8.0625 -3.625 8.0625 -3 6 C-2.34 5.67 -1.68 5.34 -1 5 C-0.34444881 2.47266765 -0.34444881 2.47266765 0 0 Z " fill="#0B030A" transform="translate(348,102)"/>
<path d="M0 0 C3 1 3 1 6 3 C5.67 3.99 5.34 4.98 5 6 C3.35 6 1.7 6 0 6 C0 4.02 0 2.04 0 0 Z " fill="#0C0008" transform="translate(153,104)"/>
<path d="M0 0 C0.33 0 0.66 0 1 0 C0.67 3.63 0.34 7.26 0 11 C-1.32 11.33 -2.64 11.66 -4 12 C-2.66666667 8 -1.33333333 4 0 0 Z " fill="#430707" transform="translate(389,91)"/>
<path d="M0 0 C2.64 0 5.28 0 8 0 C8.33 1.32 8.66 2.64 9 4 C5.7 3.34 2.4 2.68 -1 2 C-0.67 1.34 -0.34 0.68 0 0 Z " fill="#F62121" transform="translate(249,122)"/>
<path d="M0 0 C1.21940083 3.6582025 0.63709904 4.58448676 -0.8125 8.0625 C-1.16957031 8.94035156 -1.52664063 9.81820312 -1.89453125 10.72265625 C-3 13 -3 13 -5 15 C-3.97137215 9.55432314 -2.75385216 4.88182883 0 0 Z " fill="#B93735" transform="translate(373,96)"/>
<path d="M0 0 C0.99 0 1.98 0 3 0 C3 2.64 3 5.28 3 8 C2.01 8 1.02 8 0 8 C0 5.36 0 2.72 0 0 Z " fill="#FB1B35" transform="translate(163,92)"/>
<path d="M0 0 C0.99 0 1.98 0 3 0 C3 2.64 3 5.28 3 8 C2.01 8 1.02 8 0 8 C0 5.36 0 2.72 0 0 Z " fill="#F91E2A" transform="translate(262,92)"/>
<path d="M0 0 C0.66 0 1.32 0 2 0 C2 2.64 2 5.28 2 8 C1.01 8 0.02 8 -1 8 C-1.625 5.6875 -1.625 5.6875 -2 3 C-1.34 2.01 -0.68 1.02 0 0 Z " fill="#DF2F1D" transform="translate(160,93)"/>
<path d="M0 0 C0.99 0.33 1.98 0.66 3 1 C3 2.98 3 4.96 3 7 C2.01 7.33 1.02 7.66 0 8 C-1.09658936 4.71023192 -0.79953138 3.28696233 0 0 Z " fill="#F62120" transform="translate(371,116)"/>
<path d="M0 0 C2.31 0 4.62 0 7 0 C7 0.99 7 1.98 7 3 C4.36 3 1.72 3 -1 3 C-0.67 2.01 -0.34 1.02 0 0 Z " fill="#F4202C" transform="translate(350,91)"/>
<path d="M0 0 C0.99 0 1.98 0 3 0 C3 0.66 3 1.32 3 2 C4.32 2.33 5.64 2.66 7 3 C6.67 3.66 6.34 4.32 6 5 C4.02 5 2.04 5 0 5 C0 3.35 0 1.7 0 0 Z " fill="#0C060C" transform="translate(272,163)"/>
<path d="M0 0 C0.66 0.33 1.32 0.66 2 1 C1.67 1.33 1.34 1.66 1 2 C0.63239269 4.32817964 0.29758419 6.6618385 0 9 C-1.32 8.67 -2.64 8.34 -4 8 C-2.68 5.36 -1.36 2.72 0 0 Z " fill="#2C0000" transform="translate(361,159)"/>
<path d="M0 0 C2.32240046 2.85021875 3.93906527 5.46355091 5 9 C4.546875 11.15625 4.546875 11.15625 4 13 C3.32404685 11.58774074 2.65959941 10.16997095 2 8.75 C1.62875 7.96109375 1.2575 7.1721875 0.875 6.359375 C0 4 0 4 0 0 Z " fill="#BE3938" transform="translate(379,144)"/>
<path d="M0 0 C1.65 0 3.3 0 5 0 C5.33 1.32 5.66 2.64 6 4 C4.02 4.33 2.04 4.66 0 5 C0 3.35 0 1.7 0 0 Z " fill="#0D010A" transform="translate(343,144)"/>
<path d="M0 0 C2.51699845 2.51699845 3.10964078 4.57554146 4 8 C3.625 10.375 3.625 10.375 3 12 C0.01485372 7.89542386 -0.2954439 5.02254631 0 0 Z " fill="#E72830" transform="translate(102,112)"/>
<path d="M0 0 C0.56654297 0.72123047 0.56654297 0.72123047 1.14453125 1.45703125 C3.64531405 3.53662958 5.47306804 3.49841577 8.6875 3.6875 C9.68136719 3.75324219 10.67523438 3.81898438 11.69921875 3.88671875 C12.45847656 3.92410156 13.21773437 3.96148437 14 4 C14 4.33 14 4.66 14 5 C9.38 5 4.76 5 0 5 C0 3.35 0 1.7 0 0 Z " fill="#AB3D41" transform="translate(138,160)"/>
<path d="M0 0 C0.66 0.33 1.32 0.66 2 1 C2.125 3.875 2.125 3.875 2 7 C1.34 7.66 0.68 8.32 0 9 C-1 8 -1 8 -1.125 5.0625 C-1 2 -1 2 0 0 Z " fill="#020604" transform="translate(99,140)"/>
<path d="M0 0 C5.28 0 10.56 0 16 0 C16 0.33 16 0.66 16 1 C15.09636719 1.06058594 14.19273437 1.12117187 13.26171875 1.18359375 C11.49248047 1.30927734 11.49248047 1.30927734 9.6875 1.4375 C8.51574219 1.51871094 7.34398437 1.59992188 6.13671875 1.68359375 C2.97409042 1.8867371 2.97409042 1.8867371 0 3 C0 2.01 0 1.02 0 0 Z " fill="#390100" transform="translate(244,132)"/>
<path d="M0 0 C1.98 0 3.96 0 6 0 C6 0.66 6 1.32 6 2 C6.99 2 7.98 2 9 2 C9 2.66 9 3.32 9 4 C5.97580475 3.41196203 2.98241547 2.77321882 0 2 C0 1.34 0 0.68 0 0 Z " fill="#DD2E1B" transform="translate(234,94)"/>
<path d="M0 0 C1.32 0.33 2.64 0.66 4 1 C3.67 2.65 3.34 4.3 3 6 C2.01 6 1.02 6 0 6 C0 4.02 0 2.04 0 0 Z " fill="#E62C1D" transform="translate(150,154)"/>
<path d="M0 0 C0.95465783 2.16967689 1.14401212 3.56328793 0.3984375 5.82421875 C-0.35870385 7.5684743 -1.17609198 9.28627131 -2 11 C-2.33 11 -2.66 11 -3 11 C-3 8.69 -3 6.38 -3 4 C-2.34 4 -1.68 4 -1 4 C-0.67 2.68 -0.34 1.36 0 0 Z " fill="#2F0202" transform="translate(354,136)"/>
<path d="M0 0 C1.61949011 2.57213134 2.04408751 3.67669159 1.625 6.75 C1.41875 7.4925 1.2125 8.235 1 9 C0.34 8.67 -0.32 8.34 -1 8 C-1 6.68 -1 5.36 -1 4 C-1.66 3.34 -2.32 2.68 -3 2 C-2.01 1.34 -1.02 0.68 0 0 Z " fill="#0D0308" transform="translate(177,87)"/>
<path d="M0 0 C2.35953094 2.35953094 2.49141413 3.77895617 3 7 C1.35 6.67 -0.3 6.34 -2 6 C-1.34 4.02 -0.68 2.04 0 0 Z " fill="#2B0605" transform="translate(106,154)"/>
<path d="M0 0 C1.32 0 2.64 0 4 0 C3.67 1.98 3.34 3.96 3 6 C2.67 5.34 2.34 4.68 2 4 C1.34 4 0.68 4 0 4 C0 2.68 0 1.36 0 0 Z " fill="#EC2A16" transform="translate(158,154)"/>
<path d="M0 0 C1.32 0 2.64 0 4 0 C3.67 1.98 3.34 3.96 3 6 C2.67 5.01 2.34 4.02 2 3 C1.01 3.33 0.02 3.66 -1 4 C-1 1 -1 1 0 0 Z " fill="#DF2C21" transform="translate(382,93)"/>
<path d="M0 0 C0.99 0.33 1.98 0.66 3 1 C2.34 3.31 1.68 5.62 1 8 C-1 5 -1 5 -0.625 2.3125 C-0.41875 1.549375 -0.2125 0.78625 0 0 Z " fill="#D02720" transform="translate(96,123)"/>
<path d="M0 0 C0.99 0 1.98 0 3 0 C3 2.64 3 5.28 3 8 C0.37613513 4.93882432 0 4.26826873 0 0 Z " fill="#F61F27" transform="translate(146,104)"/>
<path d="M0 0 C0.99 0.33 1.98 0.66 3 1 C3 2.32 3 3.64 3 5 C1.68 5 0.36 5 -1 5 C-0.67 3.35 -0.34 1.7 0 0 Z " fill="#120005" transform="translate(187,81)"/>
</svg>
