<?xml version="1.0" encoding="UTF-8"?>
<svg version="1.1" xmlns="http://www.w3.org/2000/svg" width="474" height="146">
<path d="M0 0 C156.42 0 312.84 0 474 0 C474 48.18 474 96.36 474 146 C317.58 146 161.16 146 0 146 C0 97.82 0 49.64 0 0 Z " fill="#FDFCFC" transform="translate(0,0)"/>
<path d="M0 0 C6.27 0 12.54 0 19 0 C19.515625 1.77375 20.03125 3.5475 20.5625 5.375 C22.55936906 11.90048284 24.97858161 18.20186353 27.49780273 24.54101562 C29.33602605 29.19685572 30.91542736 33.83272748 32.26171875 38.65625 C33.44181711 42.40259402 35.03538867 45.96460933 36.62109375 49.5546875 C38.6467975 54.61607762 40.27601782 59.82805345 42 65 C42.33 43.55 42.66 22.1 43 0 C48.94 0 54.88 0 61 0 C61 36.96 61 73.92 61 112 C47 114 47 114 41 114 C36.95774757 103.47649894 33.14634882 92.8728402 29.375 82.25 C29.13961517 81.5881369 28.90423035 80.9262738 28.66171265 80.24435425 C27.96836295 78.29361308 27.2768397 76.3422342 26.5859375 74.390625 C25.98338135 72.6895459 25.98338135 72.6895459 25.36865234 70.95410156 C23.53330583 65.6516984 21.77437245 60.32311736 20 55 C19.67 75.46 19.34 95.92 19 117 C5 119 5 119 0 119 C0 79.73 0 40.46 0 0 Z " fill="#E40813" transform="translate(11,9)"/>
<path d="M0 0 C6.6 0 13.2 0 20 0 C24.5 9 24.5 9 26.140625 13.375 C26.48867188 14.29667969 26.83671875 15.21835937 27.1953125 16.16796875 C27.54335938 17.10253906 27.89140625 18.03710938 28.25 19 C28.61351562 19.96550781 28.97703125 20.93101563 29.3515625 21.92578125 C30.23822626 24.28244018 31.12094372 26.64049524 32 29 C33.66838922 26.49741617 34.84959107 24.27072324 36.05859375 21.54296875 C36.44466797 20.67736328 36.83074219 19.81175781 37.22851562 18.91992188 C37.82696289 17.56737305 37.82696289 17.56737305 38.4375 16.1875 C39.22666594 14.40962371 40.01700321 12.63226682 40.80859375 10.85546875 C41.15720459 10.06809326 41.50581543 9.28071777 41.86499023 8.46948242 C43.17700049 5.61489352 44.59500543 2.80998914 46 0 C52.6 0 59.2 0 66 0 C65.26730753 3.66346236 64.65482754 6.11867811 63.18994141 9.40380859 C62.81930573 10.24172943 62.44867004 11.07965027 62.06680298 11.94296265 C61.66577362 12.83576935 61.26474426 13.72857605 60.8515625 14.6484375 C60.43836761 15.57919098 60.02517273 16.50994446 59.59945679 17.46890259 C58.27939074 20.43974348 56.95237437 23.40741829 55.625 26.375 C54.30636954 29.33613507 52.98914399 32.29789244 51.67196655 35.25967407 C50.85286745 37.10002894 50.03263312 38.9398791 49.21109009 40.77914429 C48.47176677 42.43499228 47.73445521 44.09174059 46.9995575 45.7495575 C46.35711321 47.19598147 45.70868357 48.63976984 45.05281067 50.08015442 C42.7624724 55.19863055 43.11737648 57.45061962 44.91015625 62.62890625 C45.29042969 63.59699219 45.67070312 64.56507812 46.0625 65.5625 C46.51238281 66.71105469 46.96226562 67.85960938 47.42578125 69.04296875 C49.19106316 73.49075356 50.97060495 77.93284708 52.75 82.375 C54.16791044 85.91617038 55.58438674 89.45791069 57 93 C57.40927734 94.02270996 57.81855469 95.04541992 58.24023438 96.09912109 C59.49902949 99.25141008 60.75033746 102.40658098 62 105.5625 C62.39799805 106.55620605 62.79599609 107.54991211 63.20605469 108.57373047 C63.75374512 109.96229248 63.75374512 109.96229248 64.3125 111.37890625 C64.63863281 112.1994751 64.96476562 113.02004395 65.30078125 113.86547852 C66 116 66 116 66 119 C64.1873655 118.85584802 62.37489978 118.70957364 60.5625 118.5625 C59.04849609 118.44068359 59.04849609 118.44068359 57.50390625 118.31640625 C53.32834297 117.9393487 49.16517109 117.47683866 45 117 C44.41714233 115.50835327 44.41714233 115.50835327 43.82250977 113.98657227 C42.38456018 110.30861346 40.94317589 106.63200898 39.50073242 102.95581055 C38.87609089 101.36243014 38.2523902 99.76868058 37.62963867 98.17456055 C36.73601526 95.88753866 35.83905237 93.60185172 34.94140625 91.31640625 C34.6622084 90.59973282 34.38301056 89.88305939 34.09535217 89.14466858 C32.96211376 85.82381287 32.96211376 85.82381287 31 83 C26.71 92.9 22.42 102.8 18 113 C10.46174348 113 5.04759474 112.6108788 -2 111 C0.85755442 102.7049516 4.25670284 94.73835264 7.875 86.75 C8.94034068 84.36396762 10.00415526 81.97725325 11.06640625 79.58984375 C13.89634424 73.23082784 13.89634424 73.23082784 15.15576172 70.42626953 C16.06105439 68.3961252 16.94195019 66.35772183 17.8125 64.3125 C18.50279297 62.72888672 18.50279297 62.72888672 19.20703125 61.11328125 C21.27897096 52.97862142 17.59731017 45.83842294 14.5 38.4375 C13.5955737 36.22688165 12.69194739 34.01593586 11.7890625 31.8046875 C11.32790039 30.68288086 10.86673828 29.56107422 10.39160156 28.40527344 C8.17283989 22.97592469 6.01891466 17.52175108 3.875 12.0625 C3.48505859 11.08015381 3.09511719 10.09780762 2.69335938 9.08569336 C2.33822266 8.18214111 1.98308594 7.27858887 1.6171875 6.34765625 C1.30378418 5.55367432 0.99038086 4.75969238 0.66748047 3.94165039 C0 2 0 2 0 0 Z " fill="#E10B14" transform="translate(392,9)"/>
<path d="M0 0 C17.16 0 34.32 0 52 0 C52 6.27 52 12.54 52 19 C41.11 19 30.22 19 19 19 C19 26.92 19 34.84 19 43 C27.25 43 35.5 43 44 43 C44 49.27 44 55.54 44 62 C35.42 62 26.84 62 18 62 C18 71.24 18 80.48 18 90 C26.57065924 89.34471213 26.57065924 89.34471213 35.14086914 88.68359375 C36.21973389 88.60238281 37.29859863 88.52117187 38.41015625 88.4375 C39.50465088 88.35371094 40.59914551 88.26992187 41.72680664 88.18359375 C45.14637629 87.99178974 48.57505542 88 52 88 C52 94.27 52 100.54 52 107 C49.67066406 107.13277344 47.34132812 107.26554687 44.94140625 107.40234375 C42.62101031 107.53471336 40.30061734 107.66713469 37.98022461 107.79956055 C36.39884746 107.88978352 34.81746737 107.9799549 33.23608398 108.07006836 C30.92951647 108.20151554 28.62296053 108.33316451 26.31640625 108.46484375 C25.63856583 108.50343002 24.9607254 108.5420163 24.26234436 108.58177185 C16.17425301 109.04392354 8.08734482 109.52427383 0 110 C0 73.7 0 37.4 0 0 Z " fill="#E40912" transform="translate(91,9)"/>
<path d="M0 0 C17.49 0 34.98 0 53 0 C53 5.94 53 11.88 53 18 C41.78 18 30.56 18 19 18 C19 26.25 19 34.5 19 43 C27.58 43 36.16 43 45 43 C45 48.94 45 54.88 45 61 C36.42 61 27.84 61 19 61 C19 75.19 19 89.38 19 104 C12.73 104 6.46 104 0 104 C0 69.68 0 35.36 0 0 Z " fill="#D40916" transform="translate(225,9)"/>
<path d="M0 0 C19.14 0 38.28 0 58 0 C58 5.94 58 11.88 58 18 C51.73 18 45.46 18 39 18 C39 46.38 39 74.76 39 104 C32.73 104 26.46 104 20 104 C20 75.62 20 47.24 20 18 C13.4 18 6.8 18 0 18 C0 12.06 0 6.12 0 0 Z " fill="#DD0F18" transform="translate(155,9)"/>
<path d="M0 0 C6.27 0 12.54 0 19 0 C19 28.71 19 57.42 19 87 C22.63 87 26.26 87 30 87 C32.79304107 87.11658342 35.58520793 87.25936986 38.375 87.4375 C39.04660156 87.47681641 39.71820313 87.51613281 40.41015625 87.55664062 C44.06250376 87.78984552 47.38848053 88.27769611 51 89 C51 94.94 51 100.88 51 107 C33.98693313 107 16.98955191 105.89418694 0 105 C0 70.35 0 35.7 0 0 Z " fill="#E30A14" transform="translate(290,9)"/>
<path d="M0 0 C4.95 0 9.9 0 15 0 C15 35.97 15 71.94 15 109 C-1 110 -1 110 -3 109 C-3 107.35 -3 105.7 -3 104 C-4.32 104 -5.64 104 -7 104 C-10.15431885 96.67872118 -12.53859469 90.16525409 -12.76171875 82.14453125 C-12.79776718 79.78576946 -12.79776718 79.78576946 -15 78 C-15.046875 75.87109375 -15.046875 75.87109375 -14.75 73.4375 C-14.66234375 72.63183594 -14.5746875 71.82617188 -14.484375 70.99609375 C-14.32453125 70.33738281 -14.1646875 69.67867188 -14 69 C-13.01 68.505 -13.01 68.505 -12 68 C-11.09656316 66.11736119 -11.09656316 66.11736119 -10.375 63.9375 C-9.98441406 62.83728516 -9.98441406 62.83728516 -9.5859375 61.71484375 C-9.39257812 61.14894531 -9.19921875 60.58304688 -9 60 C-8.01 60 -7.02 60 -6 60 C-4.74335022 62.90600261 -4 64.79604584 -4 68 C-3.01 68 -2.02 68 -1 68 C-0.67 45.56 -0.34 23.12 0 0 Z " fill="#E30912" transform="translate(56,11)"/>
<path d="M0 0 C6.27 0 12.54 0 19 0 C19 36.3 19 72.6 19 110 C12.73 109.67 6.46 109.34 0 109 C0 73.03 0 37.06 0 0 Z " fill="#E10B14" transform="translate(357,9)"/>
<path d="M0 0 C17.16 0 34.32 0 52 0 C52 6.27 52 12.54 52 19 C41.11 19 30.22 19 19 19 C19 26.92 19 34.84 19 43 C27.25 43 35.5 43 44 43 C44 49.27 44 55.54 44 62 C35.42 62 26.84 62 18 62 C18 71.24 18 80.48 18 90 C26.57065924 89.34471213 26.57065924 89.34471213 35.14086914 88.68359375 C36.21973389 88.60238281 37.29859863 88.52117187 38.41015625 88.4375 C39.50465088 88.35371094 40.59914551 88.26992187 41.72680664 88.18359375 C45.14637629 87.99178974 48.57505542 88 52 88 C52 94.27 52 100.54 52 107 C41.62962654 107.79772104 31.39806071 108.12297312 21 108 C21 107.34 21 106.68 21 106 C24.20782086 105.04623433 27.08187396 104.88378819 30.421875 104.90234375 C31.95908203 104.90717773 31.95908203 104.90717773 33.52734375 104.91210938 C34.59082031 104.92048828 35.65429688 104.92886719 36.75 104.9375 C37.82894531 104.94201172 38.90789062 104.94652344 40.01953125 104.95117188 C42.67974383 104.96294273 45.33984365 104.97938601 48 105 C48 104.34 48 103.68 48 103 C47.34 103 46.68 103 46 103 C46 102.34 46 101.68 46 101 C47.32 101 48.64 101 50 101 C50 99.68 50 98.36 50 97 C48.35 97 46.7 97 45 97 C45 96.34 45 95.68 45 95 C44.34 95 43.68 95 43 95 C43 94.34 43 93.68 43 93 C40.16681141 92.83049299 37.33349012 92.66432466 34.5 92.5 C33.70851562 92.45230469 32.91703125 92.40460938 32.1015625 92.35546875 C31.31523438 92.31035156 30.52890625 92.26523438 29.71875 92.21875 C29.00654297 92.17685547 28.29433594 92.13496094 27.56054688 92.09179688 C24.04249167 91.96567285 20.52031528 92 17 92 C16.505 80.615 16.505 80.615 16 69 C15.01 69.99 15.01 69.99 14 71 C14.33 71.33 14.66 71.66 15 72 C15.23653523 74.52596259 15.42173692 77.03107207 15.5625 79.5625 C15.60568359 80.27341797 15.64886719 80.98433594 15.69335938 81.71679688 C15.79971777 83.47761912 15.90038846 85.2387832 16 87 C14.35 87 12.7 87 11 87 C11 81.72 11 76.44 11 71 C9.68 71 8.36 71 7 71 C7 77.6 7 84.2 7 91 C6.34 91 5.68 91 5 91 C5 84.4 5 77.8 5 71 C4.34 71 3.68 71 3 71 C3.33 81.89 3.66 92.78 4 104 C3.01 104.495 3.01 104.495 2 105 C2 72 2 39 2 5 C2.66 5.33 3.32 5.66 4 6 C4 21.18 4 36.36 4 52 C5.485 51.505 5.485 51.505 7 51 C7 47.04 7 43.08 7 39 C7.99 38.505 7.99 38.505 9 38 C9.31961208 34.47056947 9.38017776 30.96038442 9.4609375 27.41796875 C10.07904772 23.49879163 11.01254439 22.47416691 14 20 C14.33 19.34 14.66 18.68 15 18 C14.34 17.67 13.68 17.34 13 17 C13.99 17 14.98 17 16 17 C16.33 16.34 16.66 15.68 17 15 C17.33 15.99 17.66 16.98 18 18 C28.89 18 39.78 18 51 18 C50.505 10.575 50.505 10.575 50 3 C33.83 3 17.66 3 1 3 C1 37.32 1 71.64 1 107 C0.67 107 0.34 107 0 107 C0 71.69 0 36.38 0 0 Z " fill="#E20A14" transform="translate(91,9)"/>
<path d="M0 0 C13.2 0 26.4 0 40 0 C40 3.63 40 7.26 40 11 C30.76 11.33 21.52 11.66 12 12 C11.34 14.31 10.68 16.62 10 19 C10.33 19.33 10.66 19.66 11 20 C11.08713831 21.70772358 11.10700007 23.41898649 11.09765625 25.12890625 C11.09443359 26.16337891 11.09121094 27.19785156 11.08789062 28.26367188 C11.07951172 29.35228516 11.07113281 30.44089844 11.0625 31.5625 C11.05798828 32.65498047 11.05347656 33.74746094 11.04882812 34.87304688 C11.0369984 37.58205432 11.01906231 40.2910338 11 43 C15.95 43 20.9 43 26 43 C25.67 45.31 25.34 47.62 25 50 C22.525 50.495 22.525 50.495 20 51 C20 49.35 20 47.7 20 46 C17.36 46 14.72 46 12 46 C12 47.65 12 49.3 12 51 C10.35 51 8.7 51 7 51 C6.67 67.17 6.34 83.34 6 100 C3.36 100 0.72 100 -2 100 C-2 68.65 -2 37.3 -2 5 C-1.34 5 -0.68 5 0 5 C0 3.35 0 1.7 0 0 Z " fill="#E50813" transform="translate(232,11)"/>
<path d="M0 0 C17.16 0 34.32 0 52 0 C52 6.27 52 12.54 52 19 C41.11 19 30.22 19 19 19 C19 26.92 19 34.84 19 43 C27.25 43 35.5 43 44 43 C44 43.33 44 43.66 44 44 C35.09 44 26.18 44 17 44 C16.67 44.66 16.34 45.32 16 46 C15.566875 45.21625 15.13375 44.4325 14.6875 43.625 C13.10779753 40.78301625 13.10779753 40.78301625 10 39 C10.33 39.886875 10.66 40.77375 11 41.6875 C11.94041617 44.80262856 12.50455921 46.80445835 12 50 C11.29875 50.5775 10.5975 51.155 9.875 51.75 C7.73931759 53.79638076 7.73931759 53.79638076 8.109375 56.21484375 C8.60097823 58.57230468 9.10206552 60.76423384 10 63 C10.66 63.33 11.32 63.66 12 64 C12.70491267 66.32206525 13.37212429 68.65593068 14 71 C14.33 71.33 14.66 71.66 15 72 C15.23653523 74.52596259 15.42173692 77.03107207 15.5625 79.5625 C15.60568359 80.27341797 15.64886719 80.98433594 15.69335938 81.71679688 C15.79971777 83.47761912 15.90038846 85.2387832 16 87 C14.35 87 12.7 87 11 87 C11 81.72 11 76.44 11 71 C9.68 71 8.36 71 7 71 C7 77.6 7 84.2 7 91 C6.34 91 5.68 91 5 91 C5 84.4 5 77.8 5 71 C4.34 71 3.68 71 3 71 C3.33 81.89 3.66 92.78 4 104 C3.01 104.495 3.01 104.495 2 105 C2 72 2 39 2 5 C2.66 5.33 3.32 5.66 4 6 C4 21.18 4 36.36 4 52 C5.485 51.505 5.485 51.505 7 51 C7 47.04 7 43.08 7 39 C7.99 38.505 7.99 38.505 9 38 C9.31961208 34.47056947 9.38017776 30.96038442 9.4609375 27.41796875 C10.07904772 23.49879163 11.01254439 22.47416691 14 20 C14.33 19.34 14.66 18.68 15 18 C14.34 17.67 13.68 17.34 13 17 C13.99 17 14.98 17 16 17 C16.33 16.34 16.66 15.68 17 15 C17.33 15.99 17.66 16.98 18 18 C28.89 18 39.78 18 51 18 C50.505 10.575 50.505 10.575 50 3 C33.83 3 17.66 3 1 3 C1 37.32 1 71.64 1 107 C0.67 107 0.34 107 0 107 C0 71.69 0 36.38 0 0 Z " fill="#E70716" transform="translate(91,9)"/>
<path d="M0 0 C2.31 0 4.62 0 7 0 C7 31.68 7 63.36 7 96 C3.04 95.505 3.04 95.505 -1 95 C-1.02312166 82.76119671 -1.04091418 70.52239857 -1.05181217 58.28357792 C-1.05704139 52.60123488 -1.06413973 46.91890673 -1.07543945 41.23657227 C-1.08626696 35.75770864 -1.09227654 30.27885938 -1.09487724 24.79998589 C-1.09673174 22.70470389 -1.10035282 20.60942272 -1.10573006 18.5141468 C-1.11293868 15.59022416 -1.11399102 12.66636167 -1.11352539 9.74243164 C-1.11712067 8.8670575 -1.12071594 7.99168335 -1.12442017 7.08978271 C-1.11405216 1.11405216 -1.11405216 1.11405216 0 0 Z " fill="#E60815" transform="translate(365,16)"/>
<path d="M0 0 C5.94 0 11.88 0 18 0 C18 36.96 18 73.92 18 112 C4 114 4 114 -2 114 C-2.99 111.36 -3.98 108.72 -5 106 C-4.01 105.505 -4.01 105.505 -3 105 C-2.34 105.33 -1.68 105.66 -1 106 C-1 107.65 -1 109.3 -1 111 C4.94 111 10.88 111 17 111 C17 75.03 17 39.06 17 2 C12.05 2 7.1 2 2 2 C2.00785522 4.98329346 2.00785522 4.98329346 2.01586914 8.02685547 C2.03197634 14.58869041 2.04347666 21.15052068 2.05181217 27.71236992 C2.05703689 31.69188412 2.0641271 35.67137699 2.07543945 39.65087891 C2.08628291 43.48933243 2.09227994 47.3277654 2.09487724 51.16623306 C2.09672885 52.63269499 2.10034444 54.09915577 2.10573006 55.56560898 C2.11295983 57.61521612 2.11399012 59.66473768 2.11352539 61.71435547 C2.115746 62.88239716 2.11796661 64.05043884 2.12025452 65.25387573 C2 68 2 68 1 70 C0.01 70 -0.98 70 -2 70 C-3.25664978 67.09399739 -4 65.20395416 -4 62 C-7.08759559 62.64067976 -7.08759559 62.64067976 -7.94921875 64.84765625 C-8.19285156 65.57855469 -8.43648437 66.30945313 -8.6875 67.0625 C-8.93886719 67.79597656 -9.19023438 68.52945313 -9.44921875 69.28515625 C-9.63097656 69.85105469 -9.81273437 70.41695313 -10 71 C-10.66 71 -11.32 71 -12 71 C-12.05399736 72.45792884 -12.09279177 73.91642712 -12.125 75.375 C-12.14820313 76.18710938 -12.17140625 76.99921875 -12.1953125 77.8359375 C-12.21370051 80.21342243 -12.21370051 80.21342243 -10 82 C-9.875 85.625 -9.875 85.625 -10 89 C-12.52681862 86.47318138 -13.14969293 84.22421552 -14.34765625 80.85546875 C-14.78787109 79.62119141 -15.22808594 78.38691406 -15.68164062 77.11523438 C-15.90827393 76.47030029 -16.13490723 75.82536621 -16.3684082 75.16088867 C-17.05703756 73.20303038 -17.75530297 71.24882032 -18.45507812 69.29492188 C-22.16474179 58.83051087 -22.16474179 58.83051087 -23 54 C-22.34 54 -21.68 54 -21 54 C-20.01 56.64 -19.02 59.28 -18 62 C-17.34 62 -16.68 62 -16 62 C-15.731875 61.030625 -15.46375 60.06125 -15.1875 59.0625 C-14.795625 58.051875 -14.40375 57.04125 -14 56 C-12.515 55.505 -12.515 55.505 -11 55 C-11.33 53.68 -11.66 52.36 -12 51 C-11.34 51 -10.68 51 -10 51 C-10.25561323 48.6568787 -10.59270772 46.32156597 -11 44 C-11.66 43.67 -12.32 43.34 -13 43 C-15.39653214 38.06169135 -16.15901407 32.71975513 -17.21875 27.375 C-17.88178276 24.05531974 -17.88178276 24.05531974 -19.15625 21.3125 C-20.12753501 18.65045961 -19.78743563 17.64333515 -19 15 C-18.68361572 15.87398437 -18.68361572 15.87398437 -18.36083984 16.765625 C-14.44725536 27.56992119 -10.52281226 38.36675614 -6.421875 49.1015625 C-4.50331761 54.36178304 -2.77061522 59.68815434 -1 65 C-0.67 43.55 -0.34 22.1 0 0 Z " fill="#E50915" transform="translate(54,9)"/>
<path d="M0 0 C6.27 0 12.54 0 19 0 C19 36.3 19 72.6 19 110 C12.73 109.67 6.46 109.34 0 109 C0 73.03 0 37.06 0 0 Z M4 2 C1.83630327 7.28678805 1.71541615 11.92622369 1.74121094 17.5378418 C1.7377063 18.47999542 1.73420166 19.42214905 1.73059082 20.39285278 C1.72181547 23.49505054 1.72760645 26.59701883 1.734375 29.69921875 C1.73302748 31.85822086 1.73108623 34.01722268 1.72857666 36.17622375 C1.72563137 40.69441627 1.72990522 45.21252959 1.73925781 49.73071289 C1.75067247 55.52813587 1.74407633 61.32537408 1.73211288 67.12279034 C1.72489574 71.57765605 1.7271812 76.03247773 1.73236847 80.48734474 C1.7337043 82.62562901 1.73205956 84.76391725 1.72740936 86.90219688 C1.72234433 89.88502016 1.73005321 92.86754111 1.74121094 95.8503418 C1.73716248 96.73715134 1.73311401 97.62396088 1.72894287 98.53764343 C1.73458252 99.34926941 1.74022217 100.16089539 1.74603271 100.99711609 C1.74678677 101.70186915 1.74754082 102.40662222 1.74831772 103.13273144 C1.90608055 105.33425474 1.90608055 105.33425474 4 108 C6.36704913 108.40238845 6.36704913 108.40238845 9 108.25 C9.886875 108.23453125 10.77375 108.2190625 11.6875 108.203125 C14.02519411 108.14041756 14.02519411 108.14041756 16 107 C16 72.35 16 37.7 16 2 C12.04 2 8.08 2 4 2 Z " fill="#D2232F" transform="translate(357,9)"/>
<path d="M0 0 C0.89740402 -0.00315216 1.79480804 -0.00630432 2.71940613 -0.009552 C4.16021294 -0.00651566 4.16021294 -0.00651566 5.63012695 -0.00341797 C7.11631279 -0.00485306 7.11631279 -0.00485306 8.63252258 -0.00631714 C10.7229519 -0.00699686 12.81338335 -0.00515709 14.90380859 -0.00097656 C18.1166655 0.00439162 21.32938368 -0.00093733 24.54223633 -0.00732422 C26.57153351 -0.00666373 28.60083061 -0.00538319 30.63012695 -0.00341797 C31.59673752 -0.0054422 32.56334808 -0.00746643 33.55924988 -0.009552 C34.89117119 -0.00482376 34.89117119 -0.00482376 36.25 0 C37.03513474 0.00079559 37.82026947 0.00159119 38.62919617 0.00241089 C40.4309082 0.12939453 40.4309082 0.12939453 41.4309082 1.12939453 C41.4309082 6.07939453 41.4309082 11.02939453 41.4309082 16.12939453 C30.5409082 16.12939453 19.6509082 16.12939453 8.4309082 16.12939453 C8.4309082 24.04939453 8.4309082 31.96939453 8.4309082 40.12939453 C8.1009082 40.12939453 7.7709082 40.12939453 7.4309082 40.12939453 C7.4309082 31.87939453 7.4309082 23.62939453 7.4309082 15.12939453 C8.7509082 14.79939453 10.0709082 14.46939453 11.4309082 14.12939453 C11.4309082 13.13939453 11.4309082 12.14939453 11.4309082 11.12939453 C17.3709082 10.79939453 23.3109082 10.46939453 29.4309082 10.12939453 C29.4309082 8.47939453 29.4309082 6.82939453 29.4309082 5.12939453 C28.7709082 5.12939453 28.1109082 5.12939453 27.4309082 5.12939453 C27.4309082 4.46939453 27.4309082 3.80939453 27.4309082 3.12939453 C15.8809082 3.12939453 4.3309082 3.12939453 -7.5690918 3.12939453 C-7.5690918 36.45939453 -7.5690918 69.78939453 -7.5690918 104.12939453 C-5.5890918 103.63439453 -5.5890918 103.63439453 -3.5690918 103.12939453 C-2.23309259 103.4518771 -0.90015802 103.78712036 0.4309082 104.12939453 C2.76391753 104.16827802 5.09800621 104.17425803 7.4309082 104.12939453 C7.4309082 105.11939453 7.4309082 106.10939453 7.4309082 107.12939453 C-0.9840918 107.62439453 -0.9840918 107.62439453 -9.5690918 108.12939453 C-9.2390918 72.81939453 -8.9090918 37.50939453 -8.5690918 1.12939453 C-5.36600014 0.32862162 -3.20814424 0.00324103 0 0 Z " fill="#D80A16" transform="translate(100.569091796875,10.87060546875)"/>
<path d="M0 0 C6.27 0 12.54 0 19 0 C19 28.71 19 57.42 19 87 C22.63 87 26.26 87 30 87 C30 87.33 30 87.66 30 88 C28.02090602 88.02686553 26.04171029 88.04633375 24.0625 88.0625 C22.96035156 88.07410156 21.85820312 88.08570312 20.72265625 88.09765625 C18 88 18 88 17 87 C16.87490166 84.35348657 16.81394005 81.73177781 16.79467773 79.08374023 C16.78477814 78.25454071 16.77487854 77.42534119 16.76467896 76.5710144 C16.7329688 73.81690371 16.70826912 71.06277574 16.68359375 68.30859375 C16.66303243 66.40429727 16.64203618 64.50000545 16.62062073 62.59571838 C16.56531515 57.57337194 16.51594344 52.55098373 16.46777344 47.52856445 C16.41762021 42.40767685 16.36190197 37.2868502 16.30664062 32.16601562 C16.19895533 22.1107291 16.09753355 12.05538975 16 2 C11.38 2 6.76 2 2 2 C2 35 2 68 2 102 C10.16772805 102.83137885 10.16772805 102.83137885 18.3125 103.28125 C19.95605469 103.33732422 19.95605469 103.33732422 21.6328125 103.39453125 C22.74398438 103.42933594 23.85515625 103.46414062 25 103.5 C32.70706088 103.74140446 40.33795764 104.10926596 48 105 C48 104.34 48 103.68 48 103 C47.34 103 46.68 103 46 103 C46 102.34 46 101.68 46 101 C46.99 101 47.98 101 49 101 C48.690625 99.7625 48.38125 98.525 48.0625 97.25 C47.375 94.5 46.6875 91.75 46 89 C47.65 89 49.3 89 51 89 C51 94.94 51 100.88 51 107 C33.98693313 107 16.98955191 105.89418694 0 105 C0 70.35 0 35.7 0 0 Z " fill="#BC252B" transform="translate(290,9)"/>
<path d="M0 0 C0.88816406 0.00193359 1.77632813 0.00386719 2.69140625 0.00585938 C3.61566406 0.01810547 4.53992188 0.03035156 5.4921875 0.04296875 C6.42417969 0.04361328 7.35617187 0.04425781 8.31640625 0.04492188 C15.22690591 0.09018716 15.22690591 0.09018716 16.3671875 1.23046875 C16.46273149 2.65993346 16.48907188 4.0940954 16.48744202 5.52674866 C16.48881668 6.45368027 16.49019135 7.38061188 16.49160767 8.33563232 C16.48801239 9.36061829 16.48441711 10.38560425 16.48071289 11.44165039 C16.48085892 12.51468918 16.48100494 13.58772797 16.4811554 14.69328308 C16.48045574 18.25908391 16.47266088 21.82483324 16.46484375 25.390625 C16.46297976 27.85542268 16.46155577 30.32022074 16.46055603 32.78501892 C16.45672937 39.2870078 16.44689782 45.7889745 16.43585205 52.29095459 C16.42510498 58.91987692 16.42105909 65.54880568 16.41601562 72.17773438 C16.40527569 85.19532199 16.38838847 98.21289419 16.3671875 111.23046875 C16.0371875 111.23046875 15.7071875 111.23046875 15.3671875 111.23046875 C15.3671875 75.26046875 15.3671875 39.29046875 15.3671875 2.23046875 C9.0971875 2.23046875 2.8271875 2.23046875 -3.6328125 2.23046875 C-3.6328125 37.87046875 -3.6328125 73.51046875 -3.6328125 110.23046875 C-4.2928125 110.23046875 -4.9528125 110.23046875 -5.6328125 110.23046875 C-5.6328125 108.58046875 -5.6328125 106.93046875 -5.6328125 105.23046875 C-6.2928125 105.23046875 -6.9528125 105.23046875 -7.6328125 105.23046875 C-7.7633779 92.63505329 -7.89377753 80.03963612 -8.02396393 67.44421673 C-8.0844161 61.5960297 -8.14492596 55.74784328 -8.20556641 49.8996582 C-8.26405608 44.25869191 -8.32239585 38.61772408 -8.38063049 32.97675514 C-8.40290457 30.82172401 -8.4252332 28.66669344 -8.44761658 26.51166344 C-8.47889283 23.49955768 -8.50997733 20.48745001 -8.54101562 17.4753418 C-8.55036636 16.57910599 -8.5597171 15.68287018 -8.5693512 14.75947571 C-8.57776535 13.93917877 -8.5861795 13.11888184 -8.59484863 12.27372742 C-8.60222298 11.56118144 -8.60959732 10.84863546 -8.61719513 10.11449718 C-8.64178995 7.14745919 -8.58616973 5.09054045 -7.6328125 2.23046875 C-4.44830035 0.10746065 -3.64807887 -0.01837369 0 0 Z " fill="#FDFBF7" transform="translate(360.6328125,6.76953125)"/>
<path d="M0 0 C0.66 0 1.32 0 2 0 C1.91262287 2.56406672 1.80570881 5.12482216 1.6875 7.6875 C1.66494141 8.40873047 1.64238281 9.12996094 1.61914062 9.87304688 C1.39602015 14.31517269 0.87662388 17.39889306 -2 21 C-2.66 21 -3.32 21 -4 21 C-3.938125 21.9075 -3.87625 22.815 -3.8125 23.75 C-4.02409307 27.41761316 -4.76967045 28.23439136 -7 31 C-7.71433121 33.64934822 -7.71433121 33.64934822 -8 36 C-8.66 36 -9.32 36 -10 36 C-10 37.32 -10 38.64 -10 40 C-11.7290774 40.02725341 -13.45828176 40.04650987 -15.1875 40.0625 C-16.15042969 40.07410156 -17.11335938 40.08570313 -18.10546875 40.09765625 C-20.85576513 40.00486622 -23.32479591 39.62111685 -26 39 C-25.25 31.375 -25.25 31.375 -23 28 C-22.00351476 25.92634245 -21.04590252 23.83831084 -20.09765625 21.7421875 C-19 20 -19 20 -16 19 C-16.33 17.35 -16.66 15.7 -17 14 C-16.34 14 -15.68 14 -15 14 C-15 12.68 -15 11.36 -15 10 C-14.34 10 -13.68 10 -13 10 C-13 9.01 -13 8.02 -13 7 C-11.35 6.67 -9.7 6.34 -8 6 C-5 12.625 -5 12.625 -5 16 C-4.01 15.67 -3.02 15.34 -2 15 C-1.67 13.02 -1.34 11.04 -1 9 C-2.98 9.99 -2.98 9.99 -5 11 C-6.125 5.25 -6.125 5.25 -5 3 C-3.35 3 -1.7 3 0 3 C0 2.01 0 1.02 0 0 Z " fill="#E30A12" transform="translate(419,80)"/>
<path d="M0 0 C1.32 0 2.64 0 4 0 C4 31.68 4 63.36 4 96 C2.68 96 1.36 96 0 96 C0 64.32 0 32.64 0 0 Z " fill="#E00C0C" transform="translate(298,16)"/>
<path d="M0 0 C6.6 0 13.2 0 20 0 C20 0.99 20 1.98 20 3 C16.7 2.67 13.4 2.34 10 2 C10 2.66 10 3.32 10 4 C9.34 4 8.68 4 8 4 C8 3.34 8 2.68 8 2 C6.35 2 4.7 2 3 2 C3.61758554 3.9606842 4.24431345 5.91849063 4.875 7.875 C5.22304688 8.96554688 5.57109375 10.05609375 5.9296875 11.1796875 C6.81175231 14.08522723 6.81175231 14.08522723 9 16 C9.51539789 17.52353883 9.96568445 19.06960091 10.375 20.625 C11.53888192 24.72209949 13.04212119 28.25236399 15.02734375 32.00390625 C16.41066132 34.8427628 17.33671145 37.7742511 18.2734375 40.78515625 C18.96774524 42.901675 19.80723013 44.89313493 20.6875 46.9375 C22.43059996 51.51543094 22.6337161 56.16071343 22 61 C21.3591889 62.34595073 20.69508629 63.68125921 20 65 C19.83249586 67.66709069 19.83249586 67.66709069 20 70 C21.98 70.33 23.96 70.66 26 71 C26 71.99 26 72.98 26 74 C24.68 74 23.36 74 22 74 C22 75.98 22 77.96 22 80 C23.32 80 24.64 80 26 80 C26 81.98 26 83.96 26 86 C24.02 86.495 24.02 86.495 22 87 C19 80.375 19 80.375 19 77 C16.525 77.495 16.525 77.495 14 78 C14 78.99 14 79.98 14 81 C13.34 81 12.68 81 12 81 C11.15545644 84.37817425 10.89155081 86.67465243 12 90 C11.38640625 90.21398437 10.7728125 90.42796875 10.140625 90.6484375 C7.19315811 92.50942937 6.81543218 94.35260117 5.75 97.625 C5.41484375 98.62789063 5.0796875 99.63078125 4.734375 100.6640625 C4.49203125 101.43492188 4.2496875 102.20578125 4 103 C3.34 102.67 2.68 102.34 2 102 C4.30586092 94.60105908 7.26388357 87.62772641 10.4375 80.5625 C11.86222687 77.37657231 13.28219001 74.18915181 14.68310547 70.99267578 C15.52659702 69.07582012 16.38860215 67.16694067 17.27392578 65.26904297 C20.74666372 57.46247135 19.98599842 52.3616454 17.03125 44.55859375 C16.19662445 42.51447979 15.35239419 40.47426848 14.5 38.4375 C13.5955737 36.22688165 12.69194739 34.01593586 11.7890625 31.8046875 C11.32790039 30.68288086 10.86673828 29.56107422 10.39160156 28.40527344 C8.17283989 22.97592469 6.01891466 17.52175108 3.875 12.0625 C3.48505859 11.08015381 3.09511719 10.09780762 2.69335938 9.08569336 C2.33822266 8.18214111 1.98308594 7.27858887 1.6171875 6.34765625 C1.30378418 5.55367432 0.99038086 4.75969238 0.66748047 3.94165039 C0 2 0 2 0 0 Z " fill="#D70F16" transform="translate(392,9)"/>
<path d="M0 0 C17.49 0 34.98 0 53 0 C53 5.94 53 11.88 53 18 C42.11 18 31.22 18 20 18 C20 17.67 20 17.34 20 17 C29.9 16.67 39.8 16.34 50 16 C50 12.04 50 8.08 50 4 C49.01 4 48.02 4 47 4 C47 3.34 47 2.68 47 2 C33.8 2 20.6 2 7 2 C7 3.65 7 5.3 7 7 C6.34 7 5.68 7 5 7 C5 5.35 5 3.7 5 2 C4.01 2 3.02 2 2 2 C1.67 35.33 1.34 68.66 1 103 C6.94 103 12.88 103 19 103 C19 103.33 19 103.66 19 104 C12.73 104 6.46 104 0 104 C0 69.68 0 35.36 0 0 Z " fill="#C53C47" transform="translate(225,9)"/>
<path d="M0 0 C0.33 0 0.66 0 1 0 C1.02685412 2.31243792 1.04632841 4.6249627 1.0625 6.9375 C1.07410156 8.22527344 1.08570313 9.51304688 1.09765625 10.83984375 C1 14 1 14 0 15 C-2.21687994 15.15873955 -4.43855298 15.25133837 -6.66015625 15.31640625 C-7.32462265 15.33718735 -7.98908905 15.35796844 -8.6736908 15.37937927 C-10.80318543 15.44493658 -12.93280668 15.50378785 -15.0625 15.5625 C-16.50326847 15.60567939 -17.94402399 15.64929349 -19.38476562 15.69335938 C-22.92304903 15.80144527 -26.46142397 15.90047093 -30 16 C-30.33 24.25 -30.66 32.5 -31 41 C-22.42 41 -13.84 41 -5 41 C-5 46.94 -5 52.88 -5 59 C-13.58 59 -22.16 59 -31 59 C-31 58.67 -31 58.34 -31 58 C-23.08 58 -15.16 58 -7 58 C-7 53.38 -7 48.76 -7 44 C-15.25 43.67 -23.5 43.34 -32 43 C-32.4375 31.6875 -32.4375 31.6875 -32.56811523 28.1315918 C-32.60622314 27.20515869 -32.64433105 26.27872559 -32.68359375 25.32421875 C-32.73858032 23.9024231 -32.73858032 23.9024231 -32.79467773 22.4519043 C-32.91430187 19.863829 -32.91430187 19.863829 -34 17 C-33.375 14.375 -33.375 14.375 -32 12 C-28.4134096 10.96565611 -24.97650328 10.88247859 -21.26171875 10.90234375 C-20.19501953 10.90556641 -19.12832031 10.90878906 -18.02929688 10.91210938 C-16.37510742 10.92467773 -16.37510742 10.92467773 -14.6875 10.9375 C-13.56537109 10.94201172 -12.44324219 10.94652344 -11.28710938 10.95117188 C-8.5246849 10.96292687 -5.76237002 10.97935923 -3 11 C-3 8.03 -3 5.06 -3 2 C-2.01 2 -1.02 2 0 2 C0 1.34 0 0.68 0 0 Z " fill="#E00C13" transform="translate(275,11)"/>
<path d="M0 0 C0.99 0 1.98 0 3 0 C3 33 3 66 3 100 C2.01 100 1.02 100 0 100 C0 67 0 34 0 0 Z " fill="#DE0D0C" transform="translate(227,11)"/>
<path d="M0 0 C0.99 0 1.98 0 3 0 C3 31.68 3 63.36 3 96 C2.01 96 1.02 96 0 96 C0 64.32 0 32.64 0 0 Z " fill="#E9071C" transform="translate(295,16)"/>
<path d="M0 0 C6.27 0 12.54 0 19 0 C19.33 2.31 19.66 4.62 20 7 C19.34 7 18.68 7 18 7 C17.67 5.68 17.34 4.36 17 3 C12.38 3 7.76 3 3 3 C2.67 40.95 2.34 78.9 2 118 C2.99 118.33 3.98 118.66 5 119 C3.35 119 1.7 119 0 119 C0 79.73 0 40.46 0 0 Z " fill="#B7333D" transform="translate(11,9)"/>
<path d="M0 0 C0.66 0.33 1.32 0.66 2 1 C2 37.96 2 74.92 2 113 C-11.5 116.375 -11.5 116.375 -17.25 116.1875 C-18.34828125 116.16042969 -19.4465625 116.13335937 -20.578125 116.10546875 C-21.37734375 116.07066406 -22.1765625 116.03585938 -23 116 C-22.67 114.02 -22.34 112.04 -22 110 C-21.34 111.32 -20.68 112.64 -20 114 C-18.83984375 113.7834375 -18.83984375 113.7834375 -17.65625 113.5625 C-16.6146875 113.376875 -15.573125 113.19125 -14.5 113 C-13.4790625 112.814375 -12.458125 112.62875 -11.40625 112.4375 C-8 112 -8 112 0 112 C0 75.04 0 38.08 0 0 Z " fill="#E8B3B4" transform="translate(72,9)"/>
<path d="M0 0 C2.875 -0.125 2.875 -0.125 6 0 C8 2 8 2 8.22705078 4.24658203 C8.21657715 5.15778809 8.20610352 6.06899414 8.1953125 7.0078125 C8.19031738 7.8961377 8.18532227 8.78446289 8.18017578 9.69970703 C8.16196777 10.83005371 8.14375977 11.96040039 8.125 13.125 C8.08375 16.71375 8.0425 20.3025 8 24 C-3.22 23.67 -14.44 23.34 -26 23 C-26 29.93 -26 36.86 -26 44 C-18.08 44 -10.16 44 -2 44 C-2 44.66 -2 45.32 -2 46 C-10.58 46 -19.16 46 -28 46 C-28 37.75 -28 29.5 -28 21 C-16.78 21 -5.56 21 6 21 C6 15.06 6 9.12 6 3 C-11.16 3 -28.32 3 -46 3 C-46 2.67 -46 2.34 -46 2 C-23.23 1.505 -23.23 1.505 0 1 C0 0.67 0 0.34 0 0 Z " fill="#FCC8C7" transform="translate(272,6)"/>
<path d="M0 0 C0.33 0 0.66 0 1 0 C1 8.91 1 17.82 1 27 C9.57065924 26.34471213 9.57065924 26.34471213 18.14086914 25.68359375 C19.75916626 25.56177734 19.75916626 25.56177734 21.41015625 25.4375 C22.50465088 25.35371094 23.59914551 25.26992187 24.72680664 25.18359375 C28.14637629 24.99178974 31.57505542 25 35 25 C35 31.27 35 37.54 35 44 C24.62962654 44.79772104 14.39806071 45.12297312 4 45 C4 44.34 4 43.68 4 43 C7.20782086 42.04623433 10.08187396 41.88378819 13.421875 41.90234375 C14.44667969 41.90556641 15.47148438 41.90878906 16.52734375 41.91210938 C17.59082031 41.92048828 18.65429688 41.92886719 19.75 41.9375 C20.82894531 41.94201172 21.90789062 41.94652344 23.01953125 41.95117188 C25.67974383 41.96294273 28.33984365 41.97938601 31 42 C31 41.34 31 40.68 31 40 C30.34 40 29.68 40 29 40 C29 39.34 29 38.68 29 38 C30.32 38 31.64 38 33 38 C33 36.68 33 35.36 33 34 C31.35 34 29.7 34 28 34 C28 33.34 28 32.68 28 32 C27.34 32 26.68 32 26 32 C26 31.34 26 30.68 26 30 C23.16681141 29.83049299 20.33349012 29.66432466 17.5 29.5 C16.70851563 29.45230469 15.91703125 29.40460938 15.1015625 29.35546875 C13.92207031 29.28779297 13.92207031 29.28779297 12.71875 29.21875 C12.00654297 29.17685547 11.29433594 29.13496094 10.56054688 29.09179688 C7.04249167 28.96567285 3.52031528 29 0 29 C0 19.43 0 9.86 0 0 Z " fill="#E10C0F" transform="translate(108,72)"/>
<path d="M0 0 C6.6 0 13.2 0 20 0 C20 28.38 20 56.76 20 86 C25.94 86 31.88 86 38 86 C38 86.66 38 87.32 38 88 C31.78675502 88.73030908 26.15901243 89.23180249 20 88 C19.67 88.99 19.34 89.98 19 91 C16.46476666 87.19715 16.73304212 84.16808773 16.77294922 79.76489258 C16.77265717 78.92564743 16.77236511 78.08640228 16.77206421 77.22172546 C16.77345829 74.44588913 16.78902317 71.67032073 16.8046875 68.89453125 C16.80841735 66.97067919 16.81126445 65.04682522 16.81326294 63.12297058 C16.82090158 58.05781821 16.84055209 52.99278042 16.8626709 47.92767334 C16.88312432 42.7597407 16.89226358 37.59178956 16.90234375 32.42382812 C16.92379774 22.28250172 16.95793651 12.14126039 17 2 C15.94039062 2.08378906 14.88078125 2.16757812 13.7890625 2.25390625 C12.40106375 2.35706832 11.01304165 2.45991663 9.625 2.5625 C8.92632812 2.61857422 8.22765625 2.67464844 7.5078125 2.73242188 C2.2265625 3.11328125 2.2265625 3.11328125 0 2 C0 1.34 0 0.68 0 0 Z " fill="#FBC5C6" transform="translate(155,27)"/>
<path d="M0 0 C5.94 0 11.88 0 18 0 C18 36.96 18 73.92 18 112 C4 114 4 114 -2 114 C-2.99 111.36 -3.98 108.72 -5 106 C-4.01 105.505 -4.01 105.505 -3 105 C-2.34 105.33 -1.68 105.66 -1 106 C-1 107.65 -1 109.3 -1 111 C4.94 111 10.88 111 17 111 C17 75.03 17 39.06 17 2 C12.05 2 7.1 2 2 2 C1.67 21.8 1.34 41.6 1 62 C0.67 62 0.34 62 0 62 C0 41.54 0 21.08 0 0 Z " fill="#B51420" transform="translate(54,9)"/>
<path d="M0 0 C0.89460938 -0.00128906 1.78921875 -0.00257813 2.7109375 -0.00390625 C3.65195312 -0.00003906 4.59296875 0.00382813 5.5625 0.0078125 C6.97402344 0.00201172 6.97402344 0.00201172 8.4140625 -0.00390625 C9.75597656 -0.00197266 9.75597656 -0.00197266 11.125 0 C11.95128906 0.00112793 12.77757812 0.00225586 13.62890625 0.00341797 C15.5625 0.1328125 15.5625 0.1328125 16.5625 1.1328125 C16.65804399 2.56227721 16.68438438 3.99643915 16.68275452 5.42909241 C16.68412918 6.35602402 16.68550385 7.28295563 16.68692017 8.23797607 C16.68332489 9.26296204 16.67972961 10.287948 16.67602539 11.34399414 C16.67617142 12.41703293 16.67631744 13.49007172 16.6764679 14.59562683 C16.67576824 18.16142766 16.66797338 21.72717699 16.66015625 25.29296875 C16.65829226 27.75776643 16.65686827 30.22256449 16.65586853 32.68736267 C16.65204187 39.18935155 16.64221032 45.69131825 16.63116455 52.19329834 C16.62041748 58.82222067 16.61637159 65.45114943 16.61132812 72.08007812 C16.60058819 85.09766574 16.58370097 98.11523794 16.5625 111.1328125 C16.2325 111.1328125 15.9025 111.1328125 15.5625 111.1328125 C15.5625 75.1628125 15.5625 39.1928125 15.5625 2.1328125 C9.2925 2.1328125 3.0225 2.1328125 -3.4375 2.1328125 C-3.4375 37.7728125 -3.4375 73.4128125 -3.4375 110.1328125 C-3.7675 110.1328125 -4.0975 110.1328125 -4.4375 110.1328125 C-4.59126905 95.93830826 -4.73923879 81.74375382 -4.8804636 67.549119 C-4.94620334 60.95874003 -5.01382936 54.36839143 -5.08569336 47.77807617 C-5.15491384 41.42393254 -5.21927473 35.06975693 -5.28019524 28.71552849 C-5.30436265 26.28530003 -5.33031289 23.85508866 -5.35803413 21.42489815 C-5.39641614 18.03402507 -5.42858885 14.64314785 -5.45922852 11.25219727 C-5.47217453 10.23656204 -5.48512054 9.22092682 -5.49845886 8.17451477 C-5.50549835 7.25599731 -5.51253784 6.33747986 -5.51979065 5.39112854 C-5.52808679 4.58824685 -5.53638292 3.78536516 -5.54493046 2.95815372 C-5.33066322 -0.68244158 -3.10901109 0.00424397 0 0 Z " fill="#FED1D0" transform="translate(360.4375,6.8671875)"/>
<path d="M0 0 C6.78099776 -0.02532087 13.56198337 -0.04285457 20.34301758 -0.05493164 C22.6506394 -0.05996551 24.95825803 -0.06679305 27.26586914 -0.07543945 C30.57959786 -0.08754635 33.89328448 -0.09323773 37.20703125 -0.09765625 C38.2414888 -0.10281754 39.27594635 -0.10797882 40.3417511 -0.11329651 C41.3025206 -0.11337204 42.2632901 -0.11344757 43.25317383 -0.11352539 C44.09922684 -0.115746 44.94527985 -0.11796661 45.81697083 -0.12025452 C48 0 48 0 51 1 C51 4.63 51 8.26 51 12 C49.02 12.33 47.04 12.66 45 13 C45 11.68 45 10.36 45 9 C44.01 8.67 43.02 8.34 42 8 C42.66 8 43.32 8 44 8 C44 6.35 44 4.7 44 3 C43.01 3 42.02 3 41 3 C40.67 4.32 40.34 5.64 40 7 C38.68 7 37.36 7 36 7 C36 5.68 36 4.36 36 3 C23.625 3.495 23.625 3.495 11 4 C10.67 4.99 10.34 5.98 10 7 C8.35 6.67 6.7 6.34 5 6 C5 5.01 5 4.02 5 3 C2.525 2.01 2.525 2.01 0 1 C0 0.67 0 0.34 0 0 Z " fill="#E00A0C" transform="translate(160,13)"/>
<path d="M0 0 C19.14 0 38.28 0 58 0 C58 5.94 58 11.88 58 18 C51.73 18 45.46 18 39 18 C39 17.01 39 16.02 39 15 C38.34 15 37.68 15 37 15 C37 14.34 37 13.68 37 13 C38.9375 13.3125 38.9375 13.3125 41 14 C41.495 15.485 41.495 15.485 42 17 C43.32 17 44.64 17 46 17 C46.33 15.68 46.66 14.36 47 13 C47.99 13 48.98 13 50 13 C50 14.32 50 15.64 50 17 C51.98 16.67 53.96 16.34 56 16 C56 11.71 56 7.42 56 3 C48.61271409 2.97535929 41.22545188 2.9571684 33.83813477 2.94506836 C31.32283105 2.94002637 28.80753028 2.93319297 26.29223633 2.92456055 C22.68570225 2.91248906 19.07920677 2.90677051 15.47265625 2.90234375 C14.34038101 2.89718246 13.20810577 2.89202118 12.04151917 2.88670349 C11.00051559 2.88662796 9.95951202 2.88655243 8.88696289 2.88647461 C7.96540909 2.884254 7.04385529 2.88203339 6.09437561 2.87974548 C4.01191638 2.7662802 4.01191638 2.7662802 3 4 C2.76518307 6.18292774 2.58636677 8.37203174 2.4375 10.5625 C2.31181641 12.35880859 2.31181641 12.35880859 2.18359375 14.19140625 C2.12300781 15.11824219 2.06242188 16.04507812 2 17 C2.99 17.33 3.98 17.66 5 18 C3.35 18 1.7 18 0 18 C0 12.06 0 6.12 0 0 Z " fill="#B41D2B" transform="translate(155,9)"/>
<path d="M0 0 C17.16 0 34.32 0 52 0 C52 5.94 52 11.88 52 18 C51.67 18 51.34 18 51 18 C50.505 10.575 50.505 10.575 50 3 C33.83 3 17.66 3 1 3 C1 37.32 1 71.64 1 107 C0.67 107 0.34 107 0 107 C0 71.69 0 36.38 0 0 Z " fill="#B31B26" transform="translate(91,9)"/>
<path d="M0 0 C1.31665649 0.00213753 1.31665649 0.00213753 2.65991211 0.00431824 C4.15155884 -0.00029671 4.15155884 -0.00029671 5.67333984 -0.00500488 C6.75043213 0.00218063 7.82752441 0.00936615 8.93725586 0.01676941 C10.03948486 0.01722763 11.14171387 0.01768585 12.27734375 0.01815796 C14.61093215 0.02118294 16.94451849 0.0290765 19.27807617 0.04142761 C22.85985428 0.0596623 26.44137373 0.06193749 30.02319336 0.06169128 C32.28621644 0.06660716 34.54923776 0.07243578 36.81225586 0.07926941 C37.88934814 0.08038223 38.96644043 0.08149506 40.07617188 0.0826416 C41.07060303 0.08902145 42.06503418 0.09540131 43.08959961 0.10197449 C43.96737061 0.10578629 44.8451416 0.10959808 45.74951172 0.11352539 C47.87475586 0.24723816 47.87475586 0.24723816 49.87475586 1.24723816 C49.87475586 1.90723816 49.87475586 2.56723816 49.87475586 3.24723816 C34.36475586 3.24723816 18.85475586 3.24723816 2.87475586 3.24723816 C3.53475586 4.89723816 4.19475586 6.54723816 4.87475586 8.24723816 C6.91581225 9.13417119 6.91581225 9.13417119 8.87475586 9.24723816 C9.20475586 7.92723816 9.53475586 6.60723816 9.87475586 5.24723816 C10.86475586 5.24723816 11.85475586 5.24723816 12.87475586 5.24723816 C13.20475586 6.89723816 13.53475586 8.54723816 13.87475586 10.24723816 C12.55475586 10.57723816 11.23475586 10.90723816 9.87475586 11.24723816 C9.87475586 12.23723816 9.87475586 13.22723816 9.87475586 14.24723816 C7.16596251 15.60163484 4.86542318 15.31225267 1.87475586 15.24723816 C1.87475586 14.25723816 1.87475586 13.26723816 1.87475586 12.24723816 C0.22475586 12.57723816 -1.42524414 12.90723816 -3.12524414 13.24723816 C-3.34675963 11.45715349 -3.55206627 9.66505654 -3.75024414 7.87223816 C-3.86625977 6.87450378 -3.98227539 5.87676941 -4.10180664 4.84880066 C-4.10954102 3.99028503 -4.11727539 3.13176941 -4.12524414 2.24723816 C-2.12524414 0.24723816 -2.12524414 0.24723816 0 0 Z " fill="#E70717" transform="translate(161.125244140625,10.752761840820313)"/>
<path d="M0 0 C0.66 0 1.32 0 2 0 C2 36.3 2 72.6 2 110 C1.34 110 0.68 110 0 110 C-0.1538239 96.39611642 -0.30200521 82.79218423 -0.4429636 69.1881609 C-0.5085924 62.87141871 -0.57617186 56.5547099 -0.64819336 50.23803711 C-0.71761365 44.14323258 -0.78193076 38.04839369 -0.84269524 31.95349693 C-0.86678897 29.62705209 -0.89272806 27.30062561 -0.92053413 24.97422218 C-0.95913666 21.71827693 -0.99120474 18.46232844 -1.02172852 15.20629883 C-1.03467453 14.24244766 -1.04762054 13.2785965 -1.06095886 12.28553772 C-1.06799835 11.39517822 -1.07503784 10.50481873 -1.08229065 9.58747864 C-1.09058679 8.8177815 -1.09888292 8.04808435 -1.10743046 7.25506306 C-0.98848804 4.75835352 -0.54473252 2.43635514 0 0 Z " fill="#FABEBD" transform="translate(89,9)"/>
<path d="M0 0 C2.16965398 3.25448097 3.36143262 6.5253585 4.625 10.1875 C4.96917969 11.16879883 4.96917969 11.16879883 5.3203125 12.16992188 C5.88395144 13.77864135 6.44247984 15.38914977 7 17 C3.125 15.25 3.125 15.25 2 13 C-0.45631001 13.49547543 -0.45631001 13.49547543 -3 15 C-4.89619241 18.58169678 -5.93947482 21.7768134 -7 25.6875 C-8 29 -8 29 -9.6875 31.125 C-11.30759845 32.9988823 -11.30759845 32.9988823 -10.6875 35.75 C-10.3471875 36.86375 -10.3471875 36.86375 -10 38 C-12.33333333 38 -14.66666667 38 -17 38 C-17 37.01 -17 36.02 -17 35 C-19.97 35.495 -19.97 35.495 -23 36 C-23 35.34 -23 34.68 -23 34 C-24.98567708 33.8046875 -26.97135417 33.609375 -28.95703125 33.4140625 C-31 33 -31 33 -34 31 C-34.1875 28.375 -34.1875 28.375 -34 26 C-33.34 26 -32.68 26 -32 26 C-31.67 27.32 -31.34 28.64 -31 30 C-25.06 30.66 -19.12 31.32 -13 32 C-12.61199219 30.76378906 -12.22398437 29.52757812 -11.82421875 28.25390625 C-9.84744988 22.32359964 -7.33909462 16.650271 -4.8125 10.9375 C-4.11737305 9.35291992 -4.11737305 9.35291992 -3.40820312 7.73632812 C-2.2756523 5.15598036 -1.13952397 2.57727399 0 0 Z " fill="#FBE8EE" transform="translate(423,90)"/>
<path d="M0 0 C0.66 0.99 1.32 1.98 2 3 C4.62462244 3.26697888 7.01065933 3.34832984 9.6328125 3.29296875 C10.38464813 3.28872391 11.13648376 3.28447906 11.91110229 3.28010559 C14.31609685 3.2632917 16.72025809 3.22563624 19.125 3.1875 C20.75389416 3.17245659 22.38280144 3.15876758 24.01171875 3.14648438 C28.00813434 3.11337954 32.00392582 3.06158009 36 3 C36 3.33 36 3.66 36 4 C25.11 4 14.22 4 3 4 C3 11.92 3 19.84 3 28 C11.25 28 19.5 28 28 28 C28 28.33 28 28.66 28 29 C19.09 29 10.18 29 1 29 C0.67 29.66 0.34 30.32 0 31 C-0.45375 30.236875 -0.9075 29.47375 -1.375 28.6875 C-2.53824492 26.76367186 -3.7529415 24.87058776 -5 23 C-4.34 23 -3.68 23 -3 23 C-3 18.38 -3 13.76 -3 9 C-3.66 8.67 -4.32 8.34 -5 8 C-4.525625 7.54625 -4.05125 7.0925 -3.5625 6.625 C-1.90972192 5.06741796 -1.90972192 5.06741796 -1 3 C-1.66 2.67 -2.32 2.34 -3 2 C-2.01 2 -1.02 2 0 2 C0 1.34 0 0.68 0 0 Z " fill="#EA414D" transform="translate(107,24)"/>
<path d="M0 0 C0.66 0 1.32 0 2 0 C2 20.46 2 40.92 2 62 C-3.94 62.495 -3.94 62.495 -10 63 C-6 61 -6 61 -4 61 C-4 60.34 -4 59.68 -4 59 C-3.01 58.34 -2.02 57.68 -1 57 C-0.56884411 54.73643164 -0.56884411 54.73643164 -0.67529297 52.07885742 C-0.67874725 51.05406784 -0.68220154 50.02927826 -0.6857605 48.97343445 C-0.70438141 47.86200577 -0.72300232 46.75057709 -0.7421875 45.60546875 C-0.74880402 44.46596268 -0.75542053 43.3264566 -0.76223755 42.15242004 C-0.78571378 38.49717677 -0.8294171 34.84252898 -0.875 31.1875 C-0.91007548 27.54325321 -0.94089753 23.89904173 -0.96633911 20.25471497 C-0.98329258 17.98422173 -1.00641518 15.71376439 -1.03634644 13.44340515 C-1.04610504 12.40915909 -1.05586365 11.37491302 -1.06591797 10.30932617 C-1.07718719 9.40268723 -1.08845642 8.49604828 -1.10006714 7.56193542 C-0.99780536 4.94381242 -0.58334222 2.55058298 0 0 Z " fill="#C61713" transform="translate(28,64)"/>
<path d="M0 0 C0 22.11 0 44.22 0 67 C-2.97619417 64.02380583 -3.81809239 60.42456111 -5.1875 56.5 C-5.47302734 55.71496094 -5.75855469 54.92992187 -6.05273438 54.12109375 C-6.31763672 53.36957031 -6.58253906 52.61804687 -6.85546875 51.84375 C-7.22128052 50.81024414 -7.22128052 50.81024414 -7.59448242 49.75585938 C-8 48 -8 48 -7 46 C-6.01 46.66 -5.02 47.32 -4 48 C-4 48.66 -4 49.32 -4 50 C-3.34 50 -2.68 50 -2 50 C-2.11768977 43.66441544 -2.24251943 37.3290004 -2.37231445 30.99365234 C-2.41562691 28.83841135 -2.45730463 26.68313686 -2.49731445 24.52783203 C-2.55510618 21.42991033 -2.61877523 18.33215666 -2.68359375 15.234375 C-2.70030624 14.27070007 -2.71701874 13.30702515 -2.73423767 12.31414795 C-2.75418289 11.41351624 -2.77412811 10.51288452 -2.79467773 9.58496094 C-2.81022202 8.79442322 -2.8257663 8.0038855 -2.84178162 7.18939209 C-2.99857453 5.01972541 -3.40615681 3.08863467 -4 1 C-2 0 -2 0 0 0 Z " fill="#FDC0C6" transform="translate(54,9)"/>
<path d="M0 0 C19.47 0 38.94 0 59 0 C60.99998927 4.99997317 61.08416868 8.16235062 60.625 13.3125 C60.41875 15.849375 60.2125 18.38625 60 21 C53.07 21 46.14 21 39 21 C39 20.67 39 20.34 39 20 C45.27 20 51.54 20 58 20 C58 14.06 58 8.12 58 2 C38.86 2 19.72 2 0 2 C0 1.34 0 0.68 0 0 Z " fill="#FEDBDB" transform="translate(155,7)"/>
<path d="M0 0 C1.10021484 -0.01836914 1.10021484 -0.01836914 2.22265625 -0.03710938 C6.06063514 -0.04759566 7.85847074 0.00981383 11.125 2.1875 C5.185 2.1875 -0.755 2.1875 -6.875 2.1875 C-6.875 41.4575 -6.875 80.7275 -6.875 121.1875 C-4.4 120.6925 -4.4 120.6925 -1.875 120.1875 C-0.43871543 120.12483488 1.0000555 120.10063653 2.4375 120.125 C4.2628125 120.1559375 4.2628125 120.1559375 6.125 120.1875 C6.125 120.5175 6.125 120.8475 6.125 121.1875 C1.35513567 122.14147287 -3.03644615 122.22748805 -7.875 122.1875 C-8.02876267 106.42838309 -8.17679959 90.66922357 -8.3179636 74.90998936 C-8.38363848 67.59320328 -8.45120836 60.27644374 -8.52319336 52.9597168 C-8.58590865 46.5847009 -8.64511536 40.20966389 -8.70005554 33.83457607 C-8.72928729 30.45699826 -8.76031202 27.07945782 -8.79553413 23.70193672 C-8.83391102 19.93746474 -8.86608619 16.172989 -8.89672852 12.40844727 C-8.90967453 11.28060318 -8.92262054 10.15275909 -8.93595886 8.99073792 C-8.94299835 7.97125061 -8.95003784 6.95176331 -8.95729065 5.90138245 C-8.96558679 5.01000863 -8.97388292 4.11863482 -8.98243046 3.20024967 C-8.72788926 -1.56867449 -3.67541616 0.00319601 0 0 Z " fill="#FEDEDF" transform="translate(17.875,6.8125)"/>
<path d="M0 0 C2.09311231 2.09311231 2.56037094 3.17781105 3.47265625 5.921875 C3.73240234 6.70046875 3.99214844 7.4790625 4.25976562 8.28125 C4.52466797 9.0959375 4.78957031 9.910625 5.0625 10.75 C5.33126953 11.54921875 5.60003906 12.3484375 5.87695312 13.171875 C7.28189752 17.43225501 8.4164976 21.53368535 9 26 C7.68 25.34 6.36 24.68 5 24 C3.35693419 24.97578292 3.35693419 24.97578292 2 27 C1.66879458 29.8626546 1.51135908 32.51966604 1.48828125 35.38671875 C1.47033005 36.20372757 1.45237885 37.02073639 1.43388367 37.86250305 C1.37972212 40.47078294 1.34586692 43.07887925 1.3125 45.6875 C1.27933201 47.45640579 1.24484283 49.22528733 1.20898438 50.99414062 C1.12399254 55.32929473 1.05720965 59.66439384 1 64 C0.67 64 0.34 64 0 64 C0 42.88 0 21.76 0 0 Z " fill="#FCE9ED" transform="translate(30,62)"/>
<path d="M0 0 C6.6 0 13.2 0 20 0 C20 0.99 20 1.98 20 3 C16.7 2.67 13.4 2.34 10 2 C10 2.66 10 3.32 10 4 C9.34 4 8.68 4 8 4 C8 3.34 8 2.68 8 2 C6.35 2 4.7 2 3 2 C3.61758554 3.9606842 4.24431345 5.91849063 4.875 7.875 C5.22304688 8.96554688 5.57109375 10.05609375 5.9296875 11.1796875 C6.81175231 14.08522723 6.81175231 14.08522723 9 16 C9.51539789 17.52353883 9.96568445 19.06960091 10.375 20.625 C11.53888192 24.72209949 13.04212119 28.25236399 15.02734375 32.00390625 C16.41066132 34.8427628 17.33671145 37.7742511 18.2734375 40.78515625 C18.96774524 42.901675 19.80723013 44.89313493 20.6875 46.9375 C22.94358142 52.91790632 22.93481476 58.74086433 20.5 64.625 C20.005 65.40875 19.51 66.1925 19 67 C18.34 67 17.68 67 17 67 C17.22816406 66.443125 17.45632813 65.88625 17.69140625 65.3125 C17.97886719 64.549375 18.26632812 63.78625 18.5625 63 C18.99755859 61.88625 18.99755859 61.88625 19.44140625 60.75 C21.06726522 52.74577122 17.52825666 45.67342181 14.5 38.4375 C13.5955737 36.22688165 12.69194739 34.01593586 11.7890625 31.8046875 C11.32790039 30.68288086 10.86673828 29.56107422 10.39160156 28.40527344 C8.17283989 22.97592469 6.01891466 17.52175108 3.875 12.0625 C3.48505859 11.08015381 3.09511719 10.09780762 2.69335938 9.08569336 C2.33822266 8.18214111 1.98308594 7.27858887 1.6171875 6.34765625 C1.30378418 5.55367432 0.99038086 4.75969238 0.66748047 3.94165039 C0 2 0 2 0 0 Z " fill="#B8252F" transform="translate(392,9)"/>
<path d="M0 0 C1.98 0.495 1.98 0.495 4 1 C3.01 1 2.02 1 1 1 C1 34.33 1 67.66 1 102 C2.98 101.505 2.98 101.505 5 101 C6.33599921 101.32248257 7.66893378 101.65772583 9 102 C11.33300933 102.03888349 13.66709801 102.0448635 16 102 C16 102.99 16 103.98 16 105 C7.585 105.495 7.585 105.495 -1 106 C-0.67 71.02 -0.34 36.04 0 0 Z " fill="#D61121" transform="translate(92,13)"/>
<path d="M0 0 C8.58 0 17.16 0 26 0 C25.67 1.32 25.34 2.64 25 4 C23.68 3.67 22.36 3.34 21 3 C15.06 3 9.12 3 3 3 C2.67 16.2 2.34 29.4 2 43 C1.34 43 0.68 43 0 43 C0 28.81 0 14.62 0 0 Z " fill="#FED6D3" transform="translate(244,70)"/>
<path d="M0 0 C0.33 0 0.66 0 1 0 C1 28.38 1 56.76 1 86 C10.57 86 20.14 86 30 86 C30.66 86.99 31.32 87.98 32 89 C21.44 88.34 10.88 87.68 0 87 C0 58.29 0 29.58 0 0 Z " fill="#FDD6D4" transform="translate(309,9)"/>
<path d="M0 0 C0.66 0.33 1.32 0.66 2 1 C1.34 3.97 0.68 6.94 0 10 C0.66 10.33 1.32 10.66 2 11 C2 11.99 2 12.98 2 14 C4.64 14 7.28 14 10 14 C10 13.01 10 12.02 10 11 C7.69 10.67 5.38 10.34 3 10 C3 8.02 3 6.04 3 4 C4.32 3.67 5.64 3.34 7 3 C7.433125 3.825 7.86625 4.65 8.3125 5.5 C9.1478125 6.7375 9.1478125 6.7375 10 8 C10.99 8 11.98 8 13 8 C15.80255323 10.9063515 16 11.78825048 16 16 C3.78450342 17.56918434 3.78450342 17.56918434 0 16 C-2.35413894 12.15997869 -3.7686269 7.48365691 -3 3 C-1.5 1.1875 -1.5 1.1875 0 0 Z " fill="#EB0614" transform="translate(438,108)"/>
<path d="M0 0 C8.58 0 17.16 0 26 0 C25.67 0.66 25.34 1.32 25 2 C17.41 2 9.82 2 2 2 C2.33 9.59 2.66 17.18 3 25 C10.92 25.33 18.84 25.66 27 26 C27 26.33 27 26.66 27 27 C24.56274876 27.17124977 22.12530903 27.33703896 19.6875 27.5 C19.01654297 27.54769531 18.34558594 27.59539062 17.65429688 27.64453125 C11.72956849 28.03395002 5.97915009 28 0 28 C0 18.76 0 9.52 0 0 Z " fill="#FBC2C5" transform="translate(109,71)"/>
<path d="M0 0 C5.94 0 11.88 0 18 0 C17.67 0.66 17.34 1.32 17 2 C12.05 1.67 7.1 1.34 2 1 C1.95367641 14.21277982 1.91813062 27.42554035 1.89637566 40.63838482 C1.88593482 46.77351943 1.87177001 52.90859852 1.84912109 59.04370117 C1.82740361 64.96348937 1.81543363 70.88322413 1.81024551 76.80304909 C1.80654781 79.06249648 1.79932721 81.32194092 1.78853989 83.58136559 C1.77403968 86.74400549 1.77202146 89.90642405 1.77294922 93.0690918 C1.76575867 94.00489075 1.75856812 94.9406897 1.75115967 95.90484619 C1.76538278 100.38036092 1.86910565 103.93772497 4 108 C2.68 108 1.36 108 0 108 C0 72.36 0 36.72 0 0 Z " fill="#A51D27" transform="translate(357,9)"/>
<path d="M0 0 C0.99 0.33 1.98 0.66 3 1 C3 3.31 3 5.62 3 8 C3.66 6.68 4.32 5.36 5 4 C5.66 4.33 6.32 4.66 7 5 C1.06 18.365 1.06 18.365 -5 32 C-6.15866723 27.36533108 -5.70010994 24.66739961 -5 20 C-4.34 20 -3.68 20 -3 20 C-3 18.68 -3 17.36 -3 16 C-3.66 16 -4.32 16 -5 16 C-4.25531915 8.25531915 -4.25531915 8.25531915 -1 5 C-0.34 5 0.32 5 1 5 C0.67 3.35 0.34 1.7 0 0 Z " fill="#D70F19" transform="translate(440,32)"/>
<path d="M0 0 C0.66 0 1.32 0 2 0 C2 11.88 2 23.76 2 36 C3.32 36 4.64 36 6 36 C6 37.98 6 39.96 6 42 C5.34 42 4.68 42 4 42 C4 41.01 4 40.02 4 39 C3.34 39 2.68 39 2 39 C2 40.32 2 41.64 2 43 C-0.475 43.495 -0.475 43.495 -3 44 C-3 41.37165722 -2.80210238 38.91813299 -2.5 36.3125 C-2.4071875 35.50425781 -2.314375 34.69601563 -2.21875 33.86328125 C-2.1465625 33.24839844 -2.074375 32.63351563 -2 32 C-1.34 32 -0.68 32 0 32 C0 21.44 0 10.88 0 0 Z " fill="#DC0E0B" transform="translate(20,80)"/>
<path d="M0 0 C0.33 0 0.66 0 1 0 C1 8.91 1 17.82 1 27 C9.57065924 26.34471213 9.57065924 26.34471213 18.14086914 25.68359375 C19.75916626 25.56177734 19.75916626 25.56177734 21.41015625 25.4375 C22.50465088 25.35371094 23.59914551 25.26992187 24.72680664 25.18359375 C28.14637629 24.99178974 31.57505542 25 35 25 C35 31.27 35 37.54 35 44 C27.41 44.33 19.82 44.66 12 45 C16.37296734 42.81351633 19.5208216 42.76637929 24.25 42.875 C24.99507812 42.88402344 25.74015625 42.89304688 26.5078125 42.90234375 C28.33868059 42.92581642 30.16938238 42.96168475 32 43 C33.04882391 39.43928688 33.30386953 35.94472103 33.5625 32.25 C33.64628906 31.07953125 33.73007813 29.9090625 33.81640625 28.703125 C33.90728516 27.36507812 33.90728516 27.36507812 34 26 C32.35 26 30.7 26 29 26 C28.67 26.66 28.34 27.32 28 28 C18.76 28.33 9.52 28.66 0 29 C0 19.43 0 9.86 0 0 Z " fill="#BB171C" transform="translate(108,72)"/>
<path d="M0 0 C0.99 0 1.98 0 3 0 C3 7.92 3 15.84 3 24 C11.58 24 20.16 24 29 24 C29 29.94 29 35.88 29 42 C20.42 42 11.84 42 3 42 C3 41.67 3 41.34 3 41 C10.92 41 18.84 41 27 41 C27 36.38 27 31.76 27 27 C18.75 26.67 10.5 26.34 2 26 C1.5625 14.6875 1.5625 14.6875 1.43188477 11.1315918 C1.39377686 10.20515869 1.35566895 9.27872559 1.31640625 8.32421875 C1.26141968 6.9024231 1.26141968 6.9024231 1.20532227 5.4519043 C1.08569813 2.863829 1.08569813 2.863829 0 0 Z " fill="#BA1D24" transform="translate(241,28)"/>
<path d="M0 0 C0.33 0 0.66 0 1 0 C1.02314476 7.91886714 1.040926 15.8377202 1.05181217 23.75661278 C1.05703632 27.43345711 1.0641255 31.11027834 1.07543945 34.78710938 C1.08628493 38.3337896 1.09228037 41.88044757 1.09487724 45.4271431 C1.09672849 46.78196183 1.10034338 48.13677931 1.10573006 49.49158859 C1.11296238 51.38549365 1.11340824 53.27942098 1.11352539 55.17333984 C1.115746 56.25255707 1.11796661 57.33177429 1.12025452 58.44369507 C1 61 1 61 0 63 C-0.99 63 -1.98 63 -3 63 C-4.25664978 60.09399739 -5 58.20395416 -5 55 C-5.99 55 -6.98 55 -8 55 C-8.33 52.36 -8.66 49.72 -9 47 C-9.33 47 -9.66 47 -10 47 C-10 45.35 -10 43.7 -10 42 C-9.01 41.505 -9.01 41.505 -8 41 C-6.02 46.61 -4.04 52.22 -2 58 C-0.98454234 54.95362701 -0.8458023 52.80222902 -0.79467773 49.6105957 C-0.77473251 48.50968094 -0.75478729 47.40876617 -0.73423767 46.27449036 C-0.71752518 45.08691635 -0.70081268 43.89934235 -0.68359375 42.67578125 C-0.66281265 41.45924362 -0.64203156 40.24270599 -0.62062073 38.98930359 C-0.55515283 35.09709404 -0.49625285 31.20481615 -0.4375 27.3125 C-0.39431218 24.67642518 -0.3506978 22.04035731 -0.30664062 19.40429688 C-0.19947422 12.93627049 -0.09770255 6.46817589 0 0 Z " fill="#CE120E" transform="translate(55,16)"/>
<path d="M0 0 C0.99 0 1.98 0 3 0 C3 35.64 3 71.28 3 108 C2.67 108 2.34 108 2 108 C2 74.01 2 40.02 2 5 C1.34 4.67 0.68 4.34 0 4 C0 2.68 0 1.36 0 0 Z " fill="#FEEFE8" transform="translate(353,9)"/>
<path d="M0 0 C0.66 0.66 1.32 1.32 2 2 C-2.29 11.9 -6.58 21.8 -11 32 C-22.25 32 -22.25 32 -26.625 31 C-27.46289062 30.814375 -28.30078125 30.62875 -29.1640625 30.4375 C-30.07285156 30.2209375 -30.07285156 30.2209375 -31 30 C-30.01 27.36 -29.02 24.72 -28 22 C-27 26 -27 26 -28 29 C-22.72 29.33 -17.44 29.66 -12 30 C-12 28.68 -12 27.36 -12 26 C-11.34 26 -10.68 26 -10 26 C-10.061875 24.88625 -10.12375 23.7725 -10.1875 22.625 C-10.0946875 20.830625 -10.0946875 20.830625 -10 19 C-9.01 18.34 -8.02 17.68 -7 17 C-6.26656572 13.93443402 -6.26656572 13.93443402 -6 11 C-5.34 11 -4.68 11 -4 11 C-3.79503906 10.37351562 -3.59007812 9.74703125 -3.37890625 9.1015625 C-3.10949219 8.28429687 -2.84007812 7.46703125 -2.5625 6.625 C-2.29566406 5.81289062 -2.02882813 5.00078125 -1.75390625 4.1640625 C-1 2 -1 2 0 0 Z " fill="#B82D34" transform="translate(421,90)"/>
<path d="M0 0 C0.66 0 1.32 0 2 0 C2 12.87 2 25.74 2 39 C1.01 39.495 1.01 39.495 0 40 C-0.22786458 37.94921875 -0.45572917 35.8984375 -0.68359375 33.84765625 C-0.81886614 31.98859771 -0.81886614 31.98859771 -2 31 C-2.07313567 28.46950598 -2.09247527 25.96695163 -2.0625 23.4375 C-2.05798828 22.72658203 -2.05347656 22.01566406 -2.04882812 21.28320312 C-2.03700864 19.52209987 -2.01907263 17.76103964 -2 16 C-1.34 16 -0.68 16 0 16 C0 10.72 0 5.44 0 0 Z " fill="#EC031D" transform="translate(60,32)"/>
<path d="M0 0 C16.83 0.33 33.66 0.66 51 1 C51.495 1.99 51.495 1.99 52 3 C34.51 3 17.02 3 -1 3 C-0.67 2.01 -0.34 1.02 0 0 Z " fill="#FEDBDC" transform="translate(91,6)"/>
<path d="M0 0 C9.24 0 18.48 0 28 0 C28 1.32 28 2.64 28 4 C26.35 4 24.7 4 23 4 C23 3.34 23 2.68 23 2 C22.20335937 2.32742187 21.40671875 2.65484375 20.5859375 2.9921875 C16.15289193 4.23807612 12.19804522 4.21981593 7.625 4.125 C6.79355469 4.11597656 5.96210937 4.10695313 5.10546875 4.09765625 C3.07018663 4.0742622 1.03505436 4.03839725 -1 4 C-0.67 2.68 -0.34 1.36 0 0 Z " fill="#E30B09" transform="translate(113,106)"/>
<path d="M0 0 C8.25 0 16.5 0 25 0 C25 5.94 25 11.88 25 18 C16.75 18 8.5 18 0 18 C0 17.01 0 16.02 0 15 C7.59 15.33 15.18 15.66 23 16 C23 11.05 23 6.1 23 1 C15.41 1 7.82 1 0 1 C0 0.67 0 0.34 0 0 Z " fill="#B41D29" transform="translate(110,53)"/>
<path d="M0 0 C0 0.33 0 0.66 0 1 C-2.97 1 -5.94 1 -9 1 C-9 1.66 -9 2.32 -9 3 C-17.52176282 4.03505763 -26.05249889 4.31276602 -34.625 4.5625 C-36.02474932 4.60580627 -37.42448904 4.64942387 -38.82421875 4.69335938 C-42.21606451 4.79862355 -45.60797354 4.90076009 -49 5 C-49 4.34 -49 3.68 -49 3 C-32.72499399 0.82859376 -16.4286728 -0.3005245 0 0 Z " fill="#FDDAD6" transform="translate(140,116)"/>
<path d="M0 0 C3.20210703 2.62929609 4.25385985 5.6769596 5.6875 9.5 C6.34298828 11.21703125 6.34298828 11.21703125 7.01171875 12.96875 C8 16 8 16 8 19 C0.98475852 18.44210432 -6.00982196 17.81552077 -13 17 C-13.6708712 15.3767313 -14.33657029 13.75132422 -15 12.125 C-15.37125 11.22007813 -15.7425 10.31515625 -16.125 9.3828125 C-17 7 -17 7 -17 5 C-16.34 5 -15.68 5 -15 5 C-14.01 8.3 -13.02 11.6 -12 15 C-6.72 15 -1.44 15 4 15 C3.34 13.35 2.68 11.7 2 10 C1 7 1 7 2 4 C1.34 4 0.68 4 0 4 C0 2.68 0 1.36 0 0 Z " fill="#BB1D29" transform="translate(450,109)"/>
<path d="M0 0 C1.65 0 3.3 0 5 0 C5 5.94 5 11.88 5 18 C-5.70688679 18.12596337 -16.31490752 17.63185341 -27 17 C-27 16.67 -27 16.34 -27 16 C-17.43 16 -7.86 16 2 16 C2 15.34 2 14.68 2 14 C1.34 14 0.68 14 0 14 C0 13.34 0 12.68 0 12 C0.99 12 1.98 12 3 12 C2.5359375 10.14375 2.5359375 10.14375 2.0625 8.25 C1.375 5.5 0.6875 2.75 0 0 Z " fill="#BF252E" transform="translate(336,98)"/>
<path d="M0 0 C0.66 0 1.32 0 2 0 C1.88608368 2.60508636 1.75934452 5.20845546 1.625 7.8125 C1.57859375 8.91948242 1.57859375 8.91948242 1.53125 10.04882812 C1.32653852 13.81893115 1.13566173 15.79650741 -1 19 C-3.31 18.67 -5.62 18.34 -8 18 C-8.66 16.35 -9.32 14.7 -10 13 C-8.68 12.67 -7.36 12.34 -6 12 C-5.67 13.32 -5.34 14.64 -5 16 C-4.01 15.67 -3.02 15.34 -2 15 C-1.67 13.02 -1.34 11.04 -1 9 C-2.98 9.99 -2.98 9.99 -5 11 C-6.125 5.25 -6.125 5.25 -5 3 C-3.35 3 -1.7 3 0 3 C0 2.01 0 1.02 0 0 Z " fill="#EC0515" transform="translate(419,80)"/>
<path d="M0 0 C0.33 0 0.66 0 1 0 C1 3.3 1 6.6 1 10 C0.67 10 0.34 10 0 10 C-0.33 12.64 -0.66 15.28 -1 18 C-1.99 18.33 -2.98 18.66 -4 19 C-6.38122757 21.66137199 -7.8655859 23.5967577 -9 27 C-9.66 27 -10.32 27 -11 27 C-9.00667932 20.60703339 -6.58525386 14.52953606 -3.8125 8.4375 C-3.44447266 7.61958984 -3.07644531 6.80167969 -2.69726562 5.95898438 C-1.80204987 3.97090782 -0.9015835 1.98519692 0 0 Z " fill="#F2FDF8" transform="translate(447,35)"/>
<path d="M0 0 C12.70832863 -0.12807946 25.31595119 0.20458373 38 1 C38 1.33 38 1.66 38 2 C27.99764906 3.37220461 18.78619941 4.32612928 8.72265625 2.99609375 C5.95927141 2.72064443 5.95927141 2.72064443 4.12109375 4.47265625 C3.56615234 5.22869141 3.56615234 5.22869141 3 6 C2.01 5.67 1.02 5.34 0 5 C0 3.35 0 1.7 0 0 Z " fill="#FDE2DE" transform="translate(290,114)"/>
<path d="M0 0 C1.65 0 3.3 0 5 0 C6.47193312 2.94386623 5.84936173 5.37390036 5.5625 8.625 C5.46066406 9.81351563 5.35882813 11.00203125 5.25390625 12.2265625 C5.17011719 13.14179688 5.08632812 14.05703125 5 15 C2.03 15 -0.94 15 -4 15 C-4 13.02 -4 11.04 -4 9 C-2.02 9 -0.04 9 2 9 C1.51515724 4.35413108 1.51515724 4.35413108 0 0 Z " fill="#DE0A1A" transform="translate(136,11)"/>
<path d="M0 0 C0.66 0 1.32 0 2 0 C2.33 1.32 2.66 2.64 3 4 C9.26841024 4.94617513 15.66664684 5.62907043 22 5 C22.66 4.34 23.32 3.68 24 3 C23.814375 3.7425 23.62875 4.485 23.4375 5.25 C23.00796892 7.94990963 23.14877026 9.44631077 24 12 C21.66666667 12 19.33333333 12 17 12 C17 11.01 17 10.02 17 9 C15.02 9.33 13.04 9.66 11 10 C11 9.34 11 8.68 11 8 C9.01432292 7.8046875 7.02864583 7.609375 5.04296875 7.4140625 C3 7 3 7 0 5 C-0.1875 2.375 -0.1875 2.375 0 0 Z " fill="#F9E9E7" transform="translate(389,116)"/>
<path d="M0 0 C2.51699845 2.51699845 3.10964078 4.57554146 4 8 C3.625 10.375 3.625 10.375 3 12 C2.67 11.34 2.34 10.68 2 10 C1.67 27.82 1.34 45.64 1 64 C0.67 64 0.34 64 0 64 C0 42.88 0 21.76 0 0 Z " fill="#FDC8D2" transform="translate(30,62)"/>
<path d="M0 0 C6.6 0 13.2 0 20 0 C19.67 1.65 19.34 3.3 19 5 C18.34 4.67 17.68 4.34 17 4 C17 3.01 17 2.02 17 1 C16.01 1.33 15.02 1.66 14 2 C11.77425665 2.22451458 9.54418481 2.40782878 7.3125 2.5625 C6.13300781 2.64628906 4.95351563 2.73007813 3.73828125 2.81640625 C2.83464844 2.87699219 1.93101562 2.93757812 1 3 C-0.93458952 7.41517036 -0.93458952 7.41517036 0 12 C-1.98 12.99 -3.96 13.98 -6 15 C-5.56856647 13.62308448 -5.12948836 12.24856381 -4.6875 10.875 C-4.44386719 10.10929687 -4.20023437 9.34359375 -3.94921875 8.5546875 C-2.85531153 5.61059153 -1.40458778 2.80917555 0 0 Z " fill="#C0192C" transform="translate(438,9)"/>
<path d="M0 0 C0.33 0 0.66 0 1 0 C1.33 2.64 1.66 5.28 2 8 C3.32 7.67 4.64 7.34 6 7 C6.33 7.66 6.66 8.32 7 9 C6.67 9.66 6.34 10.32 6 11 C8.64 10.67 11.28 10.34 14 10 C14 9.01 14 8.02 14 7 C14.99 6.34 15.98 5.68 17 5 C17 3.68 17 2.36 17 1 C17.66 1 18.32 1 19 1 C19.25 8.625 19.25 8.625 17 12 C13.84765625 12.328125 13.84765625 12.328125 10.0625 12.25 C8.81597656 12.23453125 7.56945312 12.2190625 6.28515625 12.203125 C3 12 3 12 0 11 C0 7.37 0 3.74 0 0 Z " fill="#D20E14" transform="translate(157,15)"/>
<path d="M0 0 C1.25260243 4.99540847 0.68225154 7.72188686 -1.4375 12.375 C-1.91058594 13.43460938 -2.38367188 14.49421875 -2.87109375 15.5859375 C-3.24363281 16.38257812 -3.61617188 17.17921875 -4 18 C-4.33 18 -4.66 18 -5 18 C-4.67 12.72 -4.34 7.44 -4 2 C-8.29 2.66 -12.58 3.32 -17 4 C-16.67 3.01 -16.34 2.02 -16 1 C-13.89594609 0.83191581 -11.79175242 0.66558052 -9.6875 0.5 C-8.51574219 0.4071875 -7.34398437 0.314375 -6.13671875 0.21875 C-4.094806 0.07635011 -2.0468721 0 0 0 Z " fill="#E6061D" transform="translate(455,10)"/>
<path d="M0 0 C0.66 0.33 1.32 0.66 2 1 C2.02705729 2.77074917 2.04642195 4.54161711 2.0625 6.3125 C2.07410156 7.29863281 2.08570313 8.28476562 2.09765625 9.30078125 C2 12 2 12 1 15 C-2.96 15 -6.92 15 -11 15 C-11 13.35 -11 11.7 -11 10 C-10.34 10 -9.68 10 -9 10 C-9 11.32 -9 12.64 -9 14 C-7.68 13.67 -6.36 13.34 -5 13 C-4.34 10.69 -3.68 8.38 -3 6 C-1.68 6.33 -0.36 6.66 1 7 C0.67 4.69 0.34 2.38 0 0 Z " fill="#D60C10" transform="translate(267,54)"/>
<path d="M0 0 C1.65 0 3.3 0 5 0 C5.33 2.31 5.66 4.62 6 7 C4.68 7 3.36 7 2 7 C1.34 9.31 0.68 11.62 0 14 C-1.32 14 -2.64 14 -4 14 C-4.1875 11.6875 -4.1875 11.6875 -4 9 C-3 8 -2 7 -1 6 C-0.2730774 2.89160979 -0.2730774 2.89160979 0 0 Z " fill="#ED0417" transform="translate(262,54)"/>
<path d="M0 0 C2.3600532 2.3600532 2.84445487 4.07353979 3.875 7.234375 C4.22046875 8.28367187 4.5659375 9.33296875 4.921875 10.4140625 C5.27765625 11.51492187 5.6334375 12.61578125 6 13.75 C6.53367187 15.37808594 6.53367187 15.37808594 7.078125 17.0390625 C7.74492652 19.07429997 8.40925853 21.11034938 9.0703125 23.14746094 C10.03352138 26.10285288 11.01409796 29.05210929 12 32 C11.34 32 10.68 32 10 32 C9.71125 31.401875 9.4225 30.80375 9.125 30.1875 C7.95257974 27.80672208 7.95257974 27.80672208 6 25 C5.27471618 22.37651244 4.61106679 19.77454739 4 17.125 C2.72705541 11.5951007 2.72705541 11.5951007 0.875 6.2421875 C0 4 0 4 0 0 Z " fill="#B93239" transform="translate(34,24)"/>
<path d="M0 0 C0.66 0 1.32 0 2 0 C2.18175781 0.58007812 2.36351562 1.16015625 2.55078125 1.7578125 C3.68346526 5.27784589 4.78573513 8.58932568 6.5 11.875 C8.32883892 15.68508109 9.2630391 19.51155154 10.25390625 23.609375 C10.84530082 26.15485859 10.84530082 26.15485859 13 28 C13.125 31.625 13.125 31.625 13 35 C10.47318138 32.47318138 9.85030707 30.22421552 8.65234375 26.85546875 C8.21212891 25.62119141 7.77191406 24.38691406 7.31835938 23.11523438 C7.09172607 22.47030029 6.86509277 21.82536621 6.6315918 21.16088867 C5.94296244 19.20303038 5.24469703 17.24882032 4.54492188 15.29492188 C0.83525821 4.83051087 0.83525821 4.83051087 0 0 Z " fill="#B71D26" transform="translate(31,63)"/>
<path d="M0 0 C2.14642449 3.21963674 3.35881354 6.44429859 4.625 10.0625 C4.85445312 10.69994141 5.08390625 11.33738281 5.3203125 11.99414062 C7 16.738258 7 16.738258 7 19 C7.66 19 8.32 19 9 19 C9.33 18.34 9.66 17.68 10 17 C9.67 18.65 9.34 20.3 9 22 C8.01 22 7.02 22 6 22 C4.74335022 19.09399739 4 17.20395416 4 14 C3.01 14 2.02 14 1 14 C0.67 11.36 0.34 8.72 0 6 C-0.33 6 -0.66 6 -1 6 C-1.042721 4.33388095 -1.04063832 2.66617115 -1 1 C-0.67 0.67 -0.34 0.34 0 0 Z " fill="#CC1B1C" transform="translate(46,57)"/>
<path d="M0 0 C2.7053871 4.05808065 5 8.04889399 5 13 C5.56847656 12.98839844 6.13695312 12.97679688 6.72265625 12.96484375 C11.60670484 12.90776806 16.18503965 13.18043228 21 14 C21 14.33 21 14.66 21 15 C14.07 15 7.14 15 0 15 C0 13.68 0 12.36 0 11 C0.66 11 1.32 11 2 11 C1.505 9.948125 1.505 9.948125 1 8.875 C-0.09044562 5.73996884 -0.15322643 3.29436818 0 0 Z " fill="#F7D7D7" transform="translate(432,113)"/>
<path d="M0 0 C0.33 0 0.66 0 1 0 C1 2.31 1 4.62 1 7 C-7.48831358 9.56943546 -15.14593366 10.38558031 -24 10 C-23.67 8.02 -23.34 6.04 -23 4 C-22.34 5.32 -21.68 6.64 -21 8 C-20.23816406 7.855625 -19.47632813 7.71125 -18.69140625 7.5625 C-12.34752104 6.42202626 -6.44229056 5.78525698 0 6 C0 4.02 0 2.04 0 0 Z " fill="#FACDD0" transform="translate(73,115)"/>
<path d="M0 0 C0.33 0 0.66 0 1 0 C1 3.63 1 7.26 1 11 C-4.94 11 -10.88 11 -17 11 C-17 10.01 -17 9.02 -17 8 C-17.66 8 -18.32 8 -19 8 C-19 7.34 -19 6.68 -19 6 C-17.0625 6.3125 -17.0625 6.3125 -15 7 C-14.67 7.99 -14.34 8.98 -14 10 C-12.68 10 -11.36 10 -10 10 C-9.67 8.68 -9.34 7.36 -9 6 C-8.01 6 -7.02 6 -6 6 C-6 7.32 -6 8.64 -6 10 C-4.02 9.67 -2.04 9.34 0 9 C0 6.03 0 3.06 0 0 Z " fill="#CB0F18" transform="translate(211,16)"/>
<path d="M0 0 C0.99 0.33 1.98 0.66 3 1 C2.67 6.94 2.34 12.88 2 19 C-4.93 19 -11.86 19 -19 19 C-19 18.67 -19 18.34 -19 18 C-12.73 18 -6.46 18 0 18 C0 12.06 0 6.12 0 0 Z " fill="#F6A8AB" transform="translate(213,9)"/>
<path d="M0 0 C2.31 0 4.62 0 7 0 C7 6.27 7 12.54 7 19 C-0.59 19.33 -8.18 19.66 -16 20 C-11.62703266 17.81351633 -8.4791784 17.76637929 -3.75 17.875 C-3.00492188 17.88402344 -2.25984375 17.89304687 -1.4921875 17.90234375 C0.33868059 17.92581642 2.16938238 17.96168475 4 18 C5.04882391 14.43928688 5.30386953 10.94472103 5.5625 7.25 C5.64628906 6.07953125 5.73007813 4.9090625 5.81640625 3.703125 C5.90728516 2.36507812 5.90728516 2.36507812 6 1 C4.02 1 2.04 1 0 1 C0 0.67 0 0.34 0 0 Z " fill="#BB4147" transform="translate(136,97)"/>
<path d="M0 0 C0.99 0.33 1.98 0.66 3 1 C3.3721042 2.32303717 3.70630173 3.65737935 4 5 C4.66 5.33 5.32 5.66 6 6 C5.34 8.31 4.68 10.62 4 13 C2.0625 13.5625 2.0625 13.5625 0 14 C-1 13 -1 13 -1.125 9.8125 C-1.0141397 6.43126075 -0.64663864 3.31402301 0 0 Z " fill="#E00C15" transform="translate(104,65)"/>
<path d="M0 0 C1.15917054 3.79950343 0.46315684 5.34210791 -1 9 C-0.71260075 11.24240782 -0.71260075 11.24240782 0 13 C-0.61359375 13.21398437 -1.2271875 13.42796875 -1.859375 13.6484375 C-4.80684189 15.50942937 -5.18456782 17.35260117 -6.25 20.625 C-6.58515625 21.62789062 -6.9203125 22.63078125 -7.265625 23.6640625 C-7.50796875 24.43492188 -7.7503125 25.20578125 -8 26 C-8.66 25.67 -9.32 25.34 -10 25 C-7.37589493 16.35588919 -3.68616238 8.23074615 0 0 Z " fill="#C5242A" transform="translate(404,86)"/>
<path d="M0 0 C0.66 0.33 1.32 0.66 2 1 C-1.96 9.91 -1.96 9.91 -6 19 C-7.15866723 14.36533108 -6.70010994 11.66739961 -6 7 C-5.34 7 -4.68 7 -4 7 C-3.896875 6.21625 -3.79375 5.4325 -3.6875 4.625 C-3 2 -3 2 0 0 Z " fill="#C91620" transform="translate(441,45)"/>
<path d="M0 0 C2.41454783 3.62182174 3.11860051 6.71170446 3 11 C2.18036663 14.16016492 0.92487313 17.03921169 -0.4375 20 C-0.77587891 20.77472656 -1.11425781 21.54945312 -1.46289062 22.34765625 C-2.29189144 24.23917923 -3.1436396 26.12070535 -4 28 C-4.66 27.67 -5.32 27.34 -6 27 C-6 26.34 -6 25.68 -6 25 C-5.34 25 -4.68 25 -4 25 C-3.87882812 24.443125 -3.75765625 23.88625 -3.6328125 23.3125 C-3.38144531 22.1678125 -3.38144531 22.1678125 -3.125 21 C-2.85429687 19.76443359 -2.85429687 19.76443359 -2.578125 18.50390625 C-2.06778296 16.29357349 -1.4830782 14.12223812 -0.875 11.9375 C0.16724375 7.89066294 0.14877749 4.16576973 0 0 Z " fill="#F9D4D2" transform="translate(410,56)"/>
<path d="M0 0 C0.66 0.66 1.32 1.32 2 2 C-1.3 9.59 -4.6 17.18 -8 25 C-8.66 23.68 -9.32 22.36 -10 21 C-9 19 -9 19 -7 17 C-6.60235737 15.01178687 -6.26224651 13.01055661 -6 11 C-5.34 11 -4.68 11 -4 11 C-3.79503906 10.37351562 -3.59007812 9.74703125 -3.37890625 9.1015625 C-3.10949219 8.28429687 -2.84007812 7.46703125 -2.5625 6.625 C-2.29566406 5.81289062 -2.02882813 5.00078125 -1.75390625 4.1640625 C-1 2 -1 2 0 0 Z " fill="#C0212C" transform="translate(421,90)"/>
<path d="M0 0 C0 14.52 0 29.04 0 44 C-0.33 44 -0.66 44 -1 44 C-1.02505615 42.83952148 -1.0501123 41.67904297 -1.07592773 40.48339844 C-1.17015772 36.17453118 -1.27034035 31.86581927 -1.37231445 27.55712891 C-1.41560433 25.69290808 -1.45728361 23.82864912 -1.49731445 21.96435547 C-1.55516113 19.2834118 -1.61881405 16.602659 -1.68359375 13.921875 C-1.70030624 13.08944275 -1.71701874 12.2570105 -1.73423767 11.39935303 C-1.75418289 10.61884583 -1.77412811 9.83833862 -1.79467773 9.03417969 C-1.81022202 8.35023132 -1.8257663 7.66628296 -1.84178162 6.96160889 C-2.00921816 4.88571227 -2.44165028 3.00325255 -3 1 C-1 0 -1 0 0 0 Z " fill="#FEEDF1" transform="translate(53,9)"/>
<path d="M0 0 C2.16965398 3.25448097 3.36143262 6.5253585 4.625 10.1875 C4.85445313 10.84169922 5.08390625 11.49589844 5.3203125 12.16992188 C5.88395144 13.77864135 6.44247984 15.38914977 7 17 C4.53199953 15.84826645 2.95216435 14.95216435 1 13 C0.59952556 10.67724823 0.2602896 8.34260643 0 6 C-0.66 6 -1.32 6 -2 6 C-1.34 4.02 -0.68 2.04 0 0 Z " fill="#FBD7CF" transform="translate(423,90)"/>
<path d="M0 0 C1.60488281 0.00483398 1.60488281 0.00483398 3.2421875 0.00976562 C4.35335937 0.01814453 5.46453125 0.02652344 6.609375 0.03515625 C8.29933594 0.04192383 8.29933594 0.04192383 10.0234375 0.04882812 C12.80213717 0.06060228 15.58072909 0.07704785 18.359375 0.09765625 C18.359375 0.42765625 18.359375 0.75765625 18.359375 1.09765625 C17.25078125 1.15824219 16.1421875 1.21882813 15 1.28125 C13.5364468 1.36568576 12.07290575 1.45033224 10.609375 1.53515625 C9.87976563 1.57447266 9.15015625 1.61378906 8.3984375 1.65429688 C4.92464625 1.85956636 1.71975693 2.23326048 -1.640625 3.09765625 C-3.05597278 3.16222504 -4.47400189 3.18376664 -5.890625 3.16015625 C-7.746875 3.12921875 -7.746875 3.12921875 -9.640625 3.09765625 C-9.640625 2.43765625 -9.640625 1.77765625 -9.640625 1.09765625 C-6.36436125 0.11545685 -3.41274381 -0.01815289 0 0 Z " fill="#C4121E" transform="translate(121.640625,113.90234375)"/>
<path d="M0 0 C0.99 0.33 1.98 0.66 3 1 C3 3.97 3 6.94 3 10 C1.35 10.33 -0.3 10.66 -2 11 C-2.28571429 3.57142857 -2.28571429 3.57142857 0 0 Z " fill="#E90713" transform="translate(208,15)"/>
<path d="M0 0 C0.33 0 0.66 0 1 0 C0.65682018 5.43170818 0.24409332 9.45826935 -3 14 C-3.68096422 15.32608822 -4.35330586 16.65686601 -5 18 C-5.66 18 -6.32 18 -7 18 C-5.06375702 11.79522136 -2.74390859 5.89174281 0 0 Z " fill="#FBD6D5" transform="translate(443,44)"/>
<path d="M0 0 C0.66 0.33 1.32 0.66 2 1 C2 7.27 2 13.54 2 20 C1.34 19.67 0.68 19.34 0 19 C-0.19425873 16.20865148 -0.38069517 13.41716313 -0.5625 10.625 C-0.61857422 9.8309375 -0.67464844 9.036875 -0.73242188 8.21875 C-1.11328125 2.2265625 -1.11328125 2.2265625 0 0 Z " fill="#FEE7E0" transform="translate(153,8)"/>
<path d="M0 0 C1.32 0.33 2.64 0.66 4 1 C3.67 1.99 3.34 2.98 3 4 C2.95565768 6.02034678 2.96072026 8.04204845 3 10.0625 C3.11085181 15.77829638 3.11085181 15.77829638 2 18 C1.34 18 0.68 18 0 18 C0 12.06 0 6.12 0 0 Z " fill="#FCCED0" transform="translate(341,98)"/>
<path d="M0 0 C0.33 0 0.66 0 1 0 C1.72032918 6.60301748 0.33168656 9.83001627 -3.4921875 15.21484375 C-5 17 -5 17 -7 18 C-5.06375702 11.79522136 -2.74390859 5.89174281 0 0 Z " fill="#FBD8D4" transform="translate(455,16)"/>
<path d="M0 0 C3.96 0 7.92 0 12 0 C12 0.99 12 1.98 12 3 C5.565 3.495 5.565 3.495 -1 4 C-0.67 2.68 -0.34 1.36 0 0 Z " fill="#EC0419" transform="translate(361,11)"/>
<path d="M0 0 C0.33 0 0.66 0 1 0 C1.18430864 4.05479018 0.89325516 6.45014657 -1 10 C-1 11.32 -1 12.64 -1 14 C-4.16115776 12.63016497 -4.9927092 12.0109362 -7 9 C-6.67 8.01 -6.34 7.02 -6 6 C-4.68 6 -3.36 6 -2 6 C-1.34 4.02 -0.68 2.04 0 0 Z " fill="#EE071A" transform="translate(431,82)"/>
<path d="M0 0 C0.99 0.33 1.98 0.66 3 1 C3.87890625 3.21484375 3.87890625 3.21484375 4.5625 5.9375 C5.50780455 9.88781528 5.50780455 9.88781528 8 13 C8.8563027 15.63233792 9.38929927 18.29546818 10 21 C9.34 21.33 8.68 21.66 8 22 C6.66108439 18.71057634 5.32982297 15.41810891 4 12.125 C3.6184375 11.18785156 3.236875 10.25070313 2.84375 9.28515625 C2.4828125 8.38925781 2.121875 7.49335938 1.75 6.5703125 C1.41484375 5.74289551 1.0796875 4.91547852 0.734375 4.06298828 C0 2 0 2 0 0 Z " fill="#C22636" transform="translate(393,12)"/>
<path d="M0 0 C0.99 0 1.98 0 3 0 C3 1.32 3 2.64 3 4 C4.32 4 5.64 4 7 4 C7.33 2.68 7.66 1.36 8 0 C8.99 0 9.98 0 11 0 C11 1.65 11 3.3 11 5 C8.26094655 6.36952673 6.02912668 6.12621361 3 6 C2.34 5.67 1.68 5.34 1 5 C0.375 2.4375 0.375 2.4375 0 0 Z " fill="#F00312" transform="translate(193,16)"/>
<path d="M0 0 C6.27 0 12.54 0 19 0 C18.01 0.495 18.01 0.495 17 1 C17 1.66 17 2.32 17 3 C11.06 2.67 5.12 2.34 -1 2 C-0.67 1.34 -0.34 0.68 0 0 Z " fill="#FDE8EB" transform="translate(225,113)"/>
<path d="M0 0 C1.79378179 2.69067269 2.97313958 5.08578257 4.1875 8.0625 C4.55230469 8.94035156 4.91710937 9.81820313 5.29296875 10.72265625 C6 13 6 13 5 15 C2.7522025 12.94766315 1.9977758 11.99332739 1 9 C0.34 9 -0.32 9 -1 9 C-0.67 6.03 -0.34 3.06 0 0 Z " fill="#D5202E" transform="translate(413,12)"/>
<path d="M0 0 C0.99 0.33 1.98 0.66 3 1 C3 2.65 3 4.3 3 6 C6.63 6.33 10.26 6.66 14 7 C14 7.33 14 7.66 14 8 C8.06 8.495 8.06 8.495 2 9 C1.01 6.36 0.02 3.72 -1 1 C-0.67 0.67 -0.34 0.34 0 0 Z " fill="#BE2229" transform="translate(50,114)"/>
<path d="M0 0 C0 1.65 0 3.3 0 5 C-0.66 4.67 -1.32 4.34 -2 4 C-3.42163702 5.31622777 -3.42163702 5.31622777 -5 9 C-0.545 9.99 -0.545 9.99 4 11 C4 11.33 4 11.66 4 12 C0.37 11.67 -3.26 11.34 -7 11 C-6.50992626 3.5263755 -6.50992626 3.5263755 -4.0625 1 C-2 0 -2 0 0 0 Z " fill="#D90F13" transform="translate(400,108)"/>
<path d="M0 0 C0.33 0 0.66 0 1 0 C0.5547115 5.27315333 -0.08373163 10.01770224 -2 15 C-3.32 14.67 -4.64 14.34 -6 14 C-4.02 9.38 -2.04 4.76 0 0 Z " fill="#C5252C" transform="translate(431,24)"/>
<path d="M0 0 C3.20210703 2.62929609 4.25385985 5.6769596 5.6875 9.5 C6.34298828 11.21703125 6.34298828 11.21703125 7.01171875 12.96875 C8 16 8 16 8 19 C7.01 18.67 6.02 18.34 5 18 C4.896875 17.071875 4.79375 16.14375 4.6875 15.1875 C4.3125321 12.00940458 4.3125321 12.00940458 2.375 10.4375 C1.92125 9.963125 1.4675 9.48875 1 9 C1.3125 6.3125 1.3125 6.3125 2 4 C1.34 4 0.68 4 0 4 C0 2.68 0 1.36 0 0 Z " fill="#BD2731" transform="translate(450,109)"/>
<path d="M0 0 C0.99 0 1.98 0 3 0 C3 3.96 3 7.92 3 12 C2.01 12.33 1.02 12.66 0 13 C0 8.71 0 4.42 0 0 Z " fill="#D90F0D" transform="translate(95,48)"/>
<path d="M0 0 C2 0 4 0 6 0 C5.79375 1.2375 5.5875 2.475 5.375 3.75 C4.93892876 7.11909835 4.96596361 9.12841921 7 12 C6.34 12.66 5.68 13.32 5 14 C4.16235732 12.04350603 3.33000941 10.08474444 2.5 8.125 C2.0359375 7.03445312 1.571875 5.94390625 1.09375 4.8203125 C0 2 0 2 0 0 Z " fill="#FCE3E4" transform="translate(440,80)"/>
<path d="M0 0 C6.6 0 13.2 0 20 0 C20 0.66 20 1.32 20 2 C16.71303767 2.79953138 15.28976808 3.09658936 12 2 C9.94106379 1.77674186 7.87766347 1.59294241 5.8125 1.4375 C4.72582031 1.35371094 3.63914062 1.26992187 2.51953125 1.18359375 C1.68808594 1.12300781 0.85664063 1.06242187 0 1 C0 0.67 0 0.34 0 0 Z " fill="#FDE8E3" transform="translate(321,116)"/>
<path d="M0 0 C7.26 0 14.52 0 22 0 C22 0.33 22 0.66 22 1 C15.4 1 8.8 1 2 1 C2.66 2.98 3.32 4.96 4 7 C3.34 7 2.68 7 2 7 C0 4 0 4 0 0 Z " fill="#FED3D4" transform="translate(390,8)"/>
<path d="M0 0 C2.19080101 3.28620152 2.94966872 6.21880738 4 10 C4.33 10.33 4.66 10.66 5 11 C5.04092937 13.33297433 5.04241723 15.66705225 5 18 C2.66496157 15.66496157 1.96776921 13.76960812 0.8125 10.6875 C0.44769531 9.74261719 0.08289063 8.79773438 -0.29296875 7.82421875 C-1.05538965 4.7787474 -0.85431984 2.98739868 0 0 Z " fill="#F8C3BF" transform="translate(435,62)"/>
<path d="M0 0 C5.75 -0.125 5.75 -0.125 8 1 C8 1.99 8 2.98 8 4 C5.03 4 2.06 4 -1 4 C-0.67 2.68 -0.34 1.36 0 0 Z " fill="#D41111" transform="translate(244,56)"/>
<path d="M0 0 C1.07310858 3.27185553 0.89263102 5.42947592 0.0625 8.75 C-0.13214844 9.54921875 -0.32679688 10.3484375 -0.52734375 11.171875 C-0.76130859 12.07679687 -0.76130859 12.07679687 -1 13 C-1.66 13 -2.32 13 -3 13 C-4.62514468 14.45833358 -4.62514468 14.45833358 -6 16 C-4.25192871 10.53262809 -2.34205919 5.24175152 0 0 Z " fill="#FBD0CF" transform="translate(416,106)"/>
<path d="M0 0 C2.18614424 2.18614424 2.68256535 3.53879949 3.625 6.4375 C3.88539062 7.21996094 4.14578125 8.00242187 4.4140625 8.80859375 C5 11 5 11 5 14 C4.34 14 3.68 14 3 14 C2.34 12.02 1.68 10.04 1 8 C0.34 8 -0.32 8 -1 8 C-0.67 5.36 -0.34 2.72 0 0 Z " fill="#F8D1D0" transform="translate(42,96)"/>
<path d="M0 0 C1.32 0 2.64 0 4 0 C5.98362069 2.91708924 5.9876191 4.12380904 5.625 7.75 C5.41875 8.8225 5.2125 9.895 5 11 C2.77174356 8.77174356 2.30760631 7.34238372 1.375 4.375 C1.11460937 3.55773437 0.85421875 2.74046875 0.5859375 1.8984375 C0.39257812 1.27195312 0.19921875 0.64546875 0 0 Z " fill="#FDDFDF" transform="translate(446,96)"/>
<path d="M0 0 C0.66 0 1.32 0 2 0 C2.19335938 0.60328125 2.38671875 1.2065625 2.5859375 1.828125 C2.84632812 2.62734375 3.10671875 3.4265625 3.375 4.25 C3.63023438 5.03890625 3.88546875 5.8278125 4.1484375 6.640625 C4.94009044 8.99977558 4.94009044 8.99977558 6.09375 11.09375 C7.35935367 13.75588187 7.1319816 16.09640484 7 19 C4.74590815 15.61886223 3.61221296 12.20172846 2.375 8.375 C2.14554688 7.68148437 1.91609375 6.98796875 1.6796875 6.2734375 C0 1.15438988 0 1.15438988 0 0 Z " fill="#BC252E" transform="translate(31,63)"/>
<path d="M0 0 C0.66 0 1.32 0 2 0 C2 3.3 2 6.6 2 10 C-0.64 10 -3.28 10 -6 10 C-6 9.34 -6 8.68 -6 8 C-4.02 8 -2.04 8 0 8 C0 5.36 0 2.72 0 0 Z " fill="#EF0514" transform="translate(138,12)"/>
<path d="M0 0 C0.33 1.98 0.66 3.96 1 6 C-0.32 5.34 -1.64 4.68 -3 4 C-3 3.34 -3 2.68 -3 2 C-5.97 2.66 -8.94 3.32 -12 4 C-12.33 3.34 -12.66 2.68 -13 2 C-11.39658445 1.66307215 -9.79223445 1.33058907 -8.1875 1 C-7.29417969 0.814375 -6.40085937 0.62875 -5.48046875 0.4375 C-3 0 -3 0 0 0 Z " fill="#ED0311" transform="translate(451,12)"/>
<path d="M0 0 C3.64666307 2.26786278 4.67897228 4.06404326 5.75 8.1875 C5.99234375 9.08855469 6.2346875 9.98960938 6.484375 10.91796875 C6.65453125 11.60503906 6.8246875 12.29210938 7 13 C6.34 13 5.68 13 5 13 C4.71125 12.401875 4.4225 11.80375 4.125 11.1875 C2.95257974 8.80672208 2.95257974 8.80672208 1 6 C0.60986284 4.0103005 0.26797351 2.00980131 0 0 Z " fill="#C51823" transform="translate(39,43)"/>
<path d="M0 0 C0.66 1.65 1.32 3.3 2 5 C1.4225 4.690625 0.845 4.38125 0.25 4.0625 C-1.84294184 3.07416636 -3.74535275 2.4831387 -6 2 C-6.66 3.32 -7.32 4.64 -8 6 C-8.33 4.68 -8.66 3.36 -9 2 C-5.5647952 -0.29013653 -4.014669 -0.17842973 0 0 Z " fill="#D40F0B" transform="translate(448,14)"/>
<path d="M0 0 C1.32 0 2.64 0 4 0 C4.25 2.8125 4.25 2.8125 4 6 C2 7.875 2 7.875 0 9 C0 6.03 0 3.06 0 0 Z " fill="#E20C08" transform="translate(258,54)"/>
<path d="M0 0 C2.64 0 5.28 0 8 0 C8 0.99 8 1.98 8 3 C5.29120665 4.35439668 2.99066732 4.06501451 0 4 C0 2.68 0 1.36 0 0 Z " fill="#E20A18" transform="translate(163,22)"/>
<path d="M0 0 C6.6 0 13.2 0 20 0 C19.67 1.65 19.34 3.3 19 5 C18.34 4.67 17.68 4.34 17 4 C17 3.01 17 2.02 17 1 C11.39 1 5.78 1 0 1 C0 0.67 0 0.34 0 0 Z " fill="#A72A32" transform="translate(438,9)"/>
<path d="M0 0 C0.66 0 1.32 0 2 0 C2 0.99 2 1.98 2 3 C2.66 3 3.32 3 4 3 C5.29243536 7.1196377 6.26252625 10.66831683 6 15 C4.19969878 12.29954818 3.06622934 9.93322119 1.875 6.9375 C1.52179688 6.05964844 1.16859375 5.18179688 0.8046875 4.27734375 C0 2 0 2 0 0 Z " fill="#FED8D7" transform="translate(451,108)"/>
<path d="M0 0 C1.258125 -0.04125 2.51625 -0.0825 3.8125 -0.125 C4.52019531 -0.14820312 5.22789062 -0.17140625 5.95703125 -0.1953125 C8 0 8 0 11 2 C8.59454362 3.20272819 7.05003047 3.10071472 4.375 3.0625 C3.14910156 3.04896484 3.14910156 3.04896484 1.8984375 3.03515625 C0.95871094 3.01775391 0.95871094 3.01775391 0 3 C0 2.01 0 1.02 0 0 Z " fill="#D80E0C" transform="translate(320,101)"/>
<path d="M0 0 C0.99 0.66 1.98 1.32 3 2 C3.67605634 9.09859155 3.67605634 9.09859155 1.5 12 C1.005 12.33 0.51 12.66 0 13 C0 12.34 0 11.68 0 11 C-0.66 11 -1.32 11 -2 11 C-2 10.34 -2 9.68 -2 9 C-0.68 9 0.64 9 2 9 C2 7.68 2 6.36 2 5 C1.34 5 0.68 5 0 5 C0 3.35 0 1.7 0 0 Z " fill="#DC0E20" transform="translate(139,101)"/>
<path d="M0 0 C1.32 0 2.64 0 4 0 C3.67 1.32 3.34 2.64 3 4 C0.69 4.33 -1.62 4.66 -4 5 C-4 4.01 -4 3.02 -4 2 C-2.68 2 -1.36 2 0 2 C0 1.34 0 0.68 0 0 Z " fill="#EF0313" transform="translate(18,11)"/>
<path d="M0 0 C0.66 0.33 1.32 0.66 2 1 C1.67 2.65 1.34 4.3 1 6 C-0.32 6.33 -1.64 6.66 -3 7 C-3.1875 4.625 -3.1875 4.625 -3 2 C-2.01 1.34 -1.02 0.68 0 0 Z " fill="#F10417" transform="translate(433,98)"/>
<path d="M0 0 C0.66 1.32 1.32 2.64 2 4 C1.01 4 0.02 4 -1 4 C-1.33 5.65 -1.66 7.3 -2 9 C-4 7 -4 7 -4.125 4.375 C-4.08375 3.59125 -4.0425 2.8075 -4 2 C-2.68 1.34 -1.36 0.68 0 0 Z " fill="#D81014" transform="translate(42,51)"/>
<path d="M0 0 C0.99 0 1.98 0 3 0 C1.45730076 4.72065967 -0.07794619 9.41664092 -2 14 C-2.33 14 -2.66 14 -3 14 C-2.67 11.36 -2.34 8.72 -2 6 C-1.34 6 -0.68 6 0 6 C0 4.02 0 2.04 0 0 Z " fill="#BA202B" transform="translate(453,14)"/>
<path d="M0 0 C0.99 0 1.98 0 3 0 C3 1.65 3 3.3 3 5 C1.35 5.33 -0.3 5.66 -2 6 C-2 3 -2 3 0 0 Z " fill="#DF0F05" transform="translate(19,118)"/>
<path d="M0 0 C1.79068573 2.6860286 2.66055791 4.6626589 3.625 7.6875 C3.88539063 8.49574219 4.14578125 9.30398437 4.4140625 10.13671875 C4.60742188 10.75160156 4.80078125 11.36648437 5 12 C4.01 12.33 3.02 12.66 2 13 C0.54815522 8.46298506 -0.23509196 4.81938524 0 0 Z " fill="#FACED0" transform="translate(432,113)"/>
<path d="M0 0 C1.63001953 0.01353516 1.63001953 0.01353516 3.29296875 0.02734375 C4.12441406 0.03894531 4.95585937 0.05054687 5.8125 0.0625 C5.8125 0.3925 5.8125 0.7225 5.8125 1.0625 C2.8425 1.0625 -0.1275 1.0625 -3.1875 1.0625 C-3.1875 1.7225 -3.1875 2.3825 -3.1875 3.0625 C-5.4975 3.0625 -7.8075 3.0625 -10.1875 3.0625 C-8.19010785 -0.9322843 -3.93646808 -0.04232761 0 0 Z " fill="#FEE1E0" transform="translate(134.1875,115.9375)"/>
<path d="M0 0 C0.33 0.99 0.66 1.98 1 3 C1.66 3.33 2.32 3.66 3 4 C0.36 4.33 -2.28 4.66 -5 5 C-5 4.01 -5 3.02 -5 2 C-3.35 1.34 -1.7 0.68 0 0 Z " fill="#F10417" transform="translate(109,109)"/>
<path d="M0 0 C-0.45261358 1.43931117 -0.91232979 2.87638999 -1.375 4.3125 C-1.63023437 5.11300781 -1.88546875 5.91351563 -2.1484375 6.73828125 C-3 9 -3 9 -5 12 C-5.36666667 4.66666667 -5.36666667 4.66666667 -3.625 1.5 C-2 0 -2 0 0 0 Z " fill="#FBD7D5" transform="translate(405,84)"/>
<path d="M0 0 C0.66 0 1.32 0 2 0 C2.33 1.98 2.66 3.96 3 6 C3.66 6 4.32 6 5 6 C4.67 7.98 4.34 9.96 4 12 C3.33333333 10.66666667 2.66666667 9.33333333 2 8 C1.62875 7.34 1.2575 6.68 0.875 6 C0 4 0 4 0 0 Z " fill="#F9CFCA" transform="translate(30,10)"/>
<path d="M0 0 C1.98 0 3.96 0 6 0 C5.34 0.66 4.68 1.32 4 2 C4 3.32 4 4.64 4 6 C2.68 6 1.36 6 0 6 C0 4.02 0 2.04 0 0 Z " fill="#D91011" transform="translate(22,11)"/>
<path d="M0 0 C0.66 0.33 1.32 0.66 2 1 C2 3.31 2 5.62 2 8 C1.01 8.33 0.02 8.66 -1 9 C-1.625 6.1875 -1.625 6.1875 -2 3 C-1.34 2.01 -0.68 1.02 0 0 Z " fill="#ECFEF7" transform="translate(80,113)"/>
<path d="M0 0 C3.33524284 2.69995849 4.56351308 6.03255995 6 10 C6.1875 12.9375 6.1875 12.9375 6 15 C2.35219334 10.8310781 0 5.55196264 0 0 Z " fill="#B81620" transform="translate(402,33)"/>
<path d="M0 0 C2.18975773 3.28463659 2.99806563 6.20696275 4 10 C1.37812506 8.95125002 0.20628639 8.35068687 -1.25 5.875 C-1.4975 5.25625 -1.745 4.6375 -2 4 C-1.34 4 -0.68 4 0 4 C0 2.68 0 1.36 0 0 Z " fill="#CE2432" transform="translate(419,27)"/>
<path d="M0 0 C3 1 3 1 5 4 C5.25760279 6.69452521 5.08900053 9.28548375 5 12 C3.20931427 9.3139714 2.33944209 7.3373411 1.375 4.3125 C1.11460937 3.50425781 0.85421875 2.69601563 0.5859375 1.86328125 C0.39257812 1.24839844 0.19921875 0.63351563 0 0 Z " fill="#FEE3DD" transform="translate(417,21)"/>
<path d="M0 0 C1.5 1.1875 1.5 1.1875 3 3 C3.1875 5.6875 3.1875 5.6875 3 8 C2.01 8.495 2.01 8.495 1 9 C-2 3.25 -2 3.25 -2 1 C-1.34 0.67 -0.68 0.34 0 0 Z " fill="#F2FDF9" transform="translate(421,19)"/>
<path d="M0 0 C2 3 2 3 1.625 5.1875 C1.41875 5.785625 1.2125 6.38375 1 7 C0.01 6.67 -0.98 6.34 -2 6 C-2 5.34 -2 4.68 -2 4 C-3.98 4 -5.96 4 -8 4 C-8 3.67 -8 3.34 -8 3 C-5.36 3 -2.72 3 0 3 C0 2.01 0 1.02 0 0 Z " fill="#D1161E" transform="translate(454,121)"/>
<path d="M0 0 C2.96052484 3.36423277 3.92289822 6.69159287 5 11 C4.34 10.67 3.68 10.34 3 10 C3 9.34 3 8.68 3 8 C2.01 7.67 1.02 7.34 0 7 C0 4.69 0 2.38 0 0 Z " fill="#BF2E34" transform="translate(439,80)"/>
<path d="M0 0 C2.29013653 3.4352048 2.17842973 4.985331 2 9 C1.01 9 0.02 9 -1 9 C-1.125 2.25 -1.125 2.25 0 0 Z " fill="#D80F0E" transform="translate(104,69)"/>
<path d="M0 0 C0.33 0 0.66 0 1 0 C1 3.3 1 6.6 1 10 C0.67 9.34 0.34 8.68 0 8 C-0.99 8.33 -1.98 8.66 -3 9 C-2.44271087 5.65626525 -1.64826111 2.96687001 0 0 Z " fill="#F8DFD9" transform="translate(447,35)"/>
<path d="M0 0 C2.475 0.99 2.475 0.99 5 2 C5.33 1.34 5.66 0.68 6 0 C6.33 0.99 6.66 1.98 7 3 C5.1875 4.5625 5.1875 4.5625 3 6 C2.01 5.67 1.02 5.34 0 5 C0 3.35 0 1.7 0 0 Z " fill="#CF1412" transform="translate(422,37)"/>
<path d="M0 0 C1.65 0 3.3 0 5 0 C5 1.65 5 3.3 5 5 C3.33333333 5 1.66666667 5 0 5 C0 3.35 0 1.7 0 0 Z " fill="#CE0D0C" transform="translate(137,98)"/>
<path d="M0 0 C0.66 0 1.32 0 2 0 C2 2.64 2 5.28 2 8 C1.01 8.495 1.01 8.495 0 9 C-1.125 2.25 -1.125 2.25 0 0 Z " fill="#D2110A" transform="translate(422,82)"/>
<path d="M0 0 C1.90389849 2.85584773 2.69462177 4.9311762 3.625 8.1875 C4.01558594 9.53908203 4.01558594 9.53908203 4.4140625 10.91796875 C4.60742188 11.60503906 4.80078125 12.29210938 5 13 C4.34 12.67 3.68 12.34 3 12 C3 11.01 3 10.02 3 9 C2.34 9 1.68 9 1 9 C-0.4783226 6.04335481 -0.06032783 3.25770263 0 0 Z " fill="#F6C1C3" transform="translate(403,38)"/>
<path d="M0 0 C2 3 2 3 1.625 6.1875 C1.41875 7.115625 1.2125 8.04375 1 9 C-0.5 7.75 -0.5 7.75 -2 6 C-2 4.68 -2 3.36 -2 2 C-1.34 2 -0.68 2 0 2 C0 1.34 0 0.68 0 0 Z " fill="#DC0D08" transform="translate(416,30)"/>
<path d="M0 0 C1.125 1.6875 1.125 1.6875 2 4 C1.125 6.75 1.125 6.75 0 9 C-0.66 8.67 -1.32 8.34 -2 8 C-1.125 1.125 -1.125 1.125 0 0 Z " fill="#F50112" transform="translate(100,22)"/>
<path d="M0 0 C0.99 0.33 1.98 0.66 3 1 C2.34 3.31 1.68 5.62 1 8 C0.67 7.34 0.34 6.68 0 6 C-0.66 5.67 -1.32 5.34 -2 5 C-1.34 3.35 -0.68 1.7 0 0 Z " fill="#FAE8E4" transform="translate(395,99)"/>
<path d="M0 0 C0.33 0 0.66 0 1 0 C1 2.31 1 4.62 1 7 C-0.65 7.66 -2.3 8.32 -4 9 C-3.47181039 5.19703482 -2.56226812 2.88255163 0 0 Z " fill="#DB1113" transform="translate(32,55)"/>
<path d="M0 0 C0.33 1.32 0.66 2.64 1 4 C-0.98 4.99 -2.96 5.98 -5 7 C-4.1875 4.0625 -4.1875 4.0625 -3 1 C-2.01 0.67 -1.02 0.34 0 0 Z " fill="#CF0D21" transform="translate(437,17)"/>
<path d="M0 0 C0.33 0 0.66 0 1 0 C1.0270043 1.45823212 1.04639787 2.91660675 1.0625 4.375 C1.07410156 5.18710938 1.08570313 5.99921875 1.09765625 6.8359375 C1 9 1 9 0 11 C-1.32 11 -2.64 11 -4 11 C-4 10.34 -4 9.68 -4 9 C-3.01 8.34 -2.02 7.68 -1 7 C-0.26393501 3.43230448 -0.26393501 3.43230448 0 0 Z " fill="#D20F16" transform="translate(28,114)"/>
<path d="M0 0 C0 1.65 0 3.3 0 5 C-1.65 5 -3.3 5 -5 5 C-4.6875 3.0625 -4.6875 3.0625 -4 1 C-1 0 -1 0 0 0 Z " fill="#EA061D" transform="translate(409,115)"/>
<path d="M0 0 C1.485 0.99 1.485 0.99 3 2 C3.1875 5.125 3.1875 5.125 3 8 C2.01 7.67 1.02 7.34 0 7 C0 4.69 0 2.38 0 0 Z " fill="#F10317" transform="translate(15,112)"/>
<path d="M0 0 C0.66 0.33 1.32 0.66 2 1 C2 3.64 2 6.28 2 9 C1.34 9 0.68 9 0 9 C0 7.68 0 6.36 0 5 C-0.99 5.495 -0.99 5.495 -2 6 C-1.34 4.02 -0.68 2.04 0 0 Z " fill="#F2FDF4" transform="translate(420,103)"/>
<path d="M0 0 C0.99 0 1.98 0 3 0 C7 6.75 7 6.75 7 9 C6.34 9 5.68 9 5 9 C5 8.34 5 7.68 5 7 C4.34 7 3.68 7 3 7 C2.87625 6.030625 2.7525 5.06125 2.625 4.0625 C2.41875 3.051875 2.2125 2.04125 2 1 C1.34 0.67 0.68 0.34 0 0 Z " fill="#FCE4E4" transform="translate(403,47)"/>
<path d="M0 0 C0.66 0.33 1.32 0.66 2 1 C1.01 3.31 0.02 5.62 -1 8 C-4 4.25 -4 4.25 -4 2 C-2.125 0.9375 -2.125 0.9375 0 0 Z " fill="#FCCBC1" transform="translate(426,32)"/>
<path d="M0 0 C1.32 0 2.64 0 4 0 C4 1.65 4 3.3 4 5 C2.68 5 1.36 5 0 5 C0 3.35 0 1.7 0 0 Z " fill="#EE0121" transform="translate(298,11)"/>
<path d="M0 0 C1.98 0 3.96 0 6 0 C6.33 0.99 6.66 1.98 7 3 C4 4 4 4 1.8125 3.0625 C1.214375 2.711875 0.61625 2.36125 0 2 C0 1.34 0 0.68 0 0 Z " fill="#EEFEFD" transform="translate(306,3)"/>
<path d="M0 0 C0.99 0.33 1.98 0.66 3 1 C3.33 3.31 3.66 5.62 4 8 C2 6.25 2 6.25 0 4 C0 2.68 0 1.36 0 0 Z " fill="#EAFEFB" transform="translate(458,118)"/>
<path d="M0 0 C-0.99 1.485 -0.99 1.485 -2 3 C-4.64 2.34 -7.28 1.68 -10 1 C-10 0.67 -10 0.34 -10 0 C-3.375 -1.125 -3.375 -1.125 0 0 Z " fill="#FCF4F2" transform="translate(143,117)"/>
<path d="M0 0 C0.99 0.33 1.98 0.66 3 1 C3.33 4.3 3.66 7.6 4 11 C1.54176828 7.31265242 0.98757384 4.30300029 0 0 Z " fill="#FEE2DD" transform="translate(38,32)"/>
<path d="M0 0 C1.98 0 3.96 0 6 0 C6 0.99 6 1.98 6 3 C3.69 3 1.38 3 -1 3 C-0.67 2.01 -0.34 1.02 0 0 Z " fill="#F30017" transform="translate(63,11)"/>
<path d="M0 0 C1.65 0 3.3 0 5 0 C5 0.99 5 1.98 5 3 C1.25 4.125 1.25 4.125 -1 3 C-0.67 2.01 -0.34 1.02 0 0 Z " fill="#EDFEF8" transform="translate(49,6)"/>
<path d="M0 0 C1.65 0.99 3.3 1.98 5 3 C4.67 3.99 4.34 4.98 4 6 C1.03 5.505 1.03 5.505 -2 5 C-1.34 3.35 -0.68 1.7 0 0 Z " fill="#ED030C" transform="translate(396,113)"/>
<path d="M0 0 C1.32 0 2.64 0 4 0 C4 1.32 4 2.64 4 4 C2.35 3.67 0.7 3.34 -1 3 C-0.67 2.01 -0.34 1.02 0 0 Z " fill="#FDF6F2" transform="translate(385,116)"/>
<path d="M0 0 C3 1 3 1 5 4 C4.625 6.1875 4.625 6.1875 4 8 C3.34 7.67 2.68 7.34 2 7 C2.33 6.01 2.66 5.02 3 4 C2.01 3.67 1.02 3.34 0 3 C0 2.01 0 1.02 0 0 Z " fill="#E90210" transform="translate(439,96)"/>
<path d="M0 0 C0.99 0.495 0.99 0.495 2 1 C2 2.65 2 4.3 2 6 C2.99 6.33 3.98 6.66 5 7 C4.34 8.32 3.68 9.64 3 11 C2.49384702 9.73160474 1.99530901 8.46016898 1.5 7.1875 C1.2215625 6.47980469 0.943125 5.77210937 0.65625 5.04296875 C0 3 0 3 0 0 Z " fill="#FAC7C9" transform="translate(42,43)"/>
<path d="M0 0 C2.18975773 3.28463659 2.99806563 6.20696275 4 10 C2 8.9375 2 8.9375 0 7 C-0.25 3.3125 -0.25 3.3125 0 0 Z " fill="#C52E37" transform="translate(413,12)"/>
<path d="M0 0 C0.99 0.99 1.98 1.98 3 3 C1.71034824 4.37562854 0.37310707 5.70766393 -1 7 C-1.66 7 -2.32 7 -3 7 C-2.67 6.01 -2.34 5.02 -2 4 C-1.34 4 -0.68 4 0 4 C0 2.68 0 1.36 0 0 Z " fill="#FCEDE7" transform="translate(459,9)"/>
<path d="M0 0 C1.98 0 3.96 0 6 0 C6 0.99 6 1.98 6 3 C4.02 3 2.04 3 0 3 C0 2.01 0 1.02 0 0 Z " fill="#EFFEFB" transform="translate(152,3)"/>
<path d="M0 0 C1.65 0 3.3 0 5 0 C4.67 1.32 4.34 2.64 4 4 C2.68 4 1.36 4 0 4 C0 2.68 0 1.36 0 0 Z " fill="#EFFAFB" transform="translate(384,112)"/>
<path d="M0 0 C0.99 0.495 0.99 0.495 2 1 C2.59355614 3.64860427 2.74209269 6.29197322 3 9 C1.5 7.875 1.5 7.875 0 6 C-0.1875 2.8125 -0.1875 2.8125 0 0 Z " fill="#ECFDF6" transform="translate(42,103)"/>
<path d="M0 0 C0.33 0 0.66 0 1 0 C1 2.64 1 5.28 1 8 C0.34 8 -0.32 8 -1 8 C-1.33 7.01 -1.66 6.02 -2 5 C-1.67 4.34 -1.34 3.68 -1 3 C-1.66 2.67 -2.32 2.34 -3 2 C-2.01 2 -1.02 2 0 2 C0 1.34 0 0.68 0 0 Z " fill="#EE0821" transform="translate(107,24)"/>
<path d="M0 0 C1.32 0 2.64 0 4 0 C3.6875 1.9375 3.6875 1.9375 3 4 C2.01 4.33 1.02 4.66 0 5 C0 3.35 0 1.7 0 0 Z " fill="#F00217" transform="translate(402,11)"/>
<path d="M0 0 C1.98 0.99 1.98 0.99 4 2 C4 2.99 4 3.98 4 5 C2.68 5 1.36 5 0 5 C0 3.35 0 1.7 0 0 Z " fill="#D4110E" transform="translate(134,11)"/>
</svg>
